{"glyphs":{"0":{"ha":969,"x_min":75,"x_max":894,"o":"m 485 -19 q 183 125 292 -19 q 75 494 75 269 q 189 856 75 719 q 485 992 303 992 q 782 856 669 992 q 894 494 894 719 q 786 125 894 269 q 485 -19 678 -19 m 485 100 q 684 203 614 100 q 754 494 754 306 q 681 778 754 683 q 485 872 608 872 q 292 778 368 872 q 215 494 215 683 q 285 203 215 306 q 485 100 356 100 z "},"1":{"ha":453,"x_min":47,"x_max":342,"o":"m 214 0 l 214 782 q 131 724 164 742 q 69 697 99 707 l 47 821 q 161 881 103 839 q 251 972 219 924 l 342 972 l 342 0 l 214 0 z "},"2":{"ha":728,"x_min":79,"x_max":654,"o":"m 79 1 l 344 404 q 447 576 410 503 q 483 713 483 650 q 442 827 483 785 q 332 869 401 869 q 203 840 263 869 q 96 760 144 810 l 79 899 q 195 965 128 938 q 346 993 263 993 q 548 916 479 993 q 617 726 617 839 q 578 544 617 629 q 461 343 539 460 l 314 121 l 654 121 l 654 1 l 79 1 z "},"3":{"ha":751,"x_min":56,"x_max":668,"o":"m 333 -19 q 184 1 253 -19 q 56 54 115 22 l 88 176 q 205 121 147 142 q 335 100 263 100 q 476 145 425 100 q 528 263 528 190 q 472 392 528 343 q 299 440 417 440 l 238 440 l 238 560 l 299 560 q 441 602 389 560 q 493 718 493 644 q 453 834 493 796 q 338 872 413 872 q 226 849 278 872 q 126 793 175 826 l 104 928 q 219 975 157 958 q 356 992 282 992 q 565 920 492 992 q 638 735 638 849 q 583 575 638 640 q 433 490 528 510 l 433 522 q 606 438 544 500 q 668 267 668 376 q 572 57 668 133 q 333 -19 476 -19 z "},"4":{"ha":803,"x_min":28,"x_max":765,"o":"m 507 0 l 507 251 l 28 251 l 544 972 l 640 972 l 640 364 l 765 364 l 765 251 l 640 251 l 640 0 l 507 0 m 222 326 l 199 364 l 507 364 l 507 799 l 531 760 l 222 326 z "},"5":{"ha":751,"x_min":71,"x_max":688,"o":"m 342 -19 q 193 1 264 -19 q 71 54 122 21 l 103 176 q 210 128 154 149 q 335 108 265 108 q 485 160 428 108 q 543 301 543 213 q 481 453 543 401 q 318 506 418 506 q 218 498 265 506 q 122 478 171 490 l 182 972 l 640 972 l 635 847 l 290 847 l 254 543 l 225 600 q 361 614 294 614 q 602 525 517 614 q 688 301 688 436 q 588 67 688 153 q 342 -19 489 -19 z "},"6":{"ha":789,"x_min":86,"x_max":729,"o":"m 410 -19 q 172 81 257 -19 q 86 342 86 181 q 151 622 86 494 q 315 844 217 750 q 517 992 414 939 l 607 907 q 416 775 504 856 q 274 590 328 694 q 221 364 221 486 l 176 439 q 278 544 210 506 q 440 583 347 583 q 648 499 567 583 q 729 289 729 415 q 641 67 729 153 q 410 -19 553 -19 m 410 94 q 543 149 493 94 q 593 285 593 204 q 543 416 593 363 q 410 469 493 469 q 276 416 326 469 q 225 283 225 363 q 276 148 225 201 q 410 94 326 94 z "},"7":{"ha":699,"x_min":56,"x_max":685,"o":"m 125 0 l 517 907 l 553 847 l 56 847 l 56 972 l 685 972 l 264 0 l 125 0 z "},"8":{"ha":842,"x_min":83,"x_max":758,"o":"m 421 -19 q 174 64 264 -19 q 83 278 83 147 q 176 496 83 414 q 421 578 269 578 q 665 496 572 578 q 758 278 758 414 q 667 64 758 147 q 421 -19 576 -19 m 421 100 q 569 149 517 100 q 622 278 622 197 q 569 415 622 361 q 421 469 517 469 q 272 415 325 469 q 219 278 219 361 q 272 149 219 197 q 421 100 325 100 m 421 476 q 213 547 299 476 q 128 729 128 618 q 196 908 128 825 q 421 992 264 992 q 643 908 578 992 q 708 729 708 825 q 631 547 708 618 q 421 476 553 476 m 421 585 q 537 627 497 585 q 576 729 576 669 q 537 833 576 793 q 421 872 497 872 q 302 833 344 872 q 260 729 260 793 q 302 627 260 669 q 421 585 344 585 z "},"9":{"ha":789,"x_min":60,"x_max":703,"o":"m 286 0 l 196 85 q 376 212 292 133 q 515 391 461 290 q 568 608 568 492 l 613 533 q 510 428 579 467 q 349 389 442 389 q 141 473 222 389 q 60 683 60 557 q 148 906 60 819 q 379 992 236 992 q 617 892 532 992 q 703 631 703 792 q 640 360 703 483 q 481 144 576 236 q 286 0 385 53 m 379 503 q 513 556 463 503 q 564 689 564 610 q 513 824 564 771 q 379 878 463 878 q 246 823 296 878 q 196 688 196 768 q 246 556 196 610 q 379 503 296 503 z "},"A":{"ha":856,"x_min":10,"x_max":846,"o":"m 636 263 l 219 263 l 219 382 l 636 382 l 636 263 m 408 843 l 447 843 l 149 0 l 10 0 l 358 972 l 497 972 l 846 0 l 707 0 l 408 843 z "},"Á":{"ha":856,"x_min":10,"x_max":846,"o":"m 636 263 l 219 263 l 219 382 l 636 382 l 636 263 m 408 843 l 447 843 l 149 0 l 10 0 l 358 972 l 497 972 l 846 0 l 707 0 l 408 843 m 299 1061 l 299 1142 l 558 1274 l 558 1142 l 299 1061 z "},"Ă":{"ha":856,"x_min":10,"x_max":846,"o":"m 636 263 l 219 263 l 219 382 l 636 382 l 636 263 m 408 843 l 447 843 l 149 0 l 10 0 l 358 972 l 497 972 l 846 0 l 707 0 l 408 843 m 428 1061 q 274 1113 324 1061 q 225 1228 225 1164 l 336 1228 q 363 1167 336 1188 q 428 1147 390 1147 q 492 1167 465 1147 q 519 1228 519 1188 l 631 1228 q 581 1113 631 1164 q 428 1061 532 1061 z "},"Ắ":{"ha":856,"x_min":10,"x_max":846,"o":"m 636 263 l 219 263 l 219 382 l 636 382 l 636 263 m 408 843 l 447 843 l 149 0 l 10 0 l 358 972 l 497 972 l 846 0 l 707 0 l 408 843 m 428 1061 q 274 1113 324 1061 q 225 1228 225 1164 l 336 1228 q 363 1167 336 1188 q 428 1147 390 1147 q 492 1167 465 1147 q 519 1228 519 1188 l 631 1228 q 581 1113 631 1164 q 428 1061 532 1061 m 299 1289 l 299 1369 l 558 1501 l 558 1369 l 299 1289 z "},"Ặ":{"ha":856,"x_min":10,"x_max":846,"o":"m 636 263 l 219 263 l 219 382 l 636 382 l 636 263 m 408 843 l 447 843 l 149 0 l 10 0 l 358 972 l 497 972 l 846 0 l 707 0 l 408 843 m 428 1092 q 274 1146 324 1092 q 225 1268 225 1200 l 336 1268 q 363 1204 336 1225 q 428 1183 390 1183 q 492 1204 465 1183 q 519 1268 519 1225 l 631 1268 q 581 1146 631 1200 q 428 1092 532 1092 z "},"Ằ":{"ha":856,"x_min":10,"x_max":846,"o":"m 636 263 l 219 263 l 219 382 l 636 382 l 636 263 m 408 843 l 447 843 l 149 0 l 10 0 l 358 972 l 497 972 l 846 0 l 707 0 l 408 843 m 428 1060 q 274 1111 324 1060 q 225 1226 225 1163 l 336 1226 q 363 1166 336 1186 q 428 1146 390 1146 q 492 1166 465 1146 q 519 1226 519 1186 l 631 1226 q 581 1111 631 1163 q 428 1060 532 1060 m 557 1288 l 297 1368 l 297 1500 l 557 1368 l 557 1288 z "},"Ẳ":{"ha":856,"x_min":10,"x_max":846,"o":"m 636 263 l 219 263 l 219 382 l 636 382 l 636 263 m 408 843 l 447 843 l 149 0 l 10 0 l 358 972 l 497 972 l 846 0 l 707 0 l 408 843 m 428 1061 q 274 1113 324 1061 q 225 1228 225 1164 l 336 1228 q 363 1167 336 1188 q 428 1147 390 1147 q 492 1167 465 1147 q 519 1228 519 1188 l 631 1228 q 581 1113 631 1164 q 428 1061 532 1061 m 440 1250 l 428 1306 q 476 1360 476 1322 q 419 1404 476 1404 q 332 1378 382 1404 l 308 1449 q 419 1475 357 1475 q 517 1447 476 1475 q 557 1368 557 1419 q 440 1250 557 1276 z "},"Ẵ":{"ha":856,"x_min":10,"x_max":846,"o":"m 636 263 l 219 263 l 219 382 l 636 382 l 636 263 m 408 843 l 447 843 l 149 0 l 10 0 l 358 972 l 497 972 l 846 0 l 707 0 l 408 843 m 428 1061 q 274 1113 324 1061 q 225 1228 225 1164 l 336 1228 q 363 1167 336 1188 q 428 1147 390 1147 q 492 1167 465 1147 q 519 1228 519 1188 l 631 1228 q 581 1113 631 1164 q 428 1061 532 1061 m 543 1293 q 442 1322 494 1293 q 349 1350 389 1350 q 301 1300 301 1350 l 211 1300 q 313 1439 211 1439 q 414 1410 361 1439 q 507 1382 467 1382 q 554 1432 554 1382 l 644 1432 q 543 1293 644 1293 z "},"Â":{"ha":856,"x_min":10,"x_max":846,"o":"m 636 263 l 219 263 l 219 382 l 636 382 l 636 263 m 408 843 l 447 843 l 149 0 l 10 0 l 358 972 l 497 972 l 846 0 l 707 0 l 408 843 m 251 1046 l 251 1131 l 428 1256 l 604 1131 l 604 1046 l 428 1138 l 251 1046 z "},"Ấ":{"ha":856,"x_min":10,"x_max":846,"o":"m 636 263 l 219 263 l 219 382 l 636 382 l 636 263 m 408 843 l 447 843 l 149 0 l 10 0 l 358 972 l 497 972 l 846 0 l 707 0 l 408 843 m 251 1046 l 251 1131 l 428 1256 l 604 1131 l 604 1046 l 428 1138 l 251 1046 m 532 1249 l 624 1411 l 760 1411 l 624 1249 l 532 1249 z "},"Ậ":{"ha":856,"x_min":10,"x_max":846,"o":"m 636 263 l 219 263 l 219 382 l 636 382 l 636 263 m 408 843 l 447 843 l 149 0 l 10 0 l 358 972 l 497 972 l 846 0 l 707 0 l 408 843 m 251 1075 l 251 1160 l 428 1313 l 604 1160 l 604 1075 l 428 1186 l 251 1075 z "},"Ầ":{"ha":856,"x_min":10,"x_max":846,"o":"m 636 263 l 219 263 l 219 382 l 636 382 l 636 263 m 408 843 l 447 843 l 149 0 l 10 0 l 358 972 l 497 972 l 846 0 l 707 0 l 408 843 m 251 1046 l 251 1131 l 428 1256 l 604 1131 l 604 1046 l 428 1138 l 251 1046 m 551 1249 l 431 1411 l 563 1411 l 640 1249 l 551 1249 z "},"Ẩ":{"ha":856,"x_min":10,"x_max":846,"o":"m 636 263 l 219 263 l 219 382 l 636 382 l 636 263 m 408 843 l 447 843 l 149 0 l 10 0 l 358 972 l 497 972 l 846 0 l 707 0 l 408 843 m 251 1046 l 251 1131 l 428 1256 l 604 1131 l 604 1046 l 428 1138 l 251 1046 m 561 1211 l 549 1267 q 597 1321 597 1283 q 540 1365 597 1365 q 453 1339 503 1365 l 429 1410 q 540 1436 478 1436 q 638 1408 597 1436 q 678 1329 678 1381 q 561 1211 678 1238 z "},"Ẫ":{"ha":856,"x_min":10,"x_max":846,"o":"m 636 263 l 219 263 l 219 382 l 636 382 l 636 263 m 408 843 l 447 843 l 149 0 l 10 0 l 358 972 l 497 972 l 846 0 l 707 0 l 408 843 m 251 1046 l 251 1131 l 428 1256 l 604 1131 l 604 1046 l 428 1138 l 251 1046 m 543 1313 q 442 1341 494 1313 q 349 1369 389 1369 q 301 1319 301 1369 l 211 1319 q 313 1458 211 1458 q 414 1430 361 1458 q 507 1401 467 1401 q 554 1451 554 1401 l 644 1451 q 543 1313 644 1313 z "},"Ȁ":{"ha":856,"x_min":10,"x_max":846,"o":"m 636 263 l 219 263 l 219 382 l 636 382 l 636 263 m 408 843 l 447 843 l 149 0 l 10 0 l 358 972 l 497 972 l 846 0 l 707 0 l 408 843 m 572 1094 l 481 1094 l 356 1299 l 492 1299 l 572 1094 m 378 1094 l 286 1094 l 154 1299 l 290 1299 l 378 1094 z "},"Ä":{"ha":856,"x_min":10,"x_max":846,"o":"m 636 263 l 219 263 l 219 382 l 636 382 l 636 263 m 408 843 l 447 843 l 149 0 l 10 0 l 358 972 l 497 972 l 846 0 l 707 0 l 408 843 m 235 1103 l 235 1207 l 354 1207 l 354 1103 l 235 1103 m 501 1103 l 501 1207 l 621 1207 l 621 1103 l 501 1103 z "},"Ạ":{"ha":856,"x_min":10,"x_max":846,"o":"m 636 263 l 219 263 l 219 382 l 636 382 l 636 263 m 408 843 l 447 843 l 149 0 l 10 0 l 358 972 l 497 972 l 846 0 l 707 0 l 408 843 z "},"À":{"ha":856,"x_min":10,"x_max":846,"o":"m 636 263 l 219 263 l 219 382 l 636 382 l 636 263 m 408 843 l 447 843 l 149 0 l 10 0 l 358 972 l 497 972 l 846 0 l 707 0 l 408 843 m 557 1061 l 297 1142 l 297 1274 l 557 1142 l 557 1061 z "},"Ả":{"ha":856,"x_min":10,"x_max":846,"o":"m 636 263 l 219 263 l 219 382 l 636 382 l 636 263 m 408 843 l 447 843 l 149 0 l 10 0 l 358 972 l 497 972 l 846 0 l 707 0 l 408 843 m 426 1056 l 414 1111 q 463 1165 463 1128 q 406 1210 463 1210 q 318 1183 368 1210 l 294 1254 q 406 1281 343 1281 q 503 1253 463 1281 q 543 1174 543 1225 q 426 1056 543 1082 z "},"Ȃ":{"ha":856,"x_min":10,"x_max":846,"o":"m 636 263 l 219 263 l 219 382 l 636 382 l 636 263 m 408 843 l 447 843 l 149 0 l 10 0 l 358 972 l 497 972 l 846 0 l 707 0 l 408 843 m 428 1249 q 581 1198 532 1249 q 631 1082 631 1147 l 519 1082 q 492 1142 519 1122 q 428 1163 465 1163 q 363 1142 390 1163 q 336 1082 336 1122 l 225 1082 q 274 1198 225 1147 q 428 1249 324 1249 z "},"Ā":{"ha":856,"x_min":10,"x_max":846,"o":"m 636 263 l 219 263 l 219 382 l 636 382 l 636 263 m 408 843 l 447 843 l 149 0 l 10 0 l 358 972 l 497 972 l 846 0 l 707 0 l 408 843 m 206 1101 l 206 1196 l 650 1196 l 650 1101 l 206 1101 z "},"Ą":{"ha":856,"x_min":10,"x_max":886,"o":"m 636 263 l 219 263 l 219 382 l 636 382 l 636 263 m 408 843 l 447 843 l 149 0 l 10 0 l 358 972 l 497 972 l 846 0 l 707 0 l 408 843 m 746 0 l 819 0 q 741 -73 771 -37 q 711 -147 711 -108 q 778 -218 711 -218 q 865 -194 822 -218 l 886 -262 q 838 -281 867 -272 q 771 -289 808 -289 q 672 -258 713 -289 q 631 -169 631 -228 q 667 -69 631 -114 q 746 0 704 -24 z "},"Å":{"ha":856,"x_min":10,"x_max":846,"o":"m 636 263 l 219 263 l 219 382 l 636 382 l 636 263 m 408 843 l 447 843 l 149 0 l 10 0 l 358 972 l 497 972 l 846 0 l 707 0 l 408 843 m 428 1050 q 319 1092 356 1050 q 283 1186 283 1133 q 320 1281 283 1239 q 428 1322 357 1322 q 536 1281 500 1322 q 572 1186 572 1239 q 536 1092 572 1133 q 428 1050 500 1050 m 428 1111 q 480 1131 457 1111 q 503 1186 503 1150 q 481 1240 503 1219 q 428 1261 458 1261 q 375 1240 397 1261 q 353 1186 353 1219 q 376 1131 353 1150 q 428 1111 399 1111 z "},"Ǻ":{"ha":856,"x_min":10,"x_max":846,"o":"m 636 263 l 219 263 l 219 382 l 636 382 l 636 263 m 408 843 l 447 843 l 149 0 l 10 0 l 358 972 l 497 972 l 846 0 l 707 0 l 408 843 m 428 1050 q 319 1092 356 1050 q 283 1186 283 1133 q 320 1281 283 1239 q 428 1322 357 1322 q 536 1281 500 1322 q 572 1186 572 1239 q 536 1092 572 1133 q 428 1050 500 1050 m 428 1111 q 480 1131 457 1111 q 503 1186 503 1150 q 481 1240 503 1219 q 428 1261 458 1261 q 375 1240 397 1261 q 353 1186 353 1219 q 376 1131 353 1150 q 428 1111 399 1111 m 299 1368 l 299 1449 l 558 1581 l 558 1449 l 299 1368 z "},"Ã":{"ha":856,"x_min":10,"x_max":846,"o":"m 636 263 l 219 263 l 219 382 l 636 382 l 636 263 m 408 843 l 447 843 l 149 0 l 10 0 l 358 972 l 497 972 l 846 0 l 707 0 l 408 843 m 543 1094 q 442 1123 494 1094 q 349 1151 389 1151 q 301 1101 301 1151 l 211 1101 q 313 1240 211 1240 q 414 1212 361 1240 q 507 1183 467 1183 q 554 1233 554 1183 l 644 1233 q 543 1094 644 1094 z "},"Æ":{"ha":1203,"x_min":-10,"x_max":1150,"o":"m -10 0 l 465 972 l 1136 972 l 1136 851 l 703 851 l 703 568 l 1038 568 l 1038 449 l 703 449 l 703 119 l 1150 119 l 1150 0 l 544 0 l 544 849 l 119 0 l -10 0 m 215 250 l 215 378 l 567 378 l 567 250 l 215 250 z "},"Ǽ":{"ha":1203,"x_min":-10,"x_max":1150,"o":"m -10 0 l 465 972 l 1136 972 l 1136 851 l 703 851 l 703 568 l 1038 568 l 1038 449 l 703 449 l 703 119 l 1150 119 l 1150 0 l 544 0 l 544 849 l 119 0 l -10 0 m 215 250 l 215 378 l 567 378 l 567 250 l 215 250 m 672 1061 l 672 1142 l 932 1274 l 932 1142 l 672 1061 z "},"B":{"ha":829,"x_min":111,"x_max":788,"o":"m 111 0 l 111 972 l 418 972 q 623 913 549 972 q 697 735 697 854 q 662 592 697 653 q 556 511 626 531 l 575 533 q 732 453 676 517 q 788 278 788 389 q 705 75 788 150 q 478 0 622 0 l 111 0 m 243 119 l 467 119 q 595 160 547 119 q 643 282 643 200 q 594 411 643 374 q 467 449 544 449 l 243 449 l 243 119 m 243 568 l 401 568 q 517 597 472 568 q 561 711 561 625 q 517 826 561 797 q 401 854 472 854 l 243 854 l 243 568 z "},"C":{"ha":856,"x_min":54,"x_max":810,"o":"m 544 -19 q 193 118 332 -19 q 54 486 54 256 q 195 854 54 717 q 550 992 336 992 q 691 976 624 992 q 810 935 758 960 l 796 813 q 681 855 744 838 q 549 872 618 872 q 288 760 376 872 q 199 486 199 647 q 287 213 199 325 q 546 100 375 100 q 679 115 618 100 q 796 158 740 131 l 810 36 q 692 -3 758 13 q 544 -19 626 -19 z "},"Ć":{"ha":856,"x_min":54,"x_max":810,"o":"m 544 -19 q 193 118 332 -19 q 54 486 54 256 q 195 854 54 717 q 550 992 336 992 q 691 976 624 992 q 810 935 758 960 l 796 813 q 681 855 744 838 q 549 872 618 872 q 288 760 376 872 q 199 486 199 647 q 287 213 199 325 q 546 100 375 100 q 679 115 618 100 q 796 158 740 131 l 810 36 q 692 -3 758 13 q 544 -19 626 -19 m 393 1061 l 393 1142 l 653 1274 l 653 1142 l 393 1061 z "},"Č":{"ha":856,"x_min":54,"x_max":810,"o":"m 544 -19 q 193 118 332 -19 q 54 486 54 256 q 195 854 54 717 q 550 992 336 992 q 691 976 624 992 q 810 935 758 960 l 796 813 q 681 855 744 838 q 549 872 618 872 q 288 760 376 872 q 199 486 199 647 q 287 213 199 325 q 546 100 375 100 q 679 115 618 100 q 796 158 740 131 l 810 36 q 692 -3 758 13 q 544 -19 626 -19 z "},"Ç":{"ha":856,"x_min":54,"x_max":810,"o":"m 544 -19 q 193 118 332 -19 q 54 486 54 256 q 195 854 54 717 q 550 992 336 992 q 691 976 624 992 q 810 935 758 960 l 796 813 q 681 855 744 838 q 549 872 618 872 q 288 760 376 872 q 199 486 199 647 q 287 213 199 325 q 546 100 375 100 q 679 115 618 100 q 796 158 740 131 l 810 36 q 692 -3 758 13 q 544 -19 626 -19 m 536 -110 l 490 -89 q 558 -75 528 -75 q 679 -187 679 -75 q 636 -281 679 -249 q 532 -314 593 -314 q 469 -306 496 -314 q 424 -287 443 -297 l 444 -219 q 487 -237 465 -231 q 532 -243 508 -243 q 599 -190 599 -243 q 529 -135 599 -135 q 465 -146 497 -135 l 501 0 l 571 0 l 536 -110 z "},"Ḉ":{"ha":856,"x_min":54,"x_max":810,"o":"m 544 -19 q 193 118 332 -19 q 54 486 54 256 q 195 854 54 717 q 550 992 336 992 q 691 976 624 992 q 810 935 758 960 l 796 813 q 681 855 744 838 q 549 872 618 872 q 288 760 376 872 q 199 486 199 647 q 287 213 199 325 q 546 100 375 100 q 679 115 618 100 q 796 158 740 131 l 810 36 q 692 -3 758 13 q 544 -19 626 -19 m 536 -110 l 490 -89 q 558 -75 528 -75 q 679 -187 679 -75 q 636 -281 679 -249 q 532 -314 593 -314 q 469 -306 496 -314 q 424 -287 443 -297 l 444 -219 q 487 -237 465 -231 q 532 -243 508 -243 q 599 -190 599 -243 q 529 -135 599 -135 q 465 -146 497 -135 l 501 0 l 571 0 l 536 -110 m 393 1061 l 393 1142 l 653 1274 l 653 1142 l 393 1061 z "},"Ĉ":{"ha":856,"x_min":54,"x_max":810,"o":"m 544 -19 q 193 118 332 -19 q 54 486 54 256 q 195 854 54 717 q 550 992 336 992 q 691 976 624 992 q 810 935 758 960 l 796 813 q 681 855 744 838 q 549 872 618 872 q 288 760 376 872 q 199 486 199 647 q 287 213 199 325 q 546 100 375 100 q 679 115 618 100 q 796 158 740 131 l 810 36 q 692 -3 758 13 q 544 -19 626 -19 m 346 1046 l 346 1131 l 522 1256 l 699 1131 l 699 1046 l 522 1138 l 346 1046 z "},"Ċ":{"ha":856,"x_min":54,"x_max":810,"o":"m 544 -19 q 193 118 332 -19 q 54 486 54 256 q 195 854 54 717 q 550 992 336 992 q 691 976 624 992 q 810 935 758 960 l 796 813 q 681 855 744 838 q 549 872 618 872 q 288 760 376 872 q 199 486 199 647 q 287 213 199 325 q 546 100 375 100 q 679 115 618 100 q 796 158 740 131 l 810 36 q 692 -3 758 13 q 544 -19 626 -19 m 456 1099 l 456 1224 l 589 1224 l 589 1099 l 456 1099 z "},"D":{"ha":1010,"x_min":111,"x_max":954,"o":"m 111 0 l 111 972 l 471 972 q 818 844 682 972 q 954 486 954 717 q 818 128 954 256 q 471 0 682 0 l 111 0 m 243 119 l 471 119 q 724 221 638 119 q 810 486 810 322 q 724 751 810 650 q 471 853 638 853 l 243 853 l 243 119 z "},"Ǆ":{"ha":1743,"x_min":111,"x_max":1733,"o":"m 111 0 l 111 972 l 471 972 q 818 844 682 972 q 954 486 954 717 q 818 128 954 256 q 471 0 682 0 l 111 0 m 243 119 l 471 119 q 724 221 638 119 q 810 486 810 322 q 724 751 810 650 q 471 853 638 853 l 243 853 l 243 119 z "},"Ð":{"ha":1013,"x_min":25,"x_max":957,"o":"m 122 0 l 122 435 l 25 435 l 25 551 l 122 551 l 122 972 l 478 972 q 822 844 688 972 q 957 486 957 717 q 822 128 957 256 q 478 0 688 0 l 122 0 m 247 121 l 478 121 q 731 221 646 121 q 815 486 815 321 q 731 752 815 651 q 478 853 646 853 l 247 853 l 247 551 l 432 551 l 432 435 l 247 435 l 247 121 z "},"Ď":{"ha":1010,"x_min":111,"x_max":954,"o":"m 111 0 l 111 972 l 471 972 q 818 844 682 972 q 954 486 954 717 q 818 128 954 256 q 471 0 682 0 l 111 0 m 243 119 l 471 119 q 724 221 638 119 q 810 486 810 322 q 724 751 810 650 q 471 853 638 853 l 243 853 l 243 119 z "},"Đ":{"ha":1013,"x_min":25,"x_max":957,"o":"m 122 0 l 122 435 l 25 435 l 25 551 l 122 551 l 122 972 l 478 972 q 822 844 688 972 q 957 486 957 717 q 822 128 957 256 q 478 0 688 0 l 122 0 m 247 121 l 478 121 q 731 221 646 121 q 815 486 815 321 q 731 752 815 651 q 478 853 646 853 l 247 853 l 247 551 l 432 551 l 432 435 l 247 435 l 247 121 z "},"Ḍ":{"ha":1010,"x_min":111,"x_max":954,"o":"m 111 0 l 111 972 l 471 972 q 818 844 682 972 q 954 486 954 717 q 818 128 954 256 q 471 0 682 0 l 111 0 m 243 119 l 471 119 q 724 221 638 119 q 810 486 810 322 q 724 751 810 650 q 471 853 638 853 l 243 853 l 243 119 z "},"Ḏ":{"ha":1010,"x_min":111,"x_max":954,"o":"m 111 0 l 111 972 l 471 972 q 818 844 682 972 q 954 486 954 717 q 818 128 954 256 q 471 0 682 0 l 111 0 m 243 119 l 471 119 q 724 221 638 119 q 810 486 810 322 q 724 751 810 650 q 471 853 638 853 l 243 853 l 243 119 z "},"ǅ":{"ha":1656,"x_min":111,"x_max":1621,"o":"m 111 0 l 111 972 l 471 972 q 818 844 682 972 q 954 486 954 717 q 818 128 954 256 q 471 0 682 0 l 111 0 m 243 119 l 471 119 q 724 221 638 119 q 810 486 810 322 q 724 751 810 650 q 471 853 638 853 l 243 853 l 243 119 z "},"E":{"ha":769,"x_min":111,"x_max":717,"o":"m 111 0 l 111 972 l 704 972 l 704 853 l 243 853 l 243 568 l 610 568 l 610 449 l 243 449 l 243 119 l 717 119 l 717 0 l 111 0 z "},"É":{"ha":769,"x_min":111,"x_max":717,"o":"m 111 0 l 111 972 l 704 972 l 704 853 l 243 853 l 243 568 l 610 568 l 610 449 l 243 449 l 243 119 l 717 119 l 717 0 l 111 0 m 293 1061 l 293 1142 l 553 1274 l 553 1142 l 293 1061 z "},"Ĕ":{"ha":769,"x_min":111,"x_max":717,"o":"m 111 0 l 111 972 l 704 972 l 704 853 l 243 853 l 243 568 l 610 568 l 610 449 l 243 449 l 243 119 l 717 119 l 717 0 l 111 0 m 422 1061 q 269 1113 318 1061 q 219 1228 219 1164 l 331 1228 q 358 1167 331 1188 q 422 1147 385 1147 q 487 1167 460 1147 q 514 1228 514 1188 l 625 1228 q 576 1113 625 1164 q 422 1061 526 1061 z "},"Ě":{"ha":769,"x_min":111,"x_max":717,"o":"m 111 0 l 111 972 l 704 972 l 704 853 l 243 853 l 243 568 l 610 568 l 610 449 l 243 449 l 243 119 l 717 119 l 717 0 l 111 0 z "},"Ḝ":{"ha":769,"x_min":111,"x_max":717,"o":"m 111 0 l 111 972 l 704 972 l 704 853 l 243 853 l 243 568 l 610 568 l 610 449 l 243 449 l 243 119 l 717 119 l 717 0 l 111 0 m 429 -110 l 383 -89 q 451 -75 421 -75 q 572 -187 572 -75 q 529 -281 572 -249 q 425 -314 486 -314 q 363 -306 389 -314 q 317 -287 336 -297 l 338 -219 q 380 -237 358 -231 q 425 -243 401 -243 q 492 -190 492 -243 q 422 -135 492 -135 q 358 -146 390 -135 l 394 0 l 464 0 l 429 -110 m 422 1061 q 269 1113 318 1061 q 219 1228 219 1164 l 331 1228 q 358 1167 331 1188 q 422 1147 385 1147 q 487 1167 460 1147 q 514 1228 514 1188 l 625 1228 q 576 1113 625 1164 q 422 1061 526 1061 z "},"Ê":{"ha":769,"x_min":111,"x_max":717,"o":"m 111 0 l 111 972 l 704 972 l 704 853 l 243 853 l 243 568 l 610 568 l 610 449 l 243 449 l 243 119 l 717 119 l 717 0 l 111 0 m 246 1046 l 246 1131 l 422 1256 l 599 1131 l 599 1046 l 422 1138 l 246 1046 z "},"Ế":{"ha":769,"x_min":111,"x_max":754,"o":"m 111 0 l 111 972 l 704 972 l 704 853 l 243 853 l 243 568 l 610 568 l 610 449 l 243 449 l 243 119 l 717 119 l 717 0 l 111 0 m 246 1046 l 246 1131 l 422 1256 l 599 1131 l 599 1046 l 422 1138 l 246 1046 m 526 1249 l 618 1411 l 754 1411 l 618 1249 l 526 1249 z "},"Ệ":{"ha":769,"x_min":111,"x_max":717,"o":"m 111 0 l 111 972 l 704 972 l 704 853 l 243 853 l 243 568 l 610 568 l 610 449 l 243 449 l 243 119 l 717 119 l 717 0 l 111 0 m 246 1046 l 246 1131 l 422 1256 l 599 1131 l 599 1046 l 422 1138 l 246 1046 z "},"Ề":{"ha":769,"x_min":111,"x_max":717,"o":"m 111 0 l 111 972 l 704 972 l 704 853 l 243 853 l 243 568 l 610 568 l 610 449 l 243 449 l 243 119 l 717 119 l 717 0 l 111 0 m 246 1046 l 246 1131 l 422 1256 l 599 1131 l 599 1046 l 422 1138 l 246 1046 m 546 1249 l 425 1411 l 557 1411 l 635 1249 l 546 1249 z "},"Ể":{"ha":769,"x_min":111,"x_max":717,"o":"m 111 0 l 111 972 l 704 972 l 704 853 l 243 853 l 243 568 l 610 568 l 610 449 l 243 449 l 243 119 l 717 119 l 717 0 l 111 0 m 246 1046 l 246 1131 l 422 1256 l 599 1131 l 599 1046 l 422 1138 l 246 1046 m 556 1211 l 543 1267 q 592 1321 592 1283 q 535 1365 592 1365 q 447 1339 497 1365 l 424 1410 q 535 1436 472 1436 q 632 1408 592 1436 q 672 1329 672 1381 q 556 1211 672 1238 z "},"Ễ":{"ha":769,"x_min":111,"x_max":717,"o":"m 111 0 l 111 972 l 704 972 l 704 853 l 243 853 l 243 568 l 610 568 l 610 449 l 243 449 l 243 119 l 717 119 l 717 0 l 111 0 m 246 1046 l 246 1131 l 422 1256 l 599 1131 l 599 1046 l 422 1138 l 246 1046 m 538 1313 q 436 1341 489 1313 q 343 1369 383 1369 q 296 1319 296 1369 l 206 1319 q 307 1458 206 1458 q 408 1430 356 1458 q 501 1401 461 1401 q 549 1451 549 1401 l 639 1451 q 538 1313 639 1313 z "},"Ȅ":{"ha":769,"x_min":111,"x_max":717,"o":"m 111 0 l 111 972 l 704 972 l 704 853 l 243 853 l 243 568 l 610 568 l 610 449 l 243 449 l 243 119 l 717 119 l 717 0 l 111 0 m 567 1094 l 475 1094 l 350 1299 l 486 1299 l 567 1094 m 372 1094 l 281 1094 l 149 1299 l 285 1299 l 372 1094 z "},"Ë":{"ha":769,"x_min":111,"x_max":717,"o":"m 111 0 l 111 972 l 704 972 l 704 853 l 243 853 l 243 568 l 610 568 l 610 449 l 243 449 l 243 119 l 717 119 l 717 0 l 111 0 m 229 1103 l 229 1207 l 349 1207 l 349 1103 l 229 1103 m 496 1103 l 496 1207 l 615 1207 l 615 1103 l 496 1103 z "},"Ė":{"ha":769,"x_min":111,"x_max":717,"o":"m 111 0 l 111 972 l 704 972 l 704 853 l 243 853 l 243 568 l 610 568 l 610 449 l 243 449 l 243 119 l 717 119 l 717 0 l 111 0 m 356 1099 l 356 1224 l 489 1224 l 489 1099 l 356 1099 z "},"Ẹ":{"ha":769,"x_min":111,"x_max":717,"o":"m 111 0 l 111 972 l 704 972 l 704 853 l 243 853 l 243 568 l 610 568 l 610 449 l 243 449 l 243 119 l 717 119 l 717 0 l 111 0 z "},"È":{"ha":769,"x_min":111,"x_max":717,"o":"m 111 0 l 111 972 l 704 972 l 704 853 l 243 853 l 243 568 l 610 568 l 610 449 l 243 449 l 243 119 l 717 119 l 717 0 l 111 0 m 551 1061 l 292 1142 l 292 1274 l 551 1142 l 551 1061 z "},"Ẻ":{"ha":769,"x_min":111,"x_max":717,"o":"m 111 0 l 111 972 l 704 972 l 704 853 l 243 853 l 243 568 l 610 568 l 610 449 l 243 449 l 243 119 l 717 119 l 717 0 l 111 0 m 421 1056 l 408 1111 q 457 1165 457 1128 q 400 1210 457 1210 q 313 1183 363 1210 l 289 1254 q 400 1281 338 1281 q 497 1253 457 1281 q 538 1174 538 1225 q 421 1056 538 1082 z "},"Ȇ":{"ha":769,"x_min":111,"x_max":717,"o":"m 111 0 l 111 972 l 704 972 l 704 853 l 243 853 l 243 568 l 610 568 l 610 449 l 243 449 l 243 119 l 717 119 l 717 0 l 111 0 m 422 1249 q 576 1198 526 1249 q 625 1082 625 1147 l 514 1082 q 487 1142 514 1122 q 422 1163 460 1163 q 358 1142 385 1163 q 331 1082 331 1122 l 219 1082 q 269 1198 219 1147 q 422 1249 318 1249 z "},"Ē":{"ha":769,"x_min":111,"x_max":717,"o":"m 111 0 l 111 972 l 704 972 l 704 853 l 243 853 l 243 568 l 610 568 l 610 449 l 243 449 l 243 119 l 717 119 l 717 0 l 111 0 m 200 1101 l 200 1196 l 644 1196 l 644 1101 l 200 1101 z "},"Ḗ":{"ha":769,"x_min":111,"x_max":717,"o":"m 111 0 l 111 972 l 704 972 l 704 853 l 243 853 l 243 568 l 610 568 l 610 449 l 243 449 l 243 119 l 717 119 l 717 0 l 111 0 m 200 1101 l 200 1196 l 644 1196 l 644 1101 l 200 1101 m 293 1300 l 293 1381 l 553 1513 l 553 1381 l 293 1300 z "},"Ḕ":{"ha":769,"x_min":111,"x_max":717,"o":"m 111 0 l 111 972 l 704 972 l 704 853 l 243 853 l 243 568 l 610 568 l 610 449 l 243 449 l 243 119 l 717 119 l 717 0 l 111 0 m 200 1101 l 200 1196 l 644 1196 l 644 1101 l 200 1101 m 551 1300 l 292 1381 l 292 1513 l 551 1381 l 551 1300 z "},"Ę":{"ha":769,"x_min":111,"x_max":783,"o":"m 111 0 l 111 972 l 704 972 l 704 853 l 243 853 l 243 568 l 610 568 l 610 449 l 243 449 l 243 119 l 717 119 l 717 0 l 111 0 m 643 0 l 717 0 q 638 -73 668 -37 q 608 -147 608 -108 q 675 -218 608 -218 q 763 -194 719 -218 l 783 -262 q 735 -281 764 -272 q 668 -289 706 -289 q 569 -258 610 -289 q 528 -169 528 -228 q 565 -69 528 -114 q 643 0 601 -24 z "},"Ẽ":{"ha":769,"x_min":111,"x_max":717,"o":"m 111 0 l 111 972 l 704 972 l 704 853 l 243 853 l 243 568 l 610 568 l 610 449 l 243 449 l 243 119 l 717 119 l 717 0 l 111 0 m 538 1094 q 436 1123 489 1094 q 343 1151 383 1151 q 296 1101 296 1151 l 206 1101 q 307 1240 206 1240 q 408 1212 356 1240 q 501 1183 461 1183 q 549 1233 549 1183 l 639 1233 q 538 1094 639 1094 z "},"F":{"ha":726,"x_min":111,"x_max":704,"o":"m 111 0 l 111 972 l 704 972 l 704 853 l 243 853 l 243 568 l 599 568 l 599 449 l 243 449 l 243 0 l 111 0 z "},"G":{"ha":933,"x_min":54,"x_max":863,"o":"m 531 -19 q 191 118 328 -19 q 54 488 54 256 q 197 855 54 718 q 557 992 339 992 q 706 975 635 992 q 831 936 778 958 l 818 821 q 697 858 761 843 q 561 872 633 872 q 287 760 375 872 q 199 486 199 647 q 288 210 199 319 q 568 100 378 100 q 646 106 600 100 q 731 126 692 111 l 731 368 l 578 368 l 578 488 l 863 488 l 863 54 q 721 1 806 22 q 531 -19 636 -19 z "},"Ğ":{"ha":933,"x_min":54,"x_max":863,"o":"m 531 -19 q 191 118 328 -19 q 54 488 54 256 q 197 855 54 718 q 557 992 339 992 q 706 975 635 992 q 831 936 778 958 l 818 821 q 697 858 761 843 q 561 872 633 872 q 287 760 375 872 q 199 486 199 647 q 288 210 199 319 q 568 100 378 100 q 646 106 600 100 q 731 126 692 111 l 731 368 l 578 368 l 578 488 l 863 488 l 863 54 q 721 1 806 22 q 531 -19 636 -19 m 560 1061 q 406 1113 456 1061 q 357 1228 357 1164 l 468 1228 q 495 1167 468 1188 q 560 1147 522 1147 q 624 1167 597 1147 q 651 1228 651 1188 l 763 1228 q 713 1113 763 1164 q 560 1061 664 1061 z "},"Ǧ":{"ha":933,"x_min":54,"x_max":863,"o":"m 531 -19 q 191 118 328 -19 q 54 488 54 256 q 197 855 54 718 q 557 992 339 992 q 706 975 635 992 q 831 936 778 958 l 818 821 q 697 858 761 843 q 561 872 633 872 q 287 760 375 872 q 199 486 199 647 q 288 210 199 319 q 568 100 378 100 q 646 106 600 100 q 731 126 692 111 l 731 368 l 578 368 l 578 488 l 863 488 l 863 54 q 721 1 806 22 q 531 -19 636 -19 z "},"Ĝ":{"ha":933,"x_min":54,"x_max":863,"o":"m 531 -19 q 191 118 328 -19 q 54 488 54 256 q 197 855 54 718 q 557 992 339 992 q 706 975 635 992 q 831 936 778 958 l 818 821 q 697 858 761 843 q 561 872 633 872 q 287 760 375 872 q 199 486 199 647 q 288 210 199 319 q 568 100 378 100 q 646 106 600 100 q 731 126 692 111 l 731 368 l 578 368 l 578 488 l 863 488 l 863 54 q 721 1 806 22 q 531 -19 636 -19 m 383 1046 l 383 1131 l 560 1256 l 736 1131 l 736 1046 l 560 1138 l 383 1046 z "},"Ģ":{"ha":933,"x_min":54,"x_max":863,"o":"m 531 -19 q 191 118 328 -19 q 54 488 54 256 q 197 855 54 718 q 557 992 339 992 q 706 975 635 992 q 831 936 778 958 l 818 821 q 697 858 761 843 q 561 872 633 872 q 287 760 375 872 q 199 486 199 647 q 288 210 199 319 q 568 100 378 100 q 646 106 600 100 q 731 126 692 111 l 731 368 l 578 368 l 578 488 l 863 488 l 863 54 q 721 1 806 22 q 531 -19 636 -19 m 554 -422 l 475 -422 l 525 -274 l 476 -274 l 476 -126 l 626 -126 l 626 -260 l 554 -422 z "},"Ġ":{"ha":933,"x_min":54,"x_max":863,"o":"m 531 -19 q 191 118 328 -19 q 54 488 54 256 q 197 855 54 718 q 557 992 339 992 q 706 975 635 992 q 831 936 778 958 l 818 821 q 697 858 761 843 q 561 872 633 872 q 287 760 375 872 q 199 486 199 647 q 288 210 199 319 q 568 100 378 100 q 646 106 600 100 q 731 126 692 111 l 731 368 l 578 368 l 578 488 l 863 488 l 863 54 q 721 1 806 22 q 531 -19 636 -19 m 493 1099 l 493 1224 l 626 1224 l 626 1099 l 493 1099 z "},"Ḡ":{"ha":933,"x_min":54,"x_max":863,"o":"m 531 -19 q 191 118 328 -19 q 54 488 54 256 q 197 855 54 718 q 557 992 339 992 q 706 975 635 992 q 831 936 778 958 l 818 821 q 697 858 761 843 q 561 872 633 872 q 287 760 375 872 q 199 486 199 647 q 288 210 199 319 q 568 100 378 100 q 646 106 600 100 q 731 126 692 111 l 731 368 l 578 368 l 578 488 l 863 488 l 863 54 q 721 1 806 22 q 531 -19 636 -19 m 338 1101 l 338 1196 l 782 1196 l 782 1101 l 338 1101 z "},"H":{"ha":981,"x_min":111,"x_max":869,"o":"m 111 0 l 111 972 l 243 972 l 243 571 l 738 571 l 738 972 l 869 972 l 869 0 l 738 0 l 738 446 l 243 446 l 243 0 l 111 0 z "},"Ħ":{"ha":1036,"x_min":14,"x_max":1022,"o":"m 111 0 l 111 972 l 243 972 l 243 571 l 793 571 l 793 972 l 925 972 l 925 0 l 793 0 l 793 446 l 243 446 l 243 0 l 111 0 m 14 694 l 14 783 l 1022 783 l 1022 694 l 14 694 z "},"Ḫ":{"ha":981,"x_min":111,"x_max":869,"o":"m 111 0 l 111 972 l 243 972 l 243 571 l 738 571 l 738 972 l 869 972 l 869 0 l 738 0 l 738 446 l 243 446 l 243 0 l 111 0 z "},"Ĥ":{"ha":981,"x_min":111,"x_max":869,"o":"m 111 0 l 111 972 l 243 972 l 243 571 l 738 571 l 738 972 l 869 972 l 869 0 l 738 0 l 738 446 l 243 446 l 243 0 l 111 0 m 314 1046 l 314 1131 l 490 1256 l 667 1131 l 667 1046 l 490 1138 l 314 1046 z "},"Ḥ":{"ha":981,"x_min":111,"x_max":869,"o":"m 111 0 l 111 972 l 243 972 l 243 571 l 738 571 l 738 972 l 869 972 l 869 0 l 738 0 l 738 446 l 243 446 l 243 0 l 111 0 z "},"I":{"ha":354,"x_min":111,"x_max":243,"o":"m 111 0 l 111 972 l 243 972 l 243 0 l 111 0 z "},"Ĳ":{"ha":950,"x_min":100,"x_max":850,"o":"m 238 339 q 300 170 249 240 q 475 100 351 100 q 631 151 578 100 q 701 281 683 201 q 718 449 718 361 l 718 972 l 850 972 l 850 413 q 758 97 850 213 q 475 -19 665 -19 q 216 71 307 -19 q 106 321 125 161 l 238 339 m 100 449 l 100 972 l 232 972 l 232 449 l 100 449 z "},"Í":{"ha":354,"x_min":49,"x_max":308,"o":"m 111 0 l 111 972 l 243 972 l 243 0 l 111 0 m 49 1061 l 49 1142 l 308 1274 l 308 1142 l 49 1061 z "},"Ĭ":{"ha":354,"x_min":-25,"x_max":381,"o":"m 111 0 l 111 972 l 243 972 l 243 0 l 111 0 m 178 1061 q 24 1113 74 1061 q -25 1228 -25 1164 l 86 1228 q 113 1167 86 1188 q 178 1147 140 1147 q 242 1167 215 1147 q 269 1228 269 1188 l 381 1228 q 331 1113 381 1164 q 178 1061 282 1061 z "},"Î":{"ha":354,"x_min":1,"x_max":354,"o":"m 111 0 l 111 972 l 243 972 l 243 0 l 111 0 m 1 1046 l 1 1131 l 178 1256 l 354 1131 l 354 1046 l 178 1138 l 1 1046 z "},"Ȉ":{"ha":354,"x_min":-96,"x_max":322,"o":"m 111 0 l 111 972 l 243 972 l 243 0 l 111 0 m 322 1094 l 231 1094 l 106 1299 l 242 1299 l 322 1094 m 128 1094 l 36 1094 l -96 1299 l 40 1299 l 128 1094 z "},"Ï":{"ha":354,"x_min":-15,"x_max":371,"o":"m 111 0 l 111 972 l 243 972 l 243 0 l 111 0 m -15 1103 l -15 1207 l 104 1207 l 104 1103 l -15 1103 m 251 1103 l 251 1207 l 371 1207 l 371 1103 l 251 1103 z "},"Ḯ":{"ha":354,"x_min":-15,"x_max":371,"o":"m 111 0 l 111 972 l 243 972 l 243 0 l 111 0 m -15 1103 l -15 1207 l 104 1207 l 104 1103 l -15 1103 m 251 1103 l 251 1207 l 371 1207 l 371 1103 l 251 1103 m 49 1283 l 49 1364 l 308 1496 l 308 1364 l 49 1283 z "},"İ":{"ha":354,"x_min":111,"x_max":244,"o":"m 111 0 l 111 972 l 243 972 l 243 0 l 111 0 m 111 1099 l 111 1224 l 244 1224 l 244 1099 l 111 1099 z "},"Ị":{"ha":354,"x_min":111,"x_max":244,"o":"m 111 0 l 111 972 l 243 972 l 243 0 l 111 0 z "},"Ì":{"ha":354,"x_min":47,"x_max":307,"o":"m 111 0 l 111 972 l 243 972 l 243 0 l 111 0 m 307 1061 l 47 1142 l 47 1274 l 307 1142 l 307 1061 z "},"Ỉ":{"ha":354,"x_min":44,"x_max":293,"o":"m 111 0 l 111 972 l 243 972 l 243 0 l 111 0 m 176 1056 l 164 1111 q 213 1165 213 1128 q 156 1210 213 1210 q 68 1183 118 1210 l 44 1254 q 156 1281 93 1281 q 253 1253 213 1281 q 293 1174 293 1225 q 176 1056 293 1082 z "},"Ȋ":{"ha":354,"x_min":-25,"x_max":381,"o":"m 111 0 l 111 972 l 243 972 l 243 0 l 111 0 m 178 1249 q 331 1198 282 1249 q 381 1082 381 1147 l 269 1082 q 242 1142 269 1122 q 178 1163 215 1163 q 113 1142 140 1163 q 86 1082 86 1122 l -25 1082 q 24 1198 -25 1147 q 178 1249 74 1249 z "},"Ī":{"ha":354,"x_min":-44,"x_max":400,"o":"m 111 0 l 111 972 l 243 972 l 243 0 l 111 0 m -44 1101 l -44 1196 l 400 1196 l 400 1101 l -44 1101 z "},"Į":{"ha":354,"x_min":54,"x_max":310,"o":"m 111 0 l 111 972 l 243 972 l 243 0 l 111 0 m 169 0 l 243 0 q 165 -73 194 -37 q 135 -147 135 -108 q 201 -218 135 -218 q 289 -194 246 -218 l 310 -262 q 261 -281 290 -272 q 194 -289 232 -289 q 95 -258 136 -289 q 54 -169 54 -228 q 91 -69 54 -114 q 169 0 128 -24 z "},"Ĩ":{"ha":354,"x_min":-39,"x_max":394,"o":"m 111 0 l 111 972 l 243 972 l 243 0 l 111 0 m 293 1094 q 192 1123 244 1094 q 99 1151 139 1151 q 51 1101 51 1151 l -39 1101 q 63 1240 -39 1240 q 164 1212 111 1240 q 257 1183 217 1183 q 304 1233 304 1183 l 394 1233 q 293 1094 394 1094 z "},"J":{"ha":354,"x_min":-28,"x_max":243,"o":"m -10 -239 l -28 -125 q 79 -92 47 -125 q 111 11 111 -60 l 111 972 l 243 972 l 243 -19 q 190 -186 243 -133 q 26 -239 136 -239 l -10 -239 z "},"Ĵ":{"ha":354,"x_min":-28,"x_max":354,"o":"m -10 -239 l -28 -125 q 79 -92 47 -125 q 111 11 111 -60 l 111 972 l 243 972 l 243 -19 q 190 -186 243 -133 q 26 -239 136 -239 l -10 -239 m 1 1046 l 1 1131 l 178 1256 l 354 1131 l 354 1046 l 178 1138 l 1 1046 z "},"K":{"ha":786,"x_min":111,"x_max":781,"o":"m 617 0 l 257 515 l 617 972 l 776 972 l 407 518 l 781 0 l 617 0 m 111 0 l 111 972 l 243 972 l 243 0 l 111 0 z "},"Ķ":{"ha":786,"x_min":111,"x_max":781,"o":"m 617 0 l 257 515 l 617 972 l 776 972 l 407 518 l 781 0 l 617 0 m 111 0 l 111 972 l 243 972 l 243 0 l 111 0 m 454 -422 l 375 -422 l 425 -274 l 376 -274 l 376 -126 l 526 -126 l 526 -260 l 454 -422 z "},"L":{"ha":696,"x_min":111,"x_max":689,"o":"m 111 0 l 111 972 l 243 972 l 243 119 l 689 119 l 689 0 l 111 0 z "},"Ǉ":{"ha":1050,"x_min":111,"x_max":939,"o":"m 111 0 l 111 972 l 243 972 l 243 119 l 689 119 l 689 0 l 111 0 m 686 -239 l 668 -125 q 775 -92 743 -125 q 807 11 807 -60 l 807 972 l 939 972 l 939 -19 q 885 -186 939 -133 q 722 -239 832 -239 l 686 -239 z "},"Ĺ":{"ha":696,"x_min":49,"x_max":689,"o":"m 111 0 l 111 972 l 243 972 l 243 119 l 689 119 l 689 0 l 111 0 m 49 1061 l 49 1142 l 308 1274 l 308 1142 l 49 1061 z "},"Ľ":{"ha":696,"x_min":111,"x_max":689,"o":"m 111 0 l 111 972 l 243 972 l 243 119 l 689 119 l 689 0 l 111 0 m 558 740 l 558 972 l 689 972 l 650 740 l 558 740 z "},"Ļ":{"ha":696,"x_min":111,"x_max":689,"o":"m 111 0 l 111 972 l 243 972 l 243 119 l 689 119 l 689 0 l 111 0 m 404 -422 l 325 -422 l 375 -274 l 326 -274 l 326 -126 l 476 -126 l 476 -260 l 404 -422 z "},"Ŀ":{"ha":696,"x_min":111,"x_max":689,"o":"m 111 0 l 111 972 l 243 972 l 243 119 l 689 119 l 689 0 l 111 0 m 454 463 l 454 604 l 596 604 l 596 463 l 454 463 z "},"Ḷ":{"ha":696,"x_min":111,"x_max":689,"o":"m 111 0 l 111 972 l 243 972 l 243 119 l 689 119 l 689 0 l 111 0 z "},"ǈ":{"ha":990,"x_min":111,"x_max":906,"o":"m 111 0 l 111 972 l 243 972 l 243 119 l 689 119 l 689 0 l 111 0 m 693 -336 l 679 -240 q 760 -208 740 -233 q 781 -101 781 -183 l 781 681 l 906 681 l 906 -149 q 847 -284 906 -247 q 735 -329 788 -321 l 693 -336 m 781 833 l 781 972 l 906 972 l 906 833 l 781 833 z "},"Ḻ":{"ha":696,"x_min":111,"x_max":689,"o":"m 111 0 l 111 972 l 243 972 l 243 119 l 689 119 l 689 0 l 111 0 z "},"Ł":{"ha":696,"x_min":14,"x_max":689,"o":"m 111 0 l 111 972 l 243 972 l 243 119 l 689 119 l 689 0 l 111 0 m 14 503 l 14 596 l 536 738 l 536 644 l 14 503 z "},"M":{"ha":1128,"x_min":67,"x_max":1061,"o":"m 67 0 l 197 972 l 310 972 l 565 490 l 818 972 l 932 972 l 1061 0 l 922 0 l 824 793 l 858 788 l 567 231 l 269 788 l 304 793 l 206 0 l 67 0 z "},"Ṃ":{"ha":1128,"x_min":67,"x_max":1061,"o":"m 67 0 l 197 972 l 310 972 l 565 490 l 818 972 l 932 972 l 1061 0 l 922 0 l 824 793 l 858 788 l 567 231 l 269 788 l 304 793 l 206 0 l 67 0 z "},"N":{"ha":978,"x_min":111,"x_max":867,"o":"m 111 0 l 111 972 l 254 972 l 733 244 l 733 972 l 867 972 l 867 0 l 754 0 l 243 768 l 243 0 l 111 0 z "},"Ǌ":{"ha":1332,"x_min":111,"x_max":1221,"o":"m 111 0 l 111 972 l 254 972 l 733 244 l 733 972 l 867 972 l 867 0 l 754 0 l 243 768 l 243 0 l 111 0 m 968 -239 l 950 -125 q 1057 -92 1025 -125 q 1089 11 1089 -60 l 1089 972 l 1221 972 l 1221 -19 q 1167 -186 1221 -133 q 1004 -239 1114 -239 l 968 -239 z "},"Ń":{"ha":978,"x_min":111,"x_max":867,"o":"m 111 0 l 111 972 l 254 972 l 733 244 l 733 972 l 867 972 l 867 0 l 754 0 l 243 768 l 243 0 l 111 0 m 365 1061 l 365 1142 l 625 1274 l 625 1142 l 365 1061 z "},"Ň":{"ha":978,"x_min":111,"x_max":867,"o":"m 111 0 l 111 972 l 254 972 l 733 244 l 733 972 l 867 972 l 867 0 l 754 0 l 243 768 l 243 0 l 111 0 z "},"Ņ":{"ha":978,"x_min":111,"x_max":867,"o":"m 111 0 l 111 972 l 254 972 l 733 244 l 733 972 l 867 972 l 867 0 l 754 0 l 243 768 l 243 0 l 111 0 m 503 -422 l 424 -422 l 474 -274 l 425 -274 l 425 -126 l 575 -126 l 575 -260 l 503 -422 z "},"Ṅ":{"ha":978,"x_min":111,"x_max":867,"o":"m 111 0 l 111 972 l 254 972 l 733 244 l 733 972 l 867 972 l 867 0 l 754 0 l 243 768 l 243 0 l 111 0 m 428 1099 l 428 1224 l 561 1224 l 561 1099 l 428 1099 z "},"Ṇ":{"ha":978,"x_min":111,"x_max":867,"o":"m 111 0 l 111 972 l 254 972 l 733 244 l 733 972 l 867 972 l 867 0 l 754 0 l 243 768 l 243 0 l 111 0 z "},"Ŋ":{"ha":985,"x_min":111,"x_max":896,"o":"m 896 69 q 804 -176 896 -96 q 569 -257 713 -257 q 457 -242 511 -257 l 475 -125 q 578 -137 525 -137 q 712 -90 661 -137 q 763 56 763 -42 l 763 625 q 508 872 763 872 q 350 844 417 872 q 244 772 283 817 l 244 0 l 111 0 l 111 972 l 224 972 l 232 879 q 538 992 353 992 q 806 894 717 992 q 896 639 896 797 l 896 69 z "},"ǋ":{"ha":1260,"x_min":111,"x_max":1175,"o":"m 111 0 l 111 972 l 254 972 l 733 244 l 733 972 l 867 972 l 867 0 l 754 0 l 243 768 l 243 0 l 111 0 m 963 -336 l 949 -240 q 1030 -208 1010 -233 q 1050 -101 1050 -183 l 1050 681 l 1175 681 l 1175 -149 q 1116 -284 1175 -247 q 1004 -329 1057 -321 l 963 -336 m 1050 833 l 1050 972 l 1175 972 l 1175 833 l 1050 833 z "},"Ṉ":{"ha":978,"x_min":111,"x_max":867,"o":"m 111 0 l 111 972 l 254 972 l 733 244 l 733 972 l 867 972 l 867 0 l 754 0 l 243 768 l 243 0 l 111 0 z "},"Ñ":{"ha":978,"x_min":111,"x_max":867,"o":"m 111 0 l 111 972 l 254 972 l 733 244 l 733 972 l 867 972 l 867 0 l 754 0 l 243 768 l 243 0 l 111 0 m 610 1094 q 508 1123 561 1094 q 415 1151 456 1151 q 368 1101 368 1151 l 278 1101 q 379 1240 278 1240 q 481 1212 428 1240 q 574 1183 533 1183 q 621 1233 621 1183 l 711 1233 q 610 1094 711 1094 z "},"O":{"ha":1069,"x_min":56,"x_max":1014,"o":"m 535 -19 q 191 118 326 -19 q 56 486 56 256 q 191 854 56 717 q 535 992 326 992 q 878 854 743 992 q 1014 486 1014 717 q 878 118 1014 256 q 535 -19 743 -19 m 535 108 q 788 218 703 108 q 872 486 872 328 q 788 754 872 644 q 535 864 703 864 q 282 754 367 864 q 197 486 197 644 q 282 218 197 328 q 535 108 367 108 z "},"Ó":{"ha":1069,"x_min":56,"x_max":1014,"o":"m 535 -19 q 191 118 326 -19 q 56 486 56 256 q 191 854 56 717 q 535 992 326 992 q 878 854 743 992 q 1014 486 1014 717 q 878 118 1014 256 q 535 -19 743 -19 m 535 108 q 788 218 703 108 q 872 486 872 328 q 788 754 872 644 q 535 864 703 864 q 282 754 367 864 q 197 486 197 644 q 282 218 197 328 q 535 108 367 108 m 406 1061 l 406 1142 l 665 1274 l 665 1142 l 406 1061 z "},"Ŏ":{"ha":1069,"x_min":56,"x_max":1014,"o":"m 535 -19 q 191 118 326 -19 q 56 486 56 256 q 191 854 56 717 q 535 992 326 992 q 878 854 743 992 q 1014 486 1014 717 q 878 118 1014 256 q 535 -19 743 -19 m 535 108 q 788 218 703 108 q 872 486 872 328 q 788 754 872 644 q 535 864 703 864 q 282 754 367 864 q 197 486 197 644 q 282 218 197 328 q 535 108 367 108 m 535 1061 q 381 1113 431 1061 q 332 1228 332 1164 l 443 1228 q 470 1167 443 1188 q 535 1147 497 1147 q 599 1167 572 1147 q 626 1228 626 1188 l 738 1228 q 688 1113 738 1164 q 535 1061 639 1061 z "},"Ô":{"ha":1069,"x_min":56,"x_max":1014,"o":"m 535 -19 q 191 118 326 -19 q 56 486 56 256 q 191 854 56 717 q 535 992 326 992 q 878 854 743 992 q 1014 486 1014 717 q 878 118 1014 256 q 535 -19 743 -19 m 535 108 q 788 218 703 108 q 872 486 872 328 q 788 754 872 644 q 535 864 703 864 q 282 754 367 864 q 197 486 197 644 q 282 218 197 328 q 535 108 367 108 m 358 1046 l 358 1131 l 535 1256 l 711 1131 l 711 1046 l 535 1138 l 358 1046 z "},"Ố":{"ha":1069,"x_min":56,"x_max":1014,"o":"m 535 -19 q 191 118 326 -19 q 56 486 56 256 q 191 854 56 717 q 535 992 326 992 q 878 854 743 992 q 1014 486 1014 717 q 878 118 1014 256 q 535 -19 743 -19 m 535 108 q 788 218 703 108 q 872 486 872 328 q 788 754 872 644 q 535 864 703 864 q 282 754 367 864 q 197 486 197 644 q 282 218 197 328 q 535 108 367 108 m 358 1046 l 358 1131 l 535 1256 l 711 1131 l 711 1046 l 535 1138 l 358 1046 m 639 1249 l 731 1411 l 867 1411 l 731 1249 l 639 1249 z "},"Ộ":{"ha":1069,"x_min":56,"x_max":1014,"o":"m 535 -19 q 191 118 326 -19 q 56 486 56 256 q 191 854 56 717 q 535 992 326 992 q 878 854 743 992 q 1014 486 1014 717 q 878 118 1014 256 q 535 -19 743 -19 m 535 108 q 788 218 703 108 q 872 486 872 328 q 788 754 872 644 q 535 864 703 864 q 282 754 367 864 q 197 486 197 644 q 282 218 197 328 q 535 108 367 108 m 358 1075 l 358 1160 l 535 1313 l 711 1160 l 711 1075 l 535 1186 l 358 1075 z "},"Ồ":{"ha":1069,"x_min":56,"x_max":1014,"o":"m 535 -19 q 191 118 326 -19 q 56 486 56 256 q 191 854 56 717 q 535 992 326 992 q 878 854 743 992 q 1014 486 1014 717 q 878 118 1014 256 q 535 -19 743 -19 m 535 108 q 788 218 703 108 q 872 486 872 328 q 788 754 872 644 q 535 864 703 864 q 282 754 367 864 q 197 486 197 644 q 282 218 197 328 q 535 108 367 108 m 358 1046 l 358 1131 l 535 1256 l 711 1131 l 711 1046 l 535 1138 l 358 1046 m 658 1249 l 538 1411 l 669 1411 l 747 1249 l 658 1249 z "},"Ổ":{"ha":1069,"x_min":56,"x_max":1014,"o":"m 535 -19 q 191 118 326 -19 q 56 486 56 256 q 191 854 56 717 q 535 992 326 992 q 878 854 743 992 q 1014 486 1014 717 q 878 118 1014 256 q 535 -19 743 -19 m 535 108 q 788 218 703 108 q 872 486 872 328 q 788 754 872 644 q 535 864 703 864 q 282 754 367 864 q 197 486 197 644 q 282 218 197 328 q 535 108 367 108 m 358 1046 l 358 1131 l 535 1256 l 711 1131 l 711 1046 l 535 1138 l 358 1046 m 668 1211 l 656 1267 q 704 1321 704 1283 q 647 1365 704 1365 q 560 1339 610 1365 l 536 1410 q 647 1436 585 1436 q 744 1408 704 1436 q 785 1329 785 1381 q 668 1211 785 1238 z "},"Ỗ":{"ha":1069,"x_min":56,"x_max":1014,"o":"m 535 -19 q 191 118 326 -19 q 56 486 56 256 q 191 854 56 717 q 535 992 326 992 q 878 854 743 992 q 1014 486 1014 717 q 878 118 1014 256 q 535 -19 743 -19 m 535 108 q 788 218 703 108 q 872 486 872 328 q 788 754 872 644 q 535 864 703 864 q 282 754 367 864 q 197 486 197 644 q 282 218 197 328 q 535 108 367 108 m 358 1046 l 358 1131 l 535 1256 l 711 1131 l 711 1046 l 535 1138 l 358 1046 m 650 1313 q 549 1341 601 1313 q 456 1369 496 1369 q 408 1319 408 1369 l 318 1319 q 419 1458 318 1458 q 521 1430 468 1458 q 614 1401 574 1401 q 661 1451 661 1401 l 751 1451 q 650 1313 751 1313 z "},"Ȍ":{"ha":1069,"x_min":56,"x_max":1014,"o":"m 535 -19 q 191 118 326 -19 q 56 486 56 256 q 191 854 56 717 q 535 992 326 992 q 878 854 743 992 q 1014 486 1014 717 q 878 118 1014 256 q 535 -19 743 -19 m 535 108 q 788 218 703 108 q 872 486 872 328 q 788 754 872 644 q 535 864 703 864 q 282 754 367 864 q 197 486 197 644 q 282 218 197 328 q 535 108 367 108 m 679 1094 l 588 1094 l 463 1299 l 599 1299 l 679 1094 m 485 1094 l 393 1094 l 261 1299 l 397 1299 l 485 1094 z "},"Ö":{"ha":1069,"x_min":56,"x_max":1014,"o":"m 535 -19 q 191 118 326 -19 q 56 486 56 256 q 191 854 56 717 q 535 992 326 992 q 878 854 743 992 q 1014 486 1014 717 q 878 118 1014 256 q 535 -19 743 -19 m 535 108 q 788 218 703 108 q 872 486 872 328 q 788 754 872 644 q 535 864 703 864 q 282 754 367 864 q 197 486 197 644 q 282 218 197 328 q 535 108 367 108 m 342 1103 l 342 1207 l 461 1207 l 461 1103 l 342 1103 m 608 1103 l 608 1207 l 728 1207 l 728 1103 l 608 1103 z "},"Ȫ":{"ha":1069,"x_min":56,"x_max":1014,"o":"m 535 -19 q 191 118 326 -19 q 56 486 56 256 q 191 854 56 717 q 535 992 326 992 q 878 854 743 992 q 1014 486 1014 717 q 878 118 1014 256 q 535 -19 743 -19 m 535 108 q 788 218 703 108 q 872 486 872 328 q 788 754 872 644 q 535 864 703 864 q 282 754 367 864 q 197 486 197 644 q 282 218 197 328 q 535 108 367 108 m 342 1103 l 342 1207 l 461 1207 l 461 1103 l 342 1103 m 608 1103 l 608 1207 l 728 1207 l 728 1103 l 608 1103 m 313 1324 l 313 1418 l 757 1418 l 757 1324 l 313 1324 z "},"Ȱ":{"ha":1069,"x_min":56,"x_max":1014,"o":"m 535 -19 q 191 118 326 -19 q 56 486 56 256 q 191 854 56 717 q 535 992 326 992 q 878 854 743 992 q 1014 486 1014 717 q 878 118 1014 256 q 535 -19 743 -19 m 535 108 q 788 218 703 108 q 872 486 872 328 q 788 754 872 644 q 535 864 703 864 q 282 754 367 864 q 197 486 197 644 q 282 218 197 328 q 535 108 367 108 m 468 1099 l 468 1224 l 601 1224 l 601 1099 l 468 1099 m 313 1332 l 313 1426 l 757 1426 l 757 1332 l 313 1332 z "},"Ọ":{"ha":1069,"x_min":56,"x_max":1014,"o":"m 535 -19 q 191 118 326 -19 q 56 486 56 256 q 191 854 56 717 q 535 992 326 992 q 878 854 743 992 q 1014 486 1014 717 q 878 118 1014 256 q 535 -19 743 -19 m 535 108 q 788 218 703 108 q 872 486 872 328 q 788 754 872 644 q 535 864 703 864 q 282 754 367 864 q 197 486 197 644 q 282 218 197 328 q 535 108 367 108 z "},"Ò":{"ha":1069,"x_min":56,"x_max":1014,"o":"m 535 -19 q 191 118 326 -19 q 56 486 56 256 q 191 854 56 717 q 535 992 326 992 q 878 854 743 992 q 1014 486 1014 717 q 878 118 1014 256 q 535 -19 743 -19 m 535 108 q 788 218 703 108 q 872 486 872 328 q 788 754 872 644 q 535 864 703 864 q 282 754 367 864 q 197 486 197 644 q 282 218 197 328 q 535 108 367 108 m 664 1061 l 404 1142 l 404 1274 l 664 1142 l 664 1061 z "},"Ỏ":{"ha":1069,"x_min":56,"x_max":1014,"o":"m 535 -19 q 191 118 326 -19 q 56 486 56 256 q 191 854 56 717 q 535 992 326 992 q 878 854 743 992 q 1014 486 1014 717 q 878 118 1014 256 q 535 -19 743 -19 m 535 108 q 788 218 703 108 q 872 486 872 328 q 788 754 872 644 q 535 864 703 864 q 282 754 367 864 q 197 486 197 644 q 282 218 197 328 q 535 108 367 108 m 533 1056 l 521 1111 q 569 1165 569 1128 q 513 1210 569 1210 q 425 1183 475 1210 l 401 1254 q 513 1281 450 1281 q 610 1253 569 1281 q 650 1174 650 1225 q 533 1056 650 1082 z "},"Ơ":{"ha":1069,"x_min":56,"x_max":1014,"o":"m 535 -19 q 191 118 326 -19 q 56 486 56 256 q 191 854 56 717 q 535 992 326 992 q 878 854 743 992 q 1014 486 1014 717 q 878 118 1014 256 q 535 -19 743 -19 m 535 108 q 788 218 703 108 q 872 486 872 328 q 788 754 872 644 q 535 864 703 864 q 282 754 367 864 q 197 486 197 644 q 282 218 197 328 q 535 108 367 108 m 665 876 l 665 972 q 776 1075 776 972 l 896 1075 q 829 936 896 996 q 665 876 763 876 z "},"Ớ":{"ha":1069,"x_min":56,"x_max":1014,"o":"m 535 -19 q 191 118 326 -19 q 56 486 56 256 q 191 854 56 717 q 535 992 326 992 q 878 854 743 992 q 1014 486 1014 717 q 878 118 1014 256 q 535 -19 743 -19 m 535 108 q 788 218 703 108 q 872 486 872 328 q 788 754 872 644 q 535 864 703 864 q 282 754 367 864 q 197 486 197 644 q 282 218 197 328 q 535 108 367 108 m 665 876 l 665 972 q 776 1075 776 972 l 896 1075 q 829 936 896 996 q 665 876 763 876 m 406 1061 l 406 1142 l 665 1274 l 665 1142 l 406 1061 z "},"Ợ":{"ha":1069,"x_min":56,"x_max":1014,"o":"m 535 -19 q 191 118 326 -19 q 56 486 56 256 q 191 854 56 717 q 535 992 326 992 q 878 854 743 992 q 1014 486 1014 717 q 878 118 1014 256 q 535 -19 743 -19 m 535 108 q 788 218 703 108 q 872 486 872 328 q 788 754 872 644 q 535 864 703 864 q 282 754 367 864 q 197 486 197 644 q 282 218 197 328 q 535 108 367 108 m 665 876 l 665 972 q 776 1075 776 972 l 896 1075 q 829 936 896 996 q 665 876 763 876 z "},"Ờ":{"ha":1069,"x_min":56,"x_max":1014,"o":"m 535 -19 q 191 118 326 -19 q 56 486 56 256 q 191 854 56 717 q 535 992 326 992 q 878 854 743 992 q 1014 486 1014 717 q 878 118 1014 256 q 535 -19 743 -19 m 535 108 q 788 218 703 108 q 872 486 872 328 q 788 754 872 644 q 535 864 703 864 q 282 754 367 864 q 197 486 197 644 q 282 218 197 328 q 535 108 367 108 m 665 876 l 665 972 q 776 1075 776 972 l 896 1075 q 829 936 896 996 q 665 876 763 876 m 664 1061 l 404 1142 l 404 1274 l 664 1142 l 664 1061 z "},"Ở":{"ha":1069,"x_min":56,"x_max":1014,"o":"m 535 -19 q 191 118 326 -19 q 56 486 56 256 q 191 854 56 717 q 535 992 326 992 q 878 854 743 992 q 1014 486 1014 717 q 878 118 1014 256 q 535 -19 743 -19 m 535 108 q 788 218 703 108 q 872 486 872 328 q 788 754 872 644 q 535 864 703 864 q 282 754 367 864 q 197 486 197 644 q 282 218 197 328 q 535 108 367 108 m 665 876 l 665 972 q 776 1075 776 972 l 896 1075 q 829 936 896 996 q 665 876 763 876 m 533 1056 l 521 1111 q 569 1165 569 1128 q 513 1210 569 1210 q 425 1183 475 1210 l 401 1254 q 513 1281 450 1281 q 610 1253 569 1281 q 650 1174 650 1225 q 533 1056 650 1082 z "},"Ỡ":{"ha":1069,"x_min":56,"x_max":1014,"o":"m 535 -19 q 191 118 326 -19 q 56 486 56 256 q 191 854 56 717 q 535 992 326 992 q 878 854 743 992 q 1014 486 1014 717 q 878 118 1014 256 q 535 -19 743 -19 m 535 108 q 788 218 703 108 q 872 486 872 328 q 788 754 872 644 q 535 864 703 864 q 282 754 367 864 q 197 486 197 644 q 282 218 197 328 q 535 108 367 108 m 665 876 l 665 972 q 776 1075 776 972 l 896 1075 q 829 936 896 996 q 665 876 763 876 m 650 1094 q 549 1123 601 1094 q 456 1151 496 1151 q 408 1101 408 1151 l 318 1101 q 419 1240 318 1240 q 521 1212 468 1240 q 614 1183 574 1183 q 661 1233 661 1183 l 751 1233 q 650 1094 751 1094 z "},"Ő":{"ha":1069,"x_min":56,"x_max":1014,"o":"m 535 -19 q 191 118 326 -19 q 56 486 56 256 q 191 854 56 717 q 535 992 326 992 q 878 854 743 992 q 1014 486 1014 717 q 878 118 1014 256 q 535 -19 743 -19 m 535 108 q 788 218 703 108 q 872 486 872 328 q 788 754 872 644 q 535 864 703 864 q 282 754 367 864 q 197 486 197 644 q 282 218 197 328 q 535 108 367 108 m 390 1094 l 482 1299 l 618 1299 l 482 1094 l 390 1094 m 585 1094 l 683 1299 l 819 1299 l 676 1094 l 585 1094 z "},"Ȏ":{"ha":1069,"x_min":56,"x_max":1014,"o":"m 535 -19 q 191 118 326 -19 q 56 486 56 256 q 191 854 56 717 q 535 992 326 992 q 878 854 743 992 q 1014 486 1014 717 q 878 118 1014 256 q 535 -19 743 -19 m 535 108 q 788 218 703 108 q 872 486 872 328 q 788 754 872 644 q 535 864 703 864 q 282 754 367 864 q 197 486 197 644 q 282 218 197 328 q 535 108 367 108 m 535 1249 q 688 1198 639 1249 q 738 1082 738 1147 l 626 1082 q 599 1142 626 1122 q 535 1163 572 1163 q 470 1142 497 1163 q 443 1082 443 1122 l 332 1082 q 381 1198 332 1147 q 535 1249 431 1249 z "},"Ō":{"ha":1069,"x_min":56,"x_max":1014,"o":"m 535 -19 q 191 118 326 -19 q 56 486 56 256 q 191 854 56 717 q 535 992 326 992 q 878 854 743 992 q 1014 486 1014 717 q 878 118 1014 256 q 535 -19 743 -19 m 535 108 q 788 218 703 108 q 872 486 872 328 q 788 754 872 644 q 535 864 703 864 q 282 754 367 864 q 197 486 197 644 q 282 218 197 328 q 535 108 367 108 m 313 1101 l 313 1196 l 757 1196 l 757 1101 l 313 1101 z "},"Ṓ":{"ha":1069,"x_min":56,"x_max":1014,"o":"m 535 -19 q 191 118 326 -19 q 56 486 56 256 q 191 854 56 717 q 535 992 326 992 q 878 854 743 992 q 1014 486 1014 717 q 878 118 1014 256 q 535 -19 743 -19 m 535 108 q 788 218 703 108 q 872 486 872 328 q 788 754 872 644 q 535 864 703 864 q 282 754 367 864 q 197 486 197 644 q 282 218 197 328 q 535 108 367 108 m 313 1101 l 313 1196 l 757 1196 l 757 1101 l 313 1101 m 406 1300 l 406 1381 l 665 1513 l 665 1381 l 406 1300 z "},"Ṑ":{"ha":1069,"x_min":56,"x_max":1014,"o":"m 535 -19 q 191 118 326 -19 q 56 486 56 256 q 191 854 56 717 q 535 992 326 992 q 878 854 743 992 q 1014 486 1014 717 q 878 118 1014 256 q 535 -19 743 -19 m 535 108 q 788 218 703 108 q 872 486 872 328 q 788 754 872 644 q 535 864 703 864 q 282 754 367 864 q 197 486 197 644 q 282 218 197 328 q 535 108 367 108 m 313 1101 l 313 1196 l 757 1196 l 757 1101 l 313 1101 m 664 1300 l 404 1381 l 404 1513 l 664 1381 l 664 1300 z "},"Ǫ":{"ha":1069,"x_min":56,"x_max":1014,"o":"m 535 -19 q 191 118 326 -19 q 56 486 56 256 q 191 854 56 717 q 535 992 326 992 q 878 854 743 992 q 1014 486 1014 717 q 878 118 1014 256 q 535 -19 743 -19 m 535 108 q 788 218 703 108 q 872 486 872 328 q 788 754 872 644 q 535 864 703 864 q 282 754 367 864 q 197 486 197 644 q 282 218 197 328 q 535 108 367 108 m 572 0 l 646 0 q 567 -73 597 -37 q 538 -147 538 -108 q 604 -218 538 -218 q 692 -194 649 -218 l 713 -262 q 664 -281 693 -272 q 597 -289 635 -289 q 498 -258 539 -289 q 457 -169 457 -228 q 494 -69 457 -114 q 572 0 531 -24 z "},"Ø":{"ha":1069,"x_min":56,"x_max":1014,"o":"m 97 -61 l 846 1033 l 972 1033 l 224 -61 l 97 -61 m 535 -19 q 191 118 326 -19 q 56 486 56 256 q 191 854 56 717 q 535 992 326 992 q 878 854 743 992 q 1014 486 1014 717 q 878 118 1014 256 q 535 -19 743 -19 m 535 108 q 788 218 703 108 q 872 486 872 328 q 788 754 872 644 q 535 864 703 864 q 282 754 367 864 q 197 486 197 644 q 282 218 197 328 q 535 108 367 108 z "},"Ǿ":{"ha":1069,"x_min":56,"x_max":1014,"o":"m 97 -61 l 846 1033 l 972 1033 l 224 -61 l 97 -61 m 535 -19 q 191 118 326 -19 q 56 486 56 256 q 191 854 56 717 q 535 992 326 992 q 878 854 743 992 q 1014 486 1014 717 q 878 118 1014 256 q 535 -19 743 -19 m 535 108 q 788 218 703 108 q 872 486 872 328 q 788 754 872 644 q 535 864 703 864 q 282 754 367 864 q 197 486 197 644 q 282 218 197 328 q 535 108 367 108 m 404 1061 l 404 1142 l 664 1274 l 664 1142 l 404 1061 z "},"Õ":{"ha":1069,"x_min":56,"x_max":1014,"o":"m 535 -19 q 191 118 326 -19 q 56 486 56 256 q 191 854 56 717 q 535 992 326 992 q 878 854 743 992 q 1014 486 1014 717 q 878 118 1014 256 q 535 -19 743 -19 m 535 108 q 788 218 703 108 q 872 486 872 328 q 788 754 872 644 q 535 864 703 864 q 282 754 367 864 q 197 486 197 644 q 282 218 197 328 q 535 108 367 108 m 650 1094 q 549 1123 601 1094 q 456 1151 496 1151 q 408 1101 408 1151 l 318 1101 q 419 1240 318 1240 q 521 1212 468 1240 q 614 1183 574 1183 q 661 1233 661 1183 l 751 1233 q 650 1094 751 1094 z "},"Ṍ":{"ha":1069,"x_min":56,"x_max":1014,"o":"m 535 -19 q 191 118 326 -19 q 56 486 56 256 q 191 854 56 717 q 535 992 326 992 q 878 854 743 992 q 1014 486 1014 717 q 878 118 1014 256 q 535 -19 743 -19 m 535 108 q 788 218 703 108 q 872 486 872 328 q 788 754 872 644 q 535 864 703 864 q 282 754 367 864 q 197 486 197 644 q 282 218 197 328 q 535 108 367 108 m 650 1094 q 549 1123 601 1094 q 456 1151 496 1151 q 408 1101 408 1151 l 318 1101 q 419 1240 318 1240 q 521 1212 468 1240 q 614 1183 574 1183 q 661 1233 661 1183 l 751 1233 q 650 1094 751 1094 m 406 1306 l 406 1386 l 665 1518 l 665 1386 l 406 1306 z "},"Ṏ":{"ha":1069,"x_min":56,"x_max":1014,"o":"m 535 -19 q 191 118 326 -19 q 56 486 56 256 q 191 854 56 717 q 535 992 326 992 q 878 854 743 992 q 1014 486 1014 717 q 878 118 1014 256 q 535 -19 743 -19 m 535 108 q 788 218 703 108 q 872 486 872 328 q 788 754 872 644 q 535 864 703 864 q 282 754 367 864 q 197 486 197 644 q 282 218 197 328 q 535 108 367 108 m 650 1094 q 549 1123 601 1094 q 456 1151 496 1151 q 408 1101 408 1151 l 318 1101 q 419 1240 318 1240 q 521 1212 468 1240 q 614 1183 574 1183 q 661 1233 661 1183 l 751 1233 q 650 1094 751 1094 m 342 1347 l 342 1451 l 461 1451 l 461 1347 l 342 1347 m 608 1347 l 608 1451 l 728 1451 l 728 1347 l 608 1347 z "},"Ȭ":{"ha":1069,"x_min":56,"x_max":1014,"o":"m 535 -19 q 191 118 326 -19 q 56 486 56 256 q 191 854 56 717 q 535 992 326 992 q 878 854 743 992 q 1014 486 1014 717 q 878 118 1014 256 q 535 -19 743 -19 m 535 108 q 788 218 703 108 q 872 486 872 328 q 788 754 872 644 q 535 864 703 864 q 282 754 367 864 q 197 486 197 644 q 282 218 197 328 q 535 108 367 108 m 650 1094 q 549 1123 601 1094 q 456 1151 496 1151 q 408 1101 408 1151 l 318 1101 q 419 1240 318 1240 q 521 1212 468 1240 q 614 1183 574 1183 q 661 1233 661 1183 l 751 1233 q 650 1094 751 1094 m 313 1346 l 313 1440 l 757 1440 l 757 1346 l 313 1346 z "},"Œ":{"ha":1488,"x_min":56,"x_max":1436,"o":"m 972 486 q 838 118 972 256 q 517 -19 703 -19 q 185 118 315 -19 q 56 486 56 256 q 115 753 56 640 q 279 929 175 867 q 517 992 383 992 q 745 929 642 992 q 910 753 849 867 q 972 486 972 640 m 525 100 q 772 211 690 100 q 854 486 854 322 q 772 761 854 650 q 525 872 690 872 q 276 761 358 872 q 194 486 194 650 q 276 211 194 322 q 525 100 358 100 m 867 971 l 1424 971 l 1424 853 l 993 853 l 993 568 l 1324 568 l 1324 449 l 993 449 l 993 119 l 1436 119 l 1436 0 l 867 0 l 867 971 z "},"P":{"ha":794,"x_min":111,"x_max":761,"o":"m 111 0 l 111 972 l 432 972 q 670 900 579 972 q 761 657 761 828 q 670 415 761 489 q 432 340 579 340 l 250 340 l 250 0 l 111 0 m 250 458 l 413 458 q 572 506 519 458 q 625 656 625 554 q 574 806 625 757 q 413 854 524 854 l 250 854 l 250 458 z "},"Þ":{"ha":797,"x_min":111,"x_max":764,"o":"m 111 0 l 111 972 l 250 972 l 250 757 l 479 757 q 696 690 628 757 q 764 511 764 622 q 696 333 764 400 q 479 265 628 265 l 250 265 l 250 0 l 111 0 m 250 383 l 469 383 q 588 416 547 383 q 628 511 628 449 q 588 606 628 574 q 469 639 547 639 l 250 639 l 250 383 z "},"Q":{"ha":1069,"x_min":56,"x_max":1014,"o":"m 613 281 l 688 357 l 993 57 l 918 -19 l 613 281 m 535 -19 q 191 118 326 -19 q 56 486 56 256 q 191 854 56 717 q 535 992 326 992 q 878 854 743 992 q 1014 486 1014 717 q 878 118 1014 256 q 535 -19 743 -19 m 535 108 q 788 218 703 108 q 872 486 872 328 q 788 754 872 644 q 535 864 703 864 q 282 754 367 864 q 197 486 197 644 q 282 218 197 328 q 535 108 367 108 z "},"R":{"ha":838,"x_min":111,"x_max":811,"o":"m 111 0 l 111 972 l 426 972 q 670 901 578 972 q 763 676 763 831 q 719 509 763 576 q 593 403 675 442 l 811 0 l 650 0 l 453 379 q 449 379 450 379 q 446 379 447 379 l 250 379 l 250 0 l 111 0 m 250 497 l 425 497 q 574 545 524 497 q 625 676 625 593 q 574 808 625 761 q 425 854 524 854 l 250 854 l 250 497 z "},"Ŕ":{"ha":838,"x_min":111,"x_max":811,"o":"m 111 0 l 111 972 l 426 972 q 670 901 578 972 q 763 676 763 831 q 719 509 763 576 q 593 403 675 442 l 811 0 l 650 0 l 453 379 q 449 379 450 379 q 446 379 447 379 l 250 379 l 250 0 l 111 0 m 250 497 l 425 497 q 574 545 524 497 q 625 676 625 593 q 574 808 625 761 q 425 854 524 854 l 250 854 l 250 497 m 297 1061 l 297 1142 l 557 1274 l 557 1142 l 297 1061 z "},"Ř":{"ha":838,"x_min":111,"x_max":811,"o":"m 111 0 l 111 972 l 426 972 q 670 901 578 972 q 763 676 763 831 q 719 509 763 576 q 593 403 675 442 l 811 0 l 650 0 l 453 379 q 449 379 450 379 q 446 379 447 379 l 250 379 l 250 0 l 111 0 m 250 497 l 425 497 q 574 545 524 497 q 625 676 625 593 q 574 808 625 761 q 425 854 524 854 l 250 854 l 250 497 z "},"Ŗ":{"ha":838,"x_min":111,"x_max":811,"o":"m 111 0 l 111 972 l 426 972 q 670 901 578 972 q 763 676 763 831 q 719 509 763 576 q 593 403 675 442 l 811 0 l 650 0 l 453 379 q 449 379 450 379 q 446 379 447 379 l 250 379 l 250 0 l 111 0 m 250 497 l 425 497 q 574 545 524 497 q 625 676 625 593 q 574 808 625 761 q 425 854 524 854 l 250 854 l 250 497 m 464 -422 l 385 -422 l 435 -274 l 386 -274 l 386 -126 l 536 -126 l 536 -260 l 464 -422 z "},"Ȑ":{"ha":838,"x_min":111,"x_max":811,"o":"m 111 0 l 111 972 l 426 972 q 670 901 578 972 q 763 676 763 831 q 719 509 763 576 q 593 403 675 442 l 811 0 l 650 0 l 453 379 q 449 379 450 379 q 446 379 447 379 l 250 379 l 250 0 l 111 0 m 250 497 l 425 497 q 574 545 524 497 q 625 676 625 593 q 574 808 625 761 q 425 854 524 854 l 250 854 l 250 497 m 571 1094 l 479 1094 l 354 1299 l 490 1299 l 571 1094 m 376 1094 l 285 1094 l 153 1299 l 289 1299 l 376 1094 z "},"Ṛ":{"ha":838,"x_min":111,"x_max":811,"o":"m 111 0 l 111 972 l 426 972 q 670 901 578 972 q 763 676 763 831 q 719 509 763 576 q 593 403 675 442 l 811 0 l 650 0 l 453 379 q 449 379 450 379 q 446 379 447 379 l 250 379 l 250 0 l 111 0 m 250 497 l 425 497 q 574 545 524 497 q 625 676 625 593 q 574 808 625 761 q 425 854 524 854 l 250 854 l 250 497 z "},"Ȓ":{"ha":838,"x_min":111,"x_max":811,"o":"m 111 0 l 111 972 l 426 972 q 670 901 578 972 q 763 676 763 831 q 719 509 763 576 q 593 403 675 442 l 811 0 l 650 0 l 453 379 q 449 379 450 379 q 446 379 447 379 l 250 379 l 250 0 l 111 0 m 250 497 l 425 497 q 574 545 524 497 q 625 676 625 593 q 574 808 625 761 q 425 854 524 854 l 250 854 l 250 497 m 426 1249 q 580 1198 531 1249 q 629 1082 629 1147 l 518 1082 q 491 1142 518 1122 q 426 1163 464 1163 q 362 1142 389 1163 q 335 1082 335 1122 l 224 1082 q 273 1198 224 1147 q 426 1249 322 1249 z "},"Ṟ":{"ha":838,"x_min":111,"x_max":811,"o":"m 111 0 l 111 972 l 426 972 q 670 901 578 972 q 763 676 763 831 q 719 509 763 576 q 593 403 675 442 l 811 0 l 650 0 l 453 379 q 449 379 450 379 q 446 379 447 379 l 250 379 l 250 0 l 111 0 m 250 497 l 425 497 q 574 545 524 497 q 625 676 625 593 q 574 808 625 761 q 425 854 524 854 l 250 854 l 250 497 z "},"S":{"ha":811,"x_min":71,"x_max":768,"o":"m 389 -19 q 210 0 299 -19 q 71 43 122 19 l 89 183 q 235 128 144 156 q 419 100 325 100 q 569 135 514 100 q 624 242 624 169 q 561 364 624 324 q 372 442 499 404 q 165 536 253 478 q 76 729 76 594 q 166 918 76 844 q 424 992 256 992 q 600 971 519 992 q 732 925 681 950 l 718 785 q 567 852 639 832 q 418 872 494 872 q 277 840 333 872 q 221 736 221 808 q 277 628 221 664 q 443 560 333 593 q 681 446 594 514 q 768 251 768 378 q 726 108 768 168 q 601 14 685 47 q 389 -19 517 -19 z "},"Ś":{"ha":811,"x_min":71,"x_max":768,"o":"m 389 -19 q 210 0 299 -19 q 71 43 122 19 l 89 183 q 235 128 144 156 q 419 100 325 100 q 569 135 514 100 q 624 242 624 169 q 561 364 624 324 q 372 442 499 404 q 165 536 253 478 q 76 729 76 594 q 166 918 76 844 q 424 992 256 992 q 600 971 519 992 q 732 925 681 950 l 718 785 q 567 852 639 832 q 418 872 494 872 q 277 840 333 872 q 221 736 221 808 q 277 628 221 664 q 443 560 333 593 q 681 446 594 514 q 768 251 768 378 q 726 108 768 168 q 601 14 685 47 q 389 -19 517 -19 m 310 1061 l 310 1142 l 569 1274 l 569 1142 l 310 1061 z "},"Ṥ":{"ha":811,"x_min":71,"x_max":768,"o":"m 389 -19 q 210 0 299 -19 q 71 43 122 19 l 89 183 q 235 128 144 156 q 419 100 325 100 q 569 135 514 100 q 624 242 624 169 q 561 364 624 324 q 372 442 499 404 q 165 536 253 478 q 76 729 76 594 q 166 918 76 844 q 424 992 256 992 q 600 971 519 992 q 732 925 681 950 l 718 785 q 567 852 639 832 q 418 872 494 872 q 277 840 333 872 q 221 736 221 808 q 277 628 221 664 q 443 560 333 593 q 681 446 594 514 q 768 251 768 378 q 726 108 768 168 q 601 14 685 47 q 389 -19 517 -19 m 310 1061 l 310 1142 l 569 1274 l 569 1142 l 310 1061 m 372 1338 l 372 1463 l 506 1463 l 506 1338 l 372 1338 z "},"Š":{"ha":811,"x_min":71,"x_max":768,"o":"m 389 -19 q 210 0 299 -19 q 71 43 122 19 l 89 183 q 235 128 144 156 q 419 100 325 100 q 569 135 514 100 q 624 242 624 169 q 561 364 624 324 q 372 442 499 404 q 165 536 253 478 q 76 729 76 594 q 166 918 76 844 q 424 992 256 992 q 600 971 519 992 q 732 925 681 950 l 718 785 q 567 852 639 832 q 418 872 494 872 q 277 840 333 872 q 221 736 221 808 q 277 628 221 664 q 443 560 333 593 q 681 446 594 514 q 768 251 768 378 q 726 108 768 168 q 601 14 685 47 q 389 -19 517 -19 z "},"Ṧ":{"ha":811,"x_min":71,"x_max":768,"o":"m 389 -19 q 210 0 299 -19 q 71 43 122 19 l 89 183 q 235 128 144 156 q 419 100 325 100 q 569 135 514 100 q 624 242 624 169 q 561 364 624 324 q 372 442 499 404 q 165 536 253 478 q 76 729 76 594 q 166 918 76 844 q 424 992 256 992 q 600 971 519 992 q 732 925 681 950 l 718 785 q 567 852 639 832 q 418 872 494 872 q 277 840 333 872 q 221 736 221 808 q 277 628 221 664 q 443 560 333 593 q 681 446 594 514 q 768 251 768 378 q 726 108 768 168 q 601 14 685 47 q 389 -19 517 -19 m 372 1356 l 372 1481 l 506 1481 l 506 1356 l 372 1356 z "},"Ş":{"ha":811,"x_min":71,"x_max":768,"o":"m 389 -19 q 210 0 299 -19 q 71 43 122 19 l 89 183 q 235 128 144 156 q 419 100 325 100 q 569 135 514 100 q 624 242 624 169 q 561 364 624 324 q 372 442 499 404 q 165 536 253 478 q 76 729 76 594 q 166 918 76 844 q 424 992 256 992 q 600 971 519 992 q 732 925 681 950 l 718 785 q 567 852 639 832 q 418 872 494 872 q 277 840 333 872 q 221 736 221 808 q 277 628 221 664 q 443 560 333 593 q 681 446 594 514 q 768 251 768 378 q 726 108 768 168 q 601 14 685 47 q 389 -19 517 -19 m 411 -110 l 365 -89 q 433 -75 403 -75 q 554 -187 554 -75 q 511 -281 554 -249 q 407 -314 468 -314 q 344 -306 371 -314 q 299 -287 318 -297 l 319 -219 q 362 -237 340 -231 q 407 -243 383 -243 q 474 -190 474 -243 q 404 -135 474 -135 q 340 -146 372 -135 l 376 0 l 446 0 l 411 -110 z "},"Ŝ":{"ha":811,"x_min":71,"x_max":768,"o":"m 389 -19 q 210 0 299 -19 q 71 43 122 19 l 89 183 q 235 128 144 156 q 419 100 325 100 q 569 135 514 100 q 624 242 624 169 q 561 364 624 324 q 372 442 499 404 q 165 536 253 478 q 76 729 76 594 q 166 918 76 844 q 424 992 256 992 q 600 971 519 992 q 732 925 681 950 l 718 785 q 567 852 639 832 q 418 872 494 872 q 277 840 333 872 q 221 736 221 808 q 277 628 221 664 q 443 560 333 593 q 681 446 594 514 q 768 251 768 378 q 726 108 768 168 q 601 14 685 47 q 389 -19 517 -19 m 263 1046 l 263 1131 l 439 1256 l 615 1131 l 615 1046 l 439 1138 l 263 1046 z "},"Ș":{"ha":811,"x_min":71,"x_max":768,"o":"m 389 -19 q 210 0 299 -19 q 71 43 122 19 l 89 183 q 235 128 144 156 q 419 100 325 100 q 569 135 514 100 q 624 242 624 169 q 561 364 624 324 q 372 442 499 404 q 165 536 253 478 q 76 729 76 594 q 166 918 76 844 q 424 992 256 992 q 600 971 519 992 q 732 925 681 950 l 718 785 q 567 852 639 832 q 418 872 494 872 q 277 840 333 872 q 221 736 221 808 q 277 628 221 664 q 443 560 333 593 q 681 446 594 514 q 768 251 768 378 q 726 108 768 168 q 601 14 685 47 q 389 -19 517 -19 m 411 -422 l 332 -422 l 382 -274 l 333 -274 l 333 -126 l 483 -126 l 483 -260 l 411 -422 z "},"Ṡ":{"ha":811,"x_min":71,"x_max":768,"o":"m 389 -19 q 210 0 299 -19 q 71 43 122 19 l 89 183 q 235 128 144 156 q 419 100 325 100 q 569 135 514 100 q 624 242 624 169 q 561 364 624 324 q 372 442 499 404 q 165 536 253 478 q 76 729 76 594 q 166 918 76 844 q 424 992 256 992 q 600 971 519 992 q 732 925 681 950 l 718 785 q 567 852 639 832 q 418 872 494 872 q 277 840 333 872 q 221 736 221 808 q 277 628 221 664 q 443 560 333 593 q 681 446 594 514 q 768 251 768 378 q 726 108 768 168 q 601 14 685 47 q 389 -19 517 -19 m 372 1099 l 372 1224 l 506 1224 l 506 1099 l 372 1099 z "},"Ṣ":{"ha":811,"x_min":71,"x_max":768,"o":"m 389 -19 q 210 0 299 -19 q 71 43 122 19 l 89 183 q 235 128 144 156 q 419 100 325 100 q 569 135 514 100 q 624 242 624 169 q 561 364 624 324 q 372 442 499 404 q 165 536 253 478 q 76 729 76 594 q 166 918 76 844 q 424 992 256 992 q 600 971 519 992 q 732 925 681 950 l 718 785 q 567 852 639 832 q 418 872 494 872 q 277 840 333 872 q 221 736 221 808 q 277 628 221 664 q 443 560 333 593 q 681 446 594 514 q 768 251 768 378 q 726 108 768 168 q 601 14 685 47 q 389 -19 517 -19 z "},"Ṩ":{"ha":811,"x_min":71,"x_max":768,"o":"m 389 -19 q 210 0 299 -19 q 71 43 122 19 l 89 183 q 235 128 144 156 q 419 100 325 100 q 569 135 514 100 q 624 242 624 169 q 561 364 624 324 q 372 442 499 404 q 165 536 253 478 q 76 729 76 594 q 166 918 76 844 q 424 992 256 992 q 600 971 519 992 q 732 925 681 950 l 718 785 q 567 852 639 832 q 418 872 494 872 q 277 840 333 872 q 221 736 221 808 q 277 628 221 664 q 443 560 333 593 q 681 446 594 514 q 768 251 768 378 q 726 108 768 168 q 601 14 685 47 q 389 -19 517 -19 m 372 1099 l 372 1224 l 506 1224 l 506 1099 l 372 1099 z "},"ẞ":{"ha":854,"x_min":111,"x_max":800,"o":"m 111 0 l 111 682 q 210 915 111 839 q 465 992 308 992 q 628 968 556 992 q 751 910 700 944 l 751 804 l 504 507 l 474 565 q 701 499 603 565 q 800 275 800 432 q 707 53 800 125 q 496 -19 614 -19 q 425 -15 458 -19 q 357 0 392 -10 l 357 114 q 486 100 417 100 q 614 146 567 100 q 661 274 661 192 q 443 465 661 465 l 410 465 l 410 571 l 676 896 l 665 838 q 582 867 632 854 q 465 881 532 881 q 303 828 364 881 q 243 685 243 776 l 243 0 l 111 0 z "},"Ə":{"ha":971,"x_min":42,"x_max":915,"o":"m 771 475 q 683 767 771 661 q 428 872 594 872 q 264 851 343 872 q 110 799 185 831 l 85 910 q 250 968 158 944 q 443 992 342 992 q 788 852 661 992 q 915 472 915 713 q 796 126 915 271 q 461 -19 676 -19 q 160 88 279 -19 q 42 392 42 194 q 43 437 42 413 q 50 488 44 461 l 832 488 l 832 371 l 186 371 q 254 174 186 247 q 465 100 322 100 q 689 201 607 100 q 771 475 771 301 z "},"T":{"ha":740,"x_min":21,"x_max":719,"o":"m 304 0 l 304 853 l 21 853 l 21 972 l 719 972 l 719 853 l 436 853 l 436 0 l 304 0 z "},"Ŧ":{"ha":740,"x_min":21,"x_max":719,"o":"m 304 0 l 304 853 l 21 853 l 21 972 l 719 972 l 719 853 l 436 853 l 436 0 l 304 0 m 124 454 l 124 542 l 617 542 l 617 454 l 124 454 z "},"Ť":{"ha":740,"x_min":21,"x_max":719,"o":"m 304 0 l 304 853 l 21 853 l 21 972 l 719 972 l 719 853 l 436 853 l 436 0 l 304 0 z "},"Ţ":{"ha":740,"x_min":21,"x_max":719,"o":"m 304 0 l 304 853 l 21 853 l 21 972 l 719 972 l 719 853 l 436 853 l 436 0 l 304 0 z "},"Ț":{"ha":740,"x_min":21,"x_max":719,"o":"m 304 0 l 304 853 l 21 853 l 21 972 l 719 972 l 719 853 l 436 853 l 436 0 l 304 0 m 375 -422 l 296 -422 l 346 -274 l 297 -274 l 297 -126 l 447 -126 l 447 -260 l 375 -422 z "},"Ṭ":{"ha":740,"x_min":21,"x_max":719,"o":"m 304 0 l 304 853 l 21 853 l 21 972 l 719 972 l 719 853 l 436 853 l 436 0 l 304 0 z "},"Ṯ":{"ha":740,"x_min":21,"x_max":719,"o":"m 304 0 l 304 853 l 21 853 l 21 972 l 719 972 l 719 853 l 436 853 l 436 0 l 304 0 z "},"U":{"ha":1006,"x_min":100,"x_max":906,"o":"m 503 -19 q 199 97 297 -19 q 100 413 100 213 l 100 972 l 232 972 l 232 449 q 251 280 232 360 q 329 150 271 200 q 503 100 388 100 q 676 151 618 100 q 754 281 735 201 q 774 449 774 361 l 774 972 l 906 972 l 906 413 q 807 97 906 213 q 503 -19 708 -19 z "},"Ú":{"ha":1006,"x_min":100,"x_max":906,"o":"m 503 -19 q 199 97 297 -19 q 100 413 100 213 l 100 972 l 232 972 l 232 449 q 251 280 232 360 q 329 150 271 200 q 503 100 388 100 q 676 151 618 100 q 754 281 735 201 q 774 449 774 361 l 774 972 l 906 972 l 906 413 q 807 97 906 213 q 503 -19 708 -19 m 374 1061 l 374 1142 l 633 1274 l 633 1142 l 374 1061 z "},"Ŭ":{"ha":1006,"x_min":100,"x_max":906,"o":"m 503 -19 q 199 97 297 -19 q 100 413 100 213 l 100 972 l 232 972 l 232 449 q 251 280 232 360 q 329 150 271 200 q 503 100 388 100 q 676 151 618 100 q 754 281 735 201 q 774 449 774 361 l 774 972 l 906 972 l 906 413 q 807 97 906 213 q 503 -19 708 -19 m 503 1061 q 349 1113 399 1061 q 300 1228 300 1164 l 411 1228 q 438 1167 411 1188 q 503 1147 465 1147 q 567 1167 540 1147 q 594 1228 594 1188 l 706 1228 q 656 1113 706 1164 q 503 1061 607 1061 z "},"Û":{"ha":1006,"x_min":100,"x_max":906,"o":"m 503 -19 q 199 97 297 -19 q 100 413 100 213 l 100 972 l 232 972 l 232 449 q 251 280 232 360 q 329 150 271 200 q 503 100 388 100 q 676 151 618 100 q 754 281 735 201 q 774 449 774 361 l 774 972 l 906 972 l 906 413 q 807 97 906 213 q 503 -19 708 -19 m 326 1046 l 326 1131 l 503 1256 l 679 1131 l 679 1046 l 503 1138 l 326 1046 z "},"Ȕ":{"ha":1006,"x_min":100,"x_max":906,"o":"m 503 -19 q 199 97 297 -19 q 100 413 100 213 l 100 972 l 232 972 l 232 449 q 251 280 232 360 q 329 150 271 200 q 503 100 388 100 q 676 151 618 100 q 754 281 735 201 q 774 449 774 361 l 774 972 l 906 972 l 906 413 q 807 97 906 213 q 503 -19 708 -19 m 647 1094 l 556 1094 l 419 1326 l 556 1326 l 647 1094 m 453 1094 l 361 1094 l 218 1326 l 354 1326 l 453 1094 z "},"Ü":{"ha":1006,"x_min":100,"x_max":906,"o":"m 503 -19 q 199 97 297 -19 q 100 413 100 213 l 100 972 l 232 972 l 232 449 q 251 280 232 360 q 329 150 271 200 q 503 100 388 100 q 676 151 618 100 q 754 281 735 201 q 774 449 774 361 l 774 972 l 906 972 l 906 413 q 807 97 906 213 q 503 -19 708 -19 m 310 1103 l 310 1207 l 429 1207 l 429 1103 l 310 1103 m 576 1103 l 576 1207 l 696 1207 l 696 1103 l 576 1103 z "},"Ụ":{"ha":1006,"x_min":100,"x_max":906,"o":"m 503 -19 q 199 97 297 -19 q 100 413 100 213 l 100 972 l 232 972 l 232 449 q 251 280 232 360 q 329 150 271 200 q 503 100 388 100 q 676 151 618 100 q 754 281 735 201 q 774 449 774 361 l 774 972 l 906 972 l 906 413 q 807 97 906 213 q 503 -19 708 -19 z "},"Ù":{"ha":1006,"x_min":100,"x_max":906,"o":"m 503 -19 q 199 97 297 -19 q 100 413 100 213 l 100 972 l 232 972 l 232 449 q 251 280 232 360 q 329 150 271 200 q 503 100 388 100 q 676 151 618 100 q 754 281 735 201 q 774 449 774 361 l 774 972 l 906 972 l 906 413 q 807 97 906 213 q 503 -19 708 -19 m 632 1061 l 372 1142 l 372 1274 l 632 1142 l 632 1061 z "},"Ủ":{"ha":1006,"x_min":100,"x_max":906,"o":"m 503 -19 q 199 97 297 -19 q 100 413 100 213 l 100 972 l 232 972 l 232 449 q 251 280 232 360 q 329 150 271 200 q 503 100 388 100 q 676 151 618 100 q 754 281 735 201 q 774 449 774 361 l 774 972 l 906 972 l 906 413 q 807 97 906 213 q 503 -19 708 -19 m 501 1056 l 489 1111 q 538 1165 538 1128 q 481 1210 538 1210 q 393 1183 443 1210 l 369 1254 q 481 1281 418 1281 q 578 1253 538 1281 q 618 1174 618 1225 q 501 1056 618 1082 z "},"Ư":{"ha":1006,"x_min":100,"x_max":1071,"o":"m 503 -19 q 199 97 297 -19 q 100 413 100 213 l 100 972 l 232 972 l 232 449 q 251 280 232 360 q 329 150 271 200 q 503 100 388 100 q 676 151 618 100 q 754 281 735 201 q 774 449 774 361 l 774 972 l 906 972 l 906 413 q 807 97 906 213 q 503 -19 708 -19 m 840 876 l 840 972 q 951 1075 951 972 l 1071 1075 q 1004 936 1071 996 q 840 876 938 876 z "},"Ứ":{"ha":1006,"x_min":100,"x_max":1071,"o":"m 503 -19 q 199 97 297 -19 q 100 413 100 213 l 100 972 l 232 972 l 232 449 q 251 280 232 360 q 329 150 271 200 q 503 100 388 100 q 676 151 618 100 q 754 281 735 201 q 774 449 774 361 l 774 972 l 906 972 l 906 413 q 807 97 906 213 q 503 -19 708 -19 m 840 876 l 840 972 q 951 1075 951 972 l 1071 1075 q 1004 936 1071 996 q 840 876 938 876 m 374 1061 l 374 1142 l 633 1274 l 633 1142 l 374 1061 z "},"Ự":{"ha":1006,"x_min":100,"x_max":1071,"o":"m 503 -19 q 199 97 297 -19 q 100 413 100 213 l 100 972 l 232 972 l 232 449 q 251 280 232 360 q 329 150 271 200 q 503 100 388 100 q 676 151 618 100 q 754 281 735 201 q 774 449 774 361 l 774 972 l 906 972 l 906 413 q 807 97 906 213 q 503 -19 708 -19 m 840 876 l 840 972 q 951 1075 951 972 l 1071 1075 q 1004 936 1071 996 q 840 876 938 876 z "},"Ừ":{"ha":1006,"x_min":100,"x_max":1071,"o":"m 503 -19 q 199 97 297 -19 q 100 413 100 213 l 100 972 l 232 972 l 232 449 q 251 280 232 360 q 329 150 271 200 q 503 100 388 100 q 676 151 618 100 q 754 281 735 201 q 774 449 774 361 l 774 972 l 906 972 l 906 413 q 807 97 906 213 q 503 -19 708 -19 m 840 876 l 840 972 q 951 1075 951 972 l 1071 1075 q 1004 936 1071 996 q 840 876 938 876 m 632 1061 l 372 1142 l 372 1274 l 632 1142 l 632 1061 z "},"Ử":{"ha":1006,"x_min":100,"x_max":1071,"o":"m 503 -19 q 199 97 297 -19 q 100 413 100 213 l 100 972 l 232 972 l 232 449 q 251 280 232 360 q 329 150 271 200 q 503 100 388 100 q 676 151 618 100 q 754 281 735 201 q 774 449 774 361 l 774 972 l 906 972 l 906 413 q 807 97 906 213 q 503 -19 708 -19 m 840 876 l 840 972 q 951 1075 951 972 l 1071 1075 q 1004 936 1071 996 q 840 876 938 876 m 501 1056 l 489 1111 q 538 1165 538 1128 q 481 1210 538 1210 q 393 1183 443 1210 l 369 1254 q 481 1281 418 1281 q 578 1253 538 1281 q 618 1174 618 1225 q 501 1056 618 1082 z "},"Ữ":{"ha":1006,"x_min":100,"x_max":1071,"o":"m 503 -19 q 199 97 297 -19 q 100 413 100 213 l 100 972 l 232 972 l 232 449 q 251 280 232 360 q 329 150 271 200 q 503 100 388 100 q 676 151 618 100 q 754 281 735 201 q 774 449 774 361 l 774 972 l 906 972 l 906 413 q 807 97 906 213 q 503 -19 708 -19 m 840 876 l 840 972 q 951 1075 951 972 l 1071 1075 q 1004 936 1071 996 q 840 876 938 876 m 618 1094 q 517 1123 569 1094 q 424 1151 464 1151 q 376 1101 376 1151 l 286 1101 q 388 1240 286 1240 q 489 1212 436 1240 q 582 1183 542 1183 q 629 1233 629 1183 l 719 1233 q 618 1094 719 1094 z "},"Ű":{"ha":1006,"x_min":100,"x_max":906,"o":"m 503 -19 q 199 97 297 -19 q 100 413 100 213 l 100 972 l 232 972 l 232 449 q 251 280 232 360 q 329 150 271 200 q 503 100 388 100 q 676 151 618 100 q 754 281 735 201 q 774 449 774 361 l 774 972 l 906 972 l 906 413 q 807 97 906 213 q 503 -19 708 -19 m 358 1094 l 450 1299 l 586 1299 l 450 1094 l 358 1094 m 553 1094 l 651 1299 l 788 1299 l 644 1094 l 553 1094 z "},"Ȗ":{"ha":1006,"x_min":100,"x_max":906,"o":"m 503 -19 q 199 97 297 -19 q 100 413 100 213 l 100 972 l 232 972 l 232 449 q 251 280 232 360 q 329 150 271 200 q 503 100 388 100 q 676 151 618 100 q 754 281 735 201 q 774 449 774 361 l 774 972 l 906 972 l 906 413 q 807 97 906 213 q 503 -19 708 -19 m 503 1249 q 656 1198 607 1249 q 706 1082 706 1147 l 594 1082 q 567 1142 594 1122 q 503 1163 540 1163 q 438 1142 465 1163 q 411 1082 411 1122 l 300 1082 q 349 1198 300 1147 q 503 1249 399 1249 z "},"Ū":{"ha":1006,"x_min":100,"x_max":906,"o":"m 503 -19 q 199 97 297 -19 q 100 413 100 213 l 100 972 l 232 972 l 232 449 q 251 280 232 360 q 329 150 271 200 q 503 100 388 100 q 676 151 618 100 q 754 281 735 201 q 774 449 774 361 l 774 972 l 906 972 l 906 413 q 807 97 906 213 q 503 -19 708 -19 m 281 1101 l 281 1196 l 725 1196 l 725 1101 l 281 1101 z "},"Ṻ":{"ha":1006,"x_min":100,"x_max":906,"o":"m 503 -19 q 199 97 297 -19 q 100 413 100 213 l 100 972 l 232 972 l 232 449 q 251 280 232 360 q 329 150 271 200 q 503 100 388 100 q 676 151 618 100 q 754 281 735 201 q 774 449 774 361 l 774 972 l 906 972 l 906 413 q 807 97 906 213 q 503 -19 708 -19 m 281 1101 l 281 1196 l 725 1196 l 725 1101 l 281 1101 m 310 1342 l 310 1446 l 429 1446 l 429 1342 l 310 1342 m 576 1342 l 576 1446 l 696 1446 l 696 1342 l 576 1342 z "},"Ų":{"ha":1006,"x_min":100,"x_max":906,"o":"m 503 -19 q 199 97 297 -19 q 100 413 100 213 l 100 972 l 232 972 l 232 449 q 251 280 232 360 q 329 150 271 200 q 503 100 388 100 q 676 151 618 100 q 754 281 735 201 q 774 449 774 361 l 774 972 l 906 972 l 906 413 q 807 97 906 213 q 503 -19 708 -19 m 568 0 l 642 0 q 563 -73 593 -37 q 533 -147 533 -108 q 600 -218 533 -218 q 688 -194 644 -218 l 708 -262 q 660 -281 689 -272 q 593 -289 631 -289 q 494 -258 535 -289 q 453 -169 453 -228 q 490 -69 453 -114 q 568 0 526 -24 z "},"Ů":{"ha":1006,"x_min":100,"x_max":906,"o":"m 503 -19 q 199 97 297 -19 q 100 413 100 213 l 100 972 l 232 972 l 232 449 q 251 280 232 360 q 329 150 271 200 q 503 100 388 100 q 676 151 618 100 q 754 281 735 201 q 774 449 774 361 l 774 972 l 906 972 l 906 413 q 807 97 906 213 q 503 -19 708 -19 m 503 1050 q 394 1092 431 1050 q 358 1186 358 1133 q 395 1281 358 1239 q 503 1322 432 1322 q 611 1281 575 1322 q 647 1186 647 1239 q 611 1092 647 1133 q 503 1050 575 1050 m 503 1111 q 555 1131 532 1111 q 578 1186 578 1150 q 556 1240 578 1219 q 503 1261 533 1261 q 450 1240 472 1261 q 428 1186 428 1219 q 451 1131 428 1150 q 503 1111 474 1111 z "},"Ũ":{"ha":1006,"x_min":100,"x_max":906,"o":"m 503 -19 q 199 97 297 -19 q 100 413 100 213 l 100 972 l 232 972 l 232 449 q 251 280 232 360 q 329 150 271 200 q 503 100 388 100 q 676 151 618 100 q 754 281 735 201 q 774 449 774 361 l 774 972 l 906 972 l 906 413 q 807 97 906 213 q 503 -19 708 -19 m 618 1094 q 517 1123 569 1094 q 424 1151 464 1151 q 376 1101 376 1151 l 286 1101 q 388 1240 286 1240 q 489 1212 436 1240 q 582 1183 542 1183 q 629 1233 629 1183 l 719 1233 q 618 1094 719 1094 z "},"Ṹ":{"ha":1006,"x_min":100,"x_max":906,"o":"m 503 -19 q 199 97 297 -19 q 100 413 100 213 l 100 972 l 232 972 l 232 449 q 251 280 232 360 q 329 150 271 200 q 503 100 388 100 q 676 151 618 100 q 754 281 735 201 q 774 449 774 361 l 774 972 l 906 972 l 906 413 q 807 97 906 213 q 503 -19 708 -19 m 618 1094 q 517 1123 569 1094 q 424 1151 464 1151 q 376 1101 376 1151 l 286 1101 q 388 1240 286 1240 q 489 1212 436 1240 q 582 1183 542 1183 q 629 1233 629 1183 l 719 1233 q 618 1094 719 1094 m 374 1306 l 374 1386 l 633 1518 l 633 1386 l 374 1306 z "},"V":{"ha":847,"x_min":6,"x_max":842,"o":"m 354 0 l 6 972 l 144 972 l 443 129 l 404 129 l 703 972 l 842 972 l 493 0 l 354 0 z "},"W":{"ha":1314,"x_min":6,"x_max":1308,"o":"m 281 0 l 6 972 l 144 972 l 350 171 l 588 953 l 726 953 l 964 171 l 1169 972 l 1308 972 l 1033 0 l 893 0 l 657 782 l 421 0 l 281 0 z "},"Ẃ":{"ha":1314,"x_min":6,"x_max":1308,"o":"m 281 0 l 6 972 l 144 972 l 350 171 l 588 953 l 726 953 l 964 171 l 1169 972 l 1308 972 l 1033 0 l 893 0 l 657 782 l 421 0 l 281 0 m 532 1061 l 532 1142 l 792 1274 l 792 1142 l 532 1061 z "},"Ŵ":{"ha":1314,"x_min":6,"x_max":1308,"o":"m 281 0 l 6 972 l 144 972 l 350 171 l 588 953 l 726 953 l 964 171 l 1169 972 l 1308 972 l 1033 0 l 893 0 l 657 782 l 421 0 l 281 0 m 485 1046 l 485 1131 l 661 1256 l 838 1131 l 838 1046 l 661 1138 l 485 1046 z "},"Ẅ":{"ha":1314,"x_min":6,"x_max":1308,"o":"m 281 0 l 6 972 l 144 972 l 350 171 l 588 953 l 726 953 l 964 171 l 1169 972 l 1308 972 l 1033 0 l 893 0 l 657 782 l 421 0 l 281 0 m 468 1103 l 468 1207 l 588 1207 l 588 1103 l 468 1103 m 735 1103 l 735 1207 l 854 1207 l 854 1103 l 735 1103 z "},"Ẁ":{"ha":1314,"x_min":6,"x_max":1308,"o":"m 281 0 l 6 972 l 144 972 l 350 171 l 588 953 l 726 953 l 964 171 l 1169 972 l 1308 972 l 1033 0 l 893 0 l 657 782 l 421 0 l 281 0 m 790 1061 l 531 1142 l 531 1274 l 790 1142 l 790 1061 z "},"X":{"ha":824,"x_min":6,"x_max":818,"o":"m 6 0 l 336 490 l 11 972 l 164 972 l 413 604 l 660 972 l 813 972 l 489 490 l 818 0 l 665 0 l 413 376 l 158 0 l 6 0 z "},"Y":{"ha":788,"x_min":-15,"x_max":801,"o":"m 328 0 l 328 421 l -15 972 l 135 972 l 424 500 l 363 500 l 651 972 l 801 972 l 460 421 l 460 0 l 328 0 z "},"Ý":{"ha":788,"x_min":-15,"x_max":801,"o":"m 328 0 l 328 421 l -15 972 l 135 972 l 424 500 l 363 500 l 651 972 l 801 972 l 460 421 l 460 0 l 328 0 m 264 1061 l 264 1142 l 524 1274 l 524 1142 l 264 1061 z "},"Ŷ":{"ha":788,"x_min":-15,"x_max":801,"o":"m 328 0 l 328 421 l -15 972 l 135 972 l 424 500 l 363 500 l 651 972 l 801 972 l 460 421 l 460 0 l 328 0 m 217 1046 l 217 1131 l 393 1256 l 569 1131 l 569 1046 l 393 1138 l 217 1046 z "},"Ÿ":{"ha":788,"x_min":-15,"x_max":801,"o":"m 328 0 l 328 421 l -15 972 l 135 972 l 424 500 l 363 500 l 651 972 l 801 972 l 460 421 l 460 0 l 328 0 m 200 1103 l 200 1207 l 319 1207 l 319 1103 l 200 1103 m 467 1103 l 467 1207 l 586 1207 l 586 1103 l 467 1103 z "},"Ẏ":{"ha":788,"x_min":-15,"x_max":801,"o":"m 328 0 l 328 421 l -15 972 l 135 972 l 424 500 l 363 500 l 651 972 l 801 972 l 460 421 l 460 0 l 328 0 m 326 1099 l 326 1224 l 460 1224 l 460 1099 l 326 1099 z "},"Ỵ":{"ha":788,"x_min":-15,"x_max":801,"o":"m 328 0 l 328 421 l -15 972 l 135 972 l 424 500 l 363 500 l 651 972 l 801 972 l 460 421 l 460 0 l 328 0 z "},"Ỳ":{"ha":788,"x_min":-15,"x_max":801,"o":"m 328 0 l 328 421 l -15 972 l 135 972 l 424 500 l 363 500 l 651 972 l 801 972 l 460 421 l 460 0 l 328 0 m 522 1061 l 263 1142 l 263 1274 l 522 1142 l 522 1061 z "},"Ỷ":{"ha":788,"x_min":-15,"x_max":801,"o":"m 328 0 l 328 421 l -15 972 l 135 972 l 424 500 l 363 500 l 651 972 l 801 972 l 460 421 l 460 0 l 328 0 m 392 1056 l 379 1111 q 428 1165 428 1128 q 371 1210 428 1210 q 283 1183 333 1210 l 260 1254 q 371 1281 308 1281 q 468 1253 428 1281 q 508 1174 508 1225 q 392 1056 508 1082 z "},"Ȳ":{"ha":788,"x_min":-15,"x_max":801,"o":"m 328 0 l 328 421 l -15 972 l 135 972 l 424 500 l 363 500 l 651 972 l 801 972 l 460 421 l 460 0 l 328 0 m 171 1101 l 171 1196 l 615 1196 l 615 1101 l 171 1101 z "},"Ỹ":{"ha":788,"x_min":-15,"x_max":801,"o":"m 328 0 l 328 421 l -15 972 l 135 972 l 424 500 l 363 500 l 651 972 l 801 972 l 460 421 l 460 0 l 328 0 m 508 1094 q 407 1123 460 1094 q 314 1151 354 1151 q 267 1101 267 1151 l 176 1101 q 278 1240 176 1240 q 379 1212 326 1240 q 472 1183 432 1183 q 519 1233 519 1183 l 610 1233 q 508 1094 610 1094 z "},"Z":{"ha":763,"x_min":13,"x_max":753,"o":"m 13 0 l 569 903 l 594 853 l 75 853 l 75 972 l 753 972 l 193 69 l 169 119 l 746 119 l 746 0 l 13 0 z "},"Ź":{"ha":763,"x_min":13,"x_max":753,"o":"m 13 0 l 569 903 l 594 853 l 75 853 l 75 972 l 753 972 l 193 69 l 169 119 l 746 119 l 746 0 l 13 0 m 285 1061 l 285 1142 l 544 1274 l 544 1142 l 285 1061 z "},"Ž":{"ha":763,"x_min":13,"x_max":753,"o":"m 13 0 l 569 903 l 594 853 l 75 853 l 75 972 l 753 972 l 193 69 l 169 119 l 746 119 l 746 0 l 13 0 z "},"Ż":{"ha":763,"x_min":13,"x_max":753,"o":"m 13 0 l 569 903 l 594 853 l 75 853 l 75 972 l 753 972 l 193 69 l 169 119 l 746 119 l 746 0 l 13 0 m 347 1099 l 347 1224 l 481 1224 l 481 1099 l 347 1099 z "},"Ẓ":{"ha":763,"x_min":13,"x_max":753,"o":"m 13 0 l 569 903 l 594 853 l 75 853 l 75 972 l 753 972 l 193 69 l 169 119 l 746 119 l 746 0 l 13 0 z "},"a":{"ha":667,"x_min":33,"x_max":656,"o":"m 243 -14 q 91 42 149 -14 q 33 183 33 97 q 99 331 33 279 q 258 404 164 383 q 440 426 353 425 q 402 553 440 524 q 292 583 364 583 q 210 572 253 583 q 113 522 167 560 l 94 624 q 196 675 135 656 q 325 694 257 694 q 510 624 454 694 q 565 368 565 553 l 565 229 q 577 121 565 156 q 643 86 589 86 l 656 86 l 636 -14 l 626 -14 q 504 13 536 -14 q 451 86 472 39 q 360 14 413 42 q 243 -14 308 -14 m 267 86 q 363 111 317 86 q 440 178 410 136 l 440 340 q 226 301 292 335 q 161 190 161 267 q 190 110 161 135 q 267 86 219 86 z "},"á":{"ha":667,"x_min":33,"x_max":656,"o":"m 243 -14 q 91 42 149 -14 q 33 183 33 97 q 99 331 33 279 q 258 404 164 383 q 440 426 353 425 q 402 553 440 524 q 292 583 364 583 q 210 572 253 583 q 113 522 167 560 l 94 624 q 196 675 135 656 q 325 694 257 694 q 510 624 454 694 q 565 368 565 553 l 565 229 q 577 121 565 156 q 643 86 589 86 l 656 86 l 636 -14 l 626 -14 q 504 13 536 -14 q 451 86 472 39 q 360 14 413 42 q 243 -14 308 -14 m 267 86 q 363 111 317 86 q 440 178 410 136 l 440 340 q 226 301 292 335 q 161 190 161 267 q 190 110 161 135 q 267 86 219 86 m 196 800 l 196 885 l 456 1038 l 456 901 l 196 800 z "},"ă":{"ha":667,"x_min":33,"x_max":656,"o":"m 243 -14 q 91 42 149 -14 q 33 183 33 97 q 99 331 33 279 q 258 404 164 383 q 440 426 353 425 q 402 553 440 524 q 292 583 364 583 q 210 572 253 583 q 113 522 167 560 l 94 624 q 196 675 135 656 q 325 694 257 694 q 510 624 454 694 q 565 368 565 553 l 565 229 q 577 121 565 156 q 643 86 589 86 l 656 86 l 636 -14 l 626 -14 q 504 13 536 -14 q 451 86 472 39 q 360 14 413 42 q 243 -14 308 -14 m 267 86 q 363 111 317 86 q 440 178 410 136 l 440 340 q 226 301 292 335 q 161 190 161 267 q 190 110 161 135 q 267 86 219 86 m 325 800 q 172 854 221 800 q 122 976 122 908 l 233 976 q 260 913 233 933 q 325 892 288 892 q 390 913 363 892 q 417 976 417 933 l 528 976 q 478 854 528 908 q 325 800 429 800 z "},"ắ":{"ha":667,"x_min":33,"x_max":656,"o":"m 243 -14 q 91 42 149 -14 q 33 183 33 97 q 99 331 33 279 q 258 404 164 383 q 440 426 353 425 q 402 553 440 524 q 292 583 364 583 q 210 572 253 583 q 113 522 167 560 l 94 624 q 196 675 135 656 q 325 694 257 694 q 510 624 454 694 q 565 368 565 553 l 565 229 q 577 121 565 156 q 643 86 589 86 l 656 86 l 636 -14 l 626 -14 q 504 13 536 -14 q 451 86 472 39 q 360 14 413 42 q 243 -14 308 -14 m 267 86 q 363 111 317 86 q 440 178 410 136 l 440 340 q 226 301 292 335 q 161 190 161 267 q 190 110 161 135 q 267 86 219 86 m 325 769 q 172 821 221 769 q 122 936 122 872 l 233 936 q 260 876 233 896 q 325 856 288 856 q 390 876 363 856 q 417 936 417 896 l 528 936 q 478 821 528 872 q 325 769 429 769 m 196 997 l 196 1078 l 456 1210 l 456 1078 l 196 997 z "},"ặ":{"ha":667,"x_min":33,"x_max":656,"o":"m 243 -14 q 91 42 149 -14 q 33 183 33 97 q 99 331 33 279 q 258 404 164 383 q 440 426 353 425 q 402 553 440 524 q 292 583 364 583 q 210 572 253 583 q 113 522 167 560 l 94 624 q 196 675 135 656 q 325 694 257 694 q 510 624 454 694 q 565 368 565 553 l 565 229 q 577 121 565 156 q 643 86 589 86 l 656 86 l 636 -14 l 626 -14 q 504 13 536 -14 q 451 86 472 39 q 360 14 413 42 q 243 -14 308 -14 m 267 86 q 363 111 317 86 q 440 178 410 136 l 440 340 q 226 301 292 335 q 161 190 161 267 q 190 110 161 135 q 267 86 219 86 m 325 800 q 172 854 221 800 q 122 976 122 908 l 233 976 q 260 913 233 933 q 325 892 288 892 q 390 913 363 892 q 417 976 417 933 l 528 976 q 478 854 528 908 q 325 800 429 800 z "},"ằ":{"ha":667,"x_min":33,"x_max":656,"o":"m 243 -14 q 91 42 149 -14 q 33 183 33 97 q 99 331 33 279 q 258 404 164 383 q 440 426 353 425 q 402 553 440 524 q 292 583 364 583 q 210 572 253 583 q 113 522 167 560 l 94 624 q 196 675 135 656 q 325 694 257 694 q 510 624 454 694 q 565 368 565 553 l 565 229 q 577 121 565 156 q 643 86 589 86 l 656 86 l 636 -14 l 626 -14 q 504 13 536 -14 q 451 86 472 39 q 360 14 413 42 q 243 -14 308 -14 m 267 86 q 363 111 317 86 q 440 178 410 136 l 440 340 q 226 301 292 335 q 161 190 161 267 q 190 110 161 135 q 267 86 219 86 m 325 768 q 172 819 221 768 q 122 935 122 871 l 233 935 q 260 874 233 894 q 325 854 288 854 q 390 874 363 854 q 417 935 417 894 l 528 935 q 478 819 528 871 q 325 768 429 768 m 454 996 l 194 1076 l 194 1208 l 454 1076 l 454 996 z "},"ẳ":{"ha":667,"x_min":33,"x_max":656,"o":"m 243 -14 q 91 42 149 -14 q 33 183 33 97 q 99 331 33 279 q 258 404 164 383 q 440 426 353 425 q 402 553 440 524 q 292 583 364 583 q 210 572 253 583 q 113 522 167 560 l 94 624 q 196 675 135 656 q 325 694 257 694 q 510 624 454 694 q 565 368 565 553 l 565 229 q 577 121 565 156 q 643 86 589 86 l 656 86 l 636 -14 l 626 -14 q 504 13 536 -14 q 451 86 472 39 q 360 14 413 42 q 243 -14 308 -14 m 267 86 q 363 111 317 86 q 440 178 410 136 l 440 340 q 226 301 292 335 q 161 190 161 267 q 190 110 161 135 q 267 86 219 86 m 325 769 q 172 821 221 769 q 122 936 122 872 l 233 936 q 260 876 233 896 q 325 856 288 856 q 390 876 363 856 q 417 936 417 896 l 528 936 q 478 821 528 872 q 325 769 429 769 m 338 958 l 325 1014 q 374 1068 374 1031 q 317 1113 374 1113 q 229 1086 279 1113 l 206 1157 q 317 1183 254 1183 q 414 1156 374 1183 q 454 1076 454 1128 q 338 958 454 985 z "},"ẵ":{"ha":667,"x_min":33,"x_max":656,"o":"m 243 -14 q 91 42 149 -14 q 33 183 33 97 q 99 331 33 279 q 258 404 164 383 q 440 426 353 425 q 402 553 440 524 q 292 583 364 583 q 210 572 253 583 q 113 522 167 560 l 94 624 q 196 675 135 656 q 325 694 257 694 q 510 624 454 694 q 565 368 565 553 l 565 229 q 577 121 565 156 q 643 86 589 86 l 656 86 l 636 -14 l 626 -14 q 504 13 536 -14 q 451 86 472 39 q 360 14 413 42 q 243 -14 308 -14 m 267 86 q 363 111 317 86 q 440 178 410 136 l 440 340 q 226 301 292 335 q 161 190 161 267 q 190 110 161 135 q 267 86 219 86 m 325 769 q 172 821 221 769 q 122 936 122 872 l 233 936 q 260 876 233 896 q 325 856 288 856 q 390 876 363 856 q 417 936 417 896 l 528 936 q 478 821 528 872 q 325 769 429 769 m 440 1001 q 339 1030 392 1001 q 246 1058 286 1058 q 199 1008 199 1058 l 108 1008 q 210 1147 108 1147 q 311 1119 258 1147 q 404 1090 364 1090 q 451 1140 451 1090 l 542 1140 q 440 1001 542 1001 z "},"â":{"ha":667,"x_min":33,"x_max":656,"o":"m 243 -14 q 91 42 149 -14 q 33 183 33 97 q 99 331 33 279 q 258 404 164 383 q 440 426 353 425 q 402 553 440 524 q 292 583 364 583 q 210 572 253 583 q 113 522 167 560 l 94 624 q 196 675 135 656 q 325 694 257 694 q 510 624 454 694 q 565 368 565 553 l 565 229 q 577 121 565 156 q 643 86 589 86 l 656 86 l 636 -14 l 626 -14 q 504 13 536 -14 q 451 86 472 39 q 360 14 413 42 q 243 -14 308 -14 m 267 86 q 363 111 317 86 q 440 178 410 136 l 440 340 q 226 301 292 335 q 161 190 161 267 q 190 110 161 135 q 267 86 219 86 m 149 783 l 149 868 l 325 1021 l 501 868 l 501 783 l 325 894 l 149 783 z "},"ấ":{"ha":667,"x_min":33,"x_max":657,"o":"m 243 -14 q 91 42 149 -14 q 33 183 33 97 q 99 331 33 279 q 258 404 164 383 q 440 426 353 425 q 402 553 440 524 q 292 583 364 583 q 210 572 253 583 q 113 522 167 560 l 94 624 q 196 675 135 656 q 325 694 257 694 q 510 624 454 694 q 565 368 565 553 l 565 229 q 577 121 565 156 q 643 86 589 86 l 656 86 l 636 -14 l 626 -14 q 504 13 536 -14 q 451 86 472 39 q 360 14 413 42 q 243 -14 308 -14 m 267 86 q 363 111 317 86 q 440 178 410 136 l 440 340 q 226 301 292 335 q 161 190 161 267 q 190 110 161 135 q 267 86 219 86 m 149 754 l 149 839 l 325 964 l 501 839 l 501 754 l 325 846 l 149 754 m 429 957 l 521 1119 l 657 1119 l 521 957 l 429 957 z "},"ậ":{"ha":667,"x_min":33,"x_max":656,"o":"m 243 -14 q 91 42 149 -14 q 33 183 33 97 q 99 331 33 279 q 258 404 164 383 q 440 426 353 425 q 402 553 440 524 q 292 583 364 583 q 210 572 253 583 q 113 522 167 560 l 94 624 q 196 675 135 656 q 325 694 257 694 q 510 624 454 694 q 565 368 565 553 l 565 229 q 577 121 565 156 q 643 86 589 86 l 656 86 l 636 -14 l 626 -14 q 504 13 536 -14 q 451 86 472 39 q 360 14 413 42 q 243 -14 308 -14 m 267 86 q 363 111 317 86 q 440 178 410 136 l 440 340 q 226 301 292 335 q 161 190 161 267 q 190 110 161 135 q 267 86 219 86 m 149 783 l 149 868 l 325 1021 l 501 868 l 501 783 l 325 894 l 149 783 z "},"ầ":{"ha":667,"x_min":33,"x_max":656,"o":"m 243 -14 q 91 42 149 -14 q 33 183 33 97 q 99 331 33 279 q 258 404 164 383 q 440 426 353 425 q 402 553 440 524 q 292 583 364 583 q 210 572 253 583 q 113 522 167 560 l 94 624 q 196 675 135 656 q 325 694 257 694 q 510 624 454 694 q 565 368 565 553 l 565 229 q 577 121 565 156 q 643 86 589 86 l 656 86 l 636 -14 l 626 -14 q 504 13 536 -14 q 451 86 472 39 q 360 14 413 42 q 243 -14 308 -14 m 267 86 q 363 111 317 86 q 440 178 410 136 l 440 340 q 226 301 292 335 q 161 190 161 267 q 190 110 161 135 q 267 86 219 86 m 149 754 l 149 839 l 325 964 l 501 839 l 501 754 l 325 846 l 149 754 m 449 957 l 328 1119 l 460 1119 l 538 957 l 449 957 z "},"ẩ":{"ha":667,"x_min":33,"x_max":656,"o":"m 243 -14 q 91 42 149 -14 q 33 183 33 97 q 99 331 33 279 q 258 404 164 383 q 440 426 353 425 q 402 553 440 524 q 292 583 364 583 q 210 572 253 583 q 113 522 167 560 l 94 624 q 196 675 135 656 q 325 694 257 694 q 510 624 454 694 q 565 368 565 553 l 565 229 q 577 121 565 156 q 643 86 589 86 l 656 86 l 636 -14 l 626 -14 q 504 13 536 -14 q 451 86 472 39 q 360 14 413 42 q 243 -14 308 -14 m 267 86 q 363 111 317 86 q 440 178 410 136 l 440 340 q 226 301 292 335 q 161 190 161 267 q 190 110 161 135 q 267 86 219 86 m 149 754 l 149 839 l 325 964 l 501 839 l 501 754 l 325 846 l 149 754 m 458 919 l 446 975 q 494 1029 494 992 q 438 1074 494 1074 q 350 1047 400 1074 l 326 1118 q 438 1144 375 1144 q 535 1117 494 1144 q 575 1038 575 1089 q 458 919 575 946 z "},"ẫ":{"ha":667,"x_min":33,"x_max":656,"o":"m 243 -14 q 91 42 149 -14 q 33 183 33 97 q 99 331 33 279 q 258 404 164 383 q 440 426 353 425 q 402 553 440 524 q 292 583 364 583 q 210 572 253 583 q 113 522 167 560 l 94 624 q 196 675 135 656 q 325 694 257 694 q 510 624 454 694 q 565 368 565 553 l 565 229 q 577 121 565 156 q 643 86 589 86 l 656 86 l 636 -14 l 626 -14 q 504 13 536 -14 q 451 86 472 39 q 360 14 413 42 q 243 -14 308 -14 m 267 86 q 363 111 317 86 q 440 178 410 136 l 440 340 q 226 301 292 335 q 161 190 161 267 q 190 110 161 135 q 267 86 219 86 m 149 754 l 149 839 l 325 964 l 501 839 l 501 754 l 325 846 l 149 754 m 440 1021 q 339 1049 392 1021 q 246 1078 286 1078 q 199 1028 199 1078 l 108 1028 q 210 1167 108 1167 q 311 1138 258 1167 q 404 1110 364 1110 q 451 1160 451 1110 l 542 1160 q 440 1021 542 1021 z "},"ȁ":{"ha":667,"x_min":33,"x_max":656,"o":"m 243 -14 q 91 42 149 -14 q 33 183 33 97 q 99 331 33 279 q 258 404 164 383 q 440 426 353 425 q 402 553 440 524 q 292 583 364 583 q 210 572 253 583 q 113 522 167 560 l 94 624 q 196 675 135 656 q 325 694 257 694 q 510 624 454 694 q 565 368 565 553 l 565 229 q 577 121 565 156 q 643 86 589 86 l 656 86 l 636 -14 l 626 -14 q 504 13 536 -14 q 451 86 472 39 q 360 14 413 42 q 243 -14 308 -14 m 267 86 q 363 111 317 86 q 440 178 410 136 l 440 340 q 226 301 292 335 q 161 190 161 267 q 190 110 161 135 q 267 86 219 86 m 469 803 l 378 803 l 242 1035 l 378 1035 l 469 803 m 275 803 l 183 803 l 40 1035 l 176 1035 l 275 803 z "},"ä":{"ha":667,"x_min":33,"x_max":656,"o":"m 243 -14 q 91 42 149 -14 q 33 183 33 97 q 99 331 33 279 q 258 404 164 383 q 440 426 353 425 q 402 553 440 524 q 292 583 364 583 q 210 572 253 583 q 113 522 167 560 l 94 624 q 196 675 135 656 q 325 694 257 694 q 510 624 454 694 q 565 368 565 553 l 565 229 q 577 121 565 156 q 643 86 589 86 l 656 86 l 636 -14 l 626 -14 q 504 13 536 -14 q 451 86 472 39 q 360 14 413 42 q 243 -14 308 -14 m 267 86 q 363 111 317 86 q 440 178 410 136 l 440 340 q 226 301 292 335 q 161 190 161 267 q 190 110 161 135 q 267 86 219 86 m 399 821 l 399 932 l 518 932 l 518 821 l 399 821 m 132 821 l 132 932 l 251 932 l 251 821 l 132 821 z "},"ạ":{"ha":667,"x_min":33,"x_max":656,"o":"m 243 -14 q 91 42 149 -14 q 33 183 33 97 q 99 331 33 279 q 258 404 164 383 q 440 426 353 425 q 402 553 440 524 q 292 583 364 583 q 210 572 253 583 q 113 522 167 560 l 94 624 q 196 675 135 656 q 325 694 257 694 q 510 624 454 694 q 565 368 565 553 l 565 229 q 577 121 565 156 q 643 86 589 86 l 656 86 l 636 -14 l 626 -14 q 504 13 536 -14 q 451 86 472 39 q 360 14 413 42 q 243 -14 308 -14 m 267 86 q 363 111 317 86 q 440 178 410 136 l 440 340 q 226 301 292 335 q 161 190 161 267 q 190 110 161 135 q 267 86 219 86 z "},"à":{"ha":667,"x_min":33,"x_max":656,"o":"m 243 -14 q 91 42 149 -14 q 33 183 33 97 q 99 331 33 279 q 258 404 164 383 q 440 426 353 425 q 402 553 440 524 q 292 583 364 583 q 210 572 253 583 q 113 522 167 560 l 94 624 q 196 675 135 656 q 325 694 257 694 q 510 624 454 694 q 565 368 565 553 l 565 229 q 577 121 565 156 q 643 86 589 86 l 656 86 l 636 -14 l 626 -14 q 504 13 536 -14 q 451 86 472 39 q 360 14 413 42 q 243 -14 308 -14 m 267 86 q 363 111 317 86 q 440 178 410 136 l 440 340 q 226 301 292 335 q 161 190 161 267 q 190 110 161 135 q 267 86 219 86 m 454 800 l 194 901 l 194 1038 l 454 885 l 454 800 z "},"ả":{"ha":667,"x_min":33,"x_max":656,"o":"m 243 -14 q 91 42 149 -14 q 33 183 33 97 q 99 331 33 279 q 258 404 164 383 q 440 426 353 425 q 402 553 440 524 q 292 583 364 583 q 210 572 253 583 q 113 522 167 560 l 94 624 q 196 675 135 656 q 325 694 257 694 q 510 624 454 694 q 565 368 565 553 l 565 229 q 577 121 565 156 q 643 86 589 86 l 656 86 l 636 -14 l 626 -14 q 504 13 536 -14 q 451 86 472 39 q 360 14 413 42 q 243 -14 308 -14 m 267 86 q 363 111 317 86 q 440 178 410 136 l 440 340 q 226 301 292 335 q 161 190 161 267 q 190 110 161 135 q 267 86 219 86 m 346 729 l 299 775 q 345 825 331 807 q 360 868 360 843 q 303 918 360 918 q 215 892 265 918 l 192 963 q 303 989 240 989 q 400 958 360 989 q 440 872 440 928 q 417 797 440 828 q 346 729 394 765 z "},"ȃ":{"ha":667,"x_min":33,"x_max":656,"o":"m 243 -14 q 91 42 149 -14 q 33 183 33 97 q 99 331 33 279 q 258 404 164 383 q 440 426 353 425 q 402 553 440 524 q 292 583 364 583 q 210 572 253 583 q 113 522 167 560 l 94 624 q 196 675 135 656 q 325 694 257 694 q 510 624 454 694 q 565 368 565 553 l 565 229 q 577 121 565 156 q 643 86 589 86 l 656 86 l 636 -14 l 626 -14 q 504 13 536 -14 q 451 86 472 39 q 360 14 413 42 q 243 -14 308 -14 m 267 86 q 363 111 317 86 q 440 178 410 136 l 440 340 q 226 301 292 335 q 161 190 161 267 q 190 110 161 135 q 267 86 219 86 m 325 976 q 478 923 429 976 q 528 800 528 869 l 417 800 q 390 864 417 843 q 325 885 363 885 q 260 864 288 885 q 233 800 233 843 l 122 800 q 172 923 122 869 q 325 976 221 976 z "},"ā":{"ha":667,"x_min":33,"x_max":656,"o":"m 243 -14 q 91 42 149 -14 q 33 183 33 97 q 99 331 33 279 q 258 404 164 383 q 440 426 353 425 q 402 553 440 524 q 292 583 364 583 q 210 572 253 583 q 113 522 167 560 l 94 624 q 196 675 135 656 q 325 694 257 694 q 510 624 454 694 q 565 368 565 553 l 565 229 q 577 121 565 156 q 643 86 589 86 l 656 86 l 636 -14 l 626 -14 q 504 13 536 -14 q 451 86 472 39 q 360 14 413 42 q 243 -14 308 -14 m 267 86 q 363 111 317 86 q 440 178 410 136 l 440 340 q 226 301 292 335 q 161 190 161 267 q 190 110 161 135 q 267 86 219 86 m 103 821 l 103 919 l 547 919 l 547 821 l 103 821 z "},"ą":{"ha":667,"x_min":33,"x_max":690,"o":"m 243 -14 q 91 42 149 -14 q 33 183 33 97 q 99 331 33 279 q 258 404 164 383 q 440 426 353 425 q 402 553 440 524 q 292 583 364 583 q 210 572 253 583 q 113 522 167 560 l 94 624 q 196 675 135 656 q 325 694 257 694 q 510 624 454 694 q 565 368 565 553 l 565 229 q 577 121 565 156 q 643 86 589 86 l 656 86 l 636 -14 l 626 -14 q 504 13 536 -14 q 451 86 472 39 q 360 14 413 42 q 243 -14 308 -14 m 267 86 q 363 111 317 86 q 440 178 410 136 l 440 340 q 226 301 292 335 q 161 190 161 267 q 190 110 161 135 q 267 86 219 86 m 550 0 l 624 0 q 545 -73 575 -37 q 515 -147 515 -108 q 582 -218 515 -218 q 669 -194 626 -218 l 690 -262 q 642 -281 671 -272 q 575 -289 613 -289 q 476 -258 517 -289 q 435 -169 435 -228 q 472 -69 435 -114 q 550 0 508 -24 z "},"å":{"ha":667,"x_min":33,"x_max":656,"o":"m 243 -14 q 91 42 149 -14 q 33 183 33 97 q 99 331 33 279 q 258 404 164 383 q 440 426 353 425 q 402 553 440 524 q 292 583 364 583 q 210 572 253 583 q 113 522 167 560 l 94 624 q 196 675 135 656 q 325 694 257 694 q 510 624 454 694 q 565 368 565 553 l 565 229 q 577 121 565 156 q 643 86 589 86 l 656 86 l 636 -14 l 626 -14 q 504 13 536 -14 q 451 86 472 39 q 360 14 413 42 q 243 -14 308 -14 m 267 86 q 363 111 317 86 q 440 178 410 136 l 440 340 q 226 301 292 335 q 161 190 161 267 q 190 110 161 135 q 267 86 219 86 m 325 789 q 217 831 253 789 q 181 928 181 874 q 217 1024 181 981 q 325 1067 254 1067 q 433 1024 397 1067 q 469 928 469 981 q 433 831 469 874 q 325 789 397 789 m 325 850 q 379 871 356 850 q 403 928 403 892 q 379 984 403 963 q 325 1006 356 1006 q 271 984 294 1006 q 247 928 247 963 q 271 871 247 892 q 325 850 294 850 z "},"ǻ":{"ha":667,"x_min":33,"x_max":656,"o":"m 243 -14 q 91 42 149 -14 q 33 183 33 97 q 99 331 33 279 q 258 404 164 383 q 440 426 353 425 q 402 553 440 524 q 292 583 364 583 q 210 572 253 583 q 113 522 167 560 l 94 624 q 196 675 135 656 q 325 694 257 694 q 510 624 454 694 q 565 368 565 553 l 565 229 q 577 121 565 156 q 643 86 589 86 l 656 86 l 636 -14 l 626 -14 q 504 13 536 -14 q 451 86 472 39 q 360 14 413 42 q 243 -14 308 -14 m 267 86 q 363 111 317 86 q 440 178 410 136 l 440 340 q 226 301 292 335 q 161 190 161 267 q 190 110 161 135 q 267 86 219 86 m 325 789 q 217 831 253 789 q 181 928 181 874 q 217 1024 181 981 q 325 1067 254 1067 q 433 1024 397 1067 q 469 928 469 981 q 433 831 469 874 q 325 789 397 789 m 325 850 q 379 871 356 850 q 403 928 403 892 q 379 984 403 963 q 325 1006 356 1006 q 271 984 294 1006 q 247 928 247 963 q 271 871 247 892 q 325 850 294 850 m 196 1121 l 196 1201 l 456 1333 l 456 1201 l 196 1121 z "},"ã":{"ha":667,"x_min":33,"x_max":656,"o":"m 243 -14 q 91 42 149 -14 q 33 183 33 97 q 99 331 33 279 q 258 404 164 383 q 440 426 353 425 q 402 553 440 524 q 292 583 364 583 q 210 572 253 583 q 113 522 167 560 l 94 624 q 196 675 135 656 q 325 694 257 694 q 510 624 454 694 q 565 368 565 553 l 565 229 q 577 121 565 156 q 643 86 589 86 l 656 86 l 636 -14 l 626 -14 q 504 13 536 -14 q 451 86 472 39 q 360 14 413 42 q 243 -14 308 -14 m 267 86 q 363 111 317 86 q 440 178 410 136 l 440 340 q 226 301 292 335 q 161 190 161 267 q 190 110 161 135 q 267 86 219 86 m 436 806 q 336 838 383 806 q 246 871 289 871 q 199 817 199 871 l 94 817 q 214 971 101 971 q 314 938 267 971 q 404 906 361 906 q 451 960 451 906 l 556 960 q 436 806 549 806 z "},"æ":{"ha":1083,"x_min":33,"x_max":1042,"o":"m 257 -14 q 94 42 156 -14 q 33 183 33 97 q 106 338 33 286 q 283 408 179 390 q 479 426 386 426 l 913 426 q 876 538 913 493 q 761 583 839 583 q 626 526 678 583 q 575 358 575 469 q 647 154 575 211 q 813 97 719 97 q 901 108 856 97 q 994 138 946 118 l 1011 39 q 919 1 972 17 q 797 -14 867 -14 q 534 92 625 -14 q 443 346 443 199 l 443 407 q 411 538 443 493 q 292 583 379 583 q 210 572 253 583 q 113 522 167 560 l 94 624 q 196 675 135 656 q 325 694 257 694 q 479 654 424 694 q 554 514 535 614 l 488 506 q 597 642 522 589 q 772 694 671 694 q 971 613 900 694 q 1042 407 1042 531 q 1040 375 1042 392 q 1036 340 1039 358 l 456 340 q 229 303 297 340 q 161 190 161 267 q 194 110 161 135 q 281 86 228 86 q 399 119 344 86 q 489 213 453 153 l 531 154 q 417 34 492 82 q 257 -14 343 -14 z "},"ǽ":{"ha":1083,"x_min":33,"x_max":1042,"o":"m 257 -14 q 94 42 156 -14 q 33 183 33 97 q 106 338 33 286 q 283 408 179 390 q 479 426 386 426 l 913 426 q 876 538 913 493 q 761 583 839 583 q 626 526 678 583 q 575 358 575 469 q 647 154 575 211 q 813 97 719 97 q 901 108 856 97 q 994 138 946 118 l 1011 39 q 919 1 972 17 q 797 -14 867 -14 q 534 92 625 -14 q 443 346 443 199 l 443 407 q 411 538 443 493 q 292 583 379 583 q 210 572 253 583 q 113 522 167 560 l 94 624 q 196 675 135 656 q 325 694 257 694 q 479 654 424 694 q 554 514 535 614 l 488 506 q 597 642 522 589 q 772 694 671 694 q 971 613 900 694 q 1042 407 1042 531 q 1040 375 1042 392 q 1036 340 1039 358 l 456 340 q 229 303 297 340 q 161 190 161 267 q 194 110 161 135 q 281 86 228 86 q 399 119 344 86 q 489 213 453 153 l 531 154 q 417 34 492 82 q 257 -14 343 -14 m 433 800 l 433 885 l 693 1038 l 693 901 l 433 800 z "},"b":{"ha":771,"x_min":83,"x_max":726,"o":"m 419 -14 q 281 20 347 -14 q 188 122 214 54 l 218 144 l 194 0 l 83 0 l 83 1042 l 208 1042 l 208 547 l 182 567 q 281 658 217 622 q 419 694 346 694 q 644 588 563 694 q 726 340 726 481 q 638 89 726 192 q 419 -14 549 -14 m 404 97 q 547 169 494 97 q 599 340 599 240 q 547 514 599 444 q 404 583 494 583 q 263 524 324 583 q 201 340 201 464 q 263 155 201 213 q 404 97 324 97 z "},"c":{"ha":631,"x_min":46,"x_max":593,"o":"m 397 -14 q 135 88 225 -14 q 46 336 46 190 q 133 592 46 489 q 407 694 221 694 q 508 683 460 694 q 593 654 556 672 l 574 544 q 492 573 535 563 q 404 583 450 583 q 233 519 292 583 q 174 342 174 456 q 230 163 174 231 q 401 96 286 96 q 575 138 492 96 l 592 38 q 510 2 564 18 q 397 -14 457 -14 z "},"ć":{"ha":631,"x_min":46,"x_max":593,"o":"m 397 -14 q 135 88 225 -14 q 46 336 46 190 q 133 592 46 489 q 407 694 221 694 q 508 683 460 694 q 593 654 556 672 l 574 544 q 492 573 535 563 q 404 583 450 583 q 233 519 292 583 q 174 342 174 456 q 230 163 174 231 q 401 96 286 96 q 575 138 492 96 l 592 38 q 510 2 564 18 q 397 -14 457 -14 m 249 800 l 249 885 l 508 1038 l 508 901 l 249 800 z "},"č":{"ha":631,"x_min":46,"x_max":593,"o":"m 397 -14 q 135 88 225 -14 q 46 336 46 190 q 133 592 46 489 q 407 694 221 694 q 508 683 460 694 q 593 654 556 672 l 574 544 q 492 573 535 563 q 404 583 450 583 q 233 519 292 583 q 174 342 174 456 q 230 163 174 231 q 401 96 286 96 q 575 138 492 96 l 592 38 q 510 2 564 18 q 397 -14 457 -14 m 378 775 l 201 928 l 201 1013 l 378 901 l 554 1013 l 554 928 l 378 775 z "},"ç":{"ha":631,"x_min":46,"x_max":593,"o":"m 397 -14 q 135 88 225 -14 q 46 336 46 190 q 133 592 46 489 q 407 694 221 694 q 508 683 460 694 q 593 654 556 672 l 574 544 q 492 573 535 563 q 404 583 450 583 q 233 519 292 583 q 174 342 174 456 q 230 163 174 231 q 401 96 286 96 q 575 138 492 96 l 592 38 q 510 2 564 18 q 397 -14 457 -14 m 372 -110 l 326 -89 q 394 -75 364 -75 q 515 -187 515 -75 q 472 -281 515 -249 q 368 -314 429 -314 q 306 -306 332 -314 q 260 -287 279 -297 l 281 -219 q 323 -237 301 -231 q 368 -243 344 -243 q 435 -190 435 -243 q 365 -135 435 -135 q 301 -146 333 -135 l 338 0 l 407 0 l 372 -110 z "},"ḉ":{"ha":631,"x_min":46,"x_max":593,"o":"m 397 -14 q 135 88 225 -14 q 46 336 46 190 q 133 592 46 489 q 407 694 221 694 q 508 683 460 694 q 593 654 556 672 l 574 544 q 492 573 535 563 q 404 583 450 583 q 233 519 292 583 q 174 342 174 456 q 230 163 174 231 q 401 96 286 96 q 575 138 492 96 l 592 38 q 510 2 564 18 q 397 -14 457 -14 m 372 -110 l 326 -89 q 394 -75 364 -75 q 515 -187 515 -75 q 472 -281 515 -249 q 368 -314 429 -314 q 306 -306 332 -314 q 260 -287 279 -297 l 281 -219 q 323 -237 301 -231 q 368 -243 344 -243 q 435 -190 435 -243 q 365 -135 435 -135 q 301 -146 333 -135 l 338 0 l 407 0 l 372 -110 m 249 800 l 249 885 l 508 1038 l 508 901 l 249 800 z "},"ĉ":{"ha":631,"x_min":46,"x_max":593,"o":"m 397 -14 q 135 88 225 -14 q 46 336 46 190 q 133 592 46 489 q 407 694 221 694 q 508 683 460 694 q 593 654 556 672 l 574 544 q 492 573 535 563 q 404 583 450 583 q 233 519 292 583 q 174 342 174 456 q 230 163 174 231 q 401 96 286 96 q 575 138 492 96 l 592 38 q 510 2 564 18 q 397 -14 457 -14 m 201 783 l 201 868 l 378 1021 l 554 868 l 554 783 l 378 894 l 201 783 z "},"ċ":{"ha":631,"x_min":46,"x_max":593,"o":"m 397 -14 q 135 88 225 -14 q 46 336 46 190 q 133 592 46 489 q 407 694 221 694 q 508 683 460 694 q 593 654 556 672 l 574 544 q 492 573 535 563 q 404 583 450 583 q 233 519 292 583 q 174 342 174 456 q 230 163 174 231 q 401 96 286 96 q 575 138 492 96 l 592 38 q 510 2 564 18 q 397 -14 457 -14 m 311 821 l 311 946 l 444 946 l 444 821 l 311 821 z "},"d":{"ha":771,"x_min":44,"x_max":688,"o":"m 354 -14 q 134 89 224 -14 q 44 339 44 192 q 128 587 44 479 q 354 694 211 694 q 486 665 422 694 q 589 567 550 636 l 563 549 l 563 1042 l 688 1042 l 688 0 l 576 0 l 553 144 l 585 122 q 491 20 554 54 q 354 -14 428 -14 m 376 97 q 512 153 447 97 q 576 339 576 208 q 512 522 576 460 q 376 583 447 583 q 226 514 281 583 q 172 339 172 444 q 226 169 172 240 q 376 97 281 97 z "},"ð":{"ha":718,"x_min":39,"x_max":672,"o":"m 346 -17 q 120 74 201 -17 q 39 285 39 165 q 122 500 39 408 q 338 592 206 592 q 464 561 413 592 q 536 488 515 531 l 524 475 q 431 747 514 622 q 196 908 349 872 l 217 974 q 456 867 353 961 q 615 637 558 774 q 672 357 672 500 q 629 158 672 242 q 513 28 586 74 q 346 -17 439 -17 m 351 99 q 483 153 433 99 q 532 289 532 207 q 483 424 532 371 q 353 476 435 476 q 216 420 265 476 q 167 292 167 364 q 217 156 167 213 q 351 99 267 99 m 242 693 l 196 768 l 549 972 l 593 897 l 242 693 z "},"ď":{"ha":863,"x_min":44,"x_max":888,"o":"m 354 -14 q 134 89 224 -14 q 44 339 44 192 q 128 587 44 479 q 354 694 211 694 q 486 665 422 694 q 589 567 550 636 l 563 549 l 563 1042 l 688 1042 l 688 0 l 576 0 l 553 144 l 585 122 q 491 20 554 54 q 354 -14 428 -14 m 376 97 q 512 153 447 97 q 576 339 576 208 q 512 522 576 460 q 376 583 447 583 q 226 514 281 583 q 172 339 172 444 q 226 169 172 240 q 376 97 281 97 m 757 810 l 757 1042 l 888 1042 l 849 810 l 757 810 z "},"đ":{"ha":771,"x_min":44,"x_max":793,"o":"m 354 815 l 354 913 l 793 913 l 793 815 l 354 815 m 354 -14 q 134 89 224 -14 q 44 339 44 192 q 128 587 44 479 q 354 694 211 694 q 486 665 422 694 q 589 567 550 636 l 563 549 l 563 1042 l 688 1042 l 688 0 l 576 0 l 553 144 l 585 122 q 491 20 554 54 q 354 -14 428 -14 m 376 97 q 512 153 447 97 q 576 339 576 208 q 512 522 576 460 q 376 583 447 583 q 226 514 281 583 q 172 339 172 444 q 226 169 172 240 q 376 97 281 97 z "},"ḍ":{"ha":771,"x_min":44,"x_max":688,"o":"m 354 -14 q 134 89 224 -14 q 44 339 44 192 q 128 587 44 479 q 354 694 211 694 q 486 665 422 694 q 589 567 550 636 l 563 549 l 563 1042 l 688 1042 l 688 0 l 576 0 l 553 144 l 585 122 q 491 20 554 54 q 354 -14 428 -14 m 376 97 q 512 153 447 97 q 576 339 576 208 q 512 522 576 460 q 376 583 447 583 q 226 514 281 583 q 172 339 172 444 q 226 169 172 240 q 376 97 281 97 z "},"ḏ":{"ha":771,"x_min":44,"x_max":688,"o":"m 354 -14 q 134 89 224 -14 q 44 339 44 192 q 128 587 44 479 q 354 694 211 694 q 486 665 422 694 q 589 567 550 636 l 563 549 l 563 1042 l 688 1042 l 688 0 l 576 0 l 553 144 l 585 122 q 491 20 554 54 q 354 -14 428 -14 m 376 97 q 512 153 447 97 q 576 339 576 208 q 512 522 576 460 q 376 583 447 583 q 226 514 281 583 q 172 339 172 444 q 226 169 172 240 q 376 97 281 97 z "},"ǆ":{"ha":1425,"x_min":44,"x_max":1390,"o":"m 354 -14 q 134 89 224 -14 q 44 339 44 192 q 128 587 44 479 q 354 694 211 694 q 486 665 422 694 q 589 567 550 636 l 563 549 l 563 1042 l 688 1042 l 688 0 l 576 0 l 553 144 l 585 122 q 491 20 554 54 q 354 -14 428 -14 m 376 97 q 512 153 447 97 q 576 339 576 208 q 512 522 576 460 q 376 583 447 583 q 226 514 281 583 q 172 339 172 444 q 226 169 172 240 q 376 97 281 97 z "},"e":{"ha":711,"x_min":43,"x_max":669,"o":"m 411 -14 q 137 92 231 -14 q 43 346 43 199 q 131 592 43 489 q 376 694 218 694 q 586 619 503 694 q 669 407 669 544 q 668 375 669 392 q 664 340 667 358 l 171 340 q 257 148 185 199 q 426 97 329 97 q 525 107 474 97 q 622 138 576 117 l 639 39 q 542 3 600 21 q 411 -14 485 -14 m 182 426 l 540 426 q 499 541 540 499 q 374 583 458 583 q 245 542 290 583 q 182 426 200 500 z "},"é":{"ha":711,"x_min":43,"x_max":669,"o":"m 411 -14 q 137 92 231 -14 q 43 346 43 199 q 131 592 43 489 q 376 694 218 694 q 586 619 503 694 q 669 407 669 544 q 668 375 669 392 q 664 340 667 358 l 171 340 q 257 148 185 199 q 426 97 329 97 q 525 107 474 97 q 622 138 576 117 l 639 39 q 542 3 600 21 q 411 -14 485 -14 m 182 426 l 540 426 q 499 541 540 499 q 374 583 458 583 q 245 542 290 583 q 182 426 200 500 m 257 800 l 257 885 l 517 1038 l 517 901 l 257 800 z "},"ĕ":{"ha":711,"x_min":43,"x_max":669,"o":"m 411 -14 q 137 92 231 -14 q 43 346 43 199 q 131 592 43 489 q 376 694 218 694 q 586 619 503 694 q 669 407 669 544 q 668 375 669 392 q 664 340 667 358 l 171 340 q 257 148 185 199 q 426 97 329 97 q 525 107 474 97 q 622 138 576 117 l 639 39 q 542 3 600 21 q 411 -14 485 -14 m 182 426 l 540 426 q 499 541 540 499 q 374 583 458 583 q 245 542 290 583 q 182 426 200 500 m 386 800 q 233 854 282 800 q 183 976 183 908 l 294 976 q 322 913 294 933 q 386 892 349 892 q 451 913 424 892 q 478 976 478 933 l 589 976 q 540 854 589 908 q 386 800 490 800 z "},"ě":{"ha":711,"x_min":43,"x_max":669,"o":"m 411 -14 q 137 92 231 -14 q 43 346 43 199 q 131 592 43 489 q 376 694 218 694 q 586 619 503 694 q 669 407 669 544 q 668 375 669 392 q 664 340 667 358 l 171 340 q 257 148 185 199 q 426 97 329 97 q 525 107 474 97 q 622 138 576 117 l 639 39 q 542 3 600 21 q 411 -14 485 -14 m 182 426 l 540 426 q 499 541 540 499 q 374 583 458 583 q 245 542 290 583 q 182 426 200 500 z "},"ḝ":{"ha":711,"x_min":43,"x_max":669,"o":"m 411 -14 q 137 92 231 -14 q 43 346 43 199 q 131 592 43 489 q 376 694 218 694 q 586 619 503 694 q 669 407 669 544 q 668 375 669 392 q 664 340 667 358 l 171 340 q 257 148 185 199 q 426 97 329 97 q 525 107 474 97 q 622 138 576 117 l 639 39 q 542 3 600 21 q 411 -14 485 -14 m 182 426 l 540 426 q 499 541 540 499 q 374 583 458 583 q 245 542 290 583 q 182 426 200 500 m 360 -110 l 314 -89 q 382 -75 351 -75 q 503 -187 503 -75 q 460 -281 503 -249 q 356 -314 417 -314 q 293 -306 319 -314 q 247 -287 267 -297 l 268 -219 q 310 -237 289 -231 q 356 -243 332 -243 q 422 -190 422 -243 q 353 -135 422 -135 q 289 -146 321 -135 l 325 0 l 394 0 l 360 -110 m 386 800 q 233 854 282 800 q 183 976 183 908 l 294 976 q 322 913 294 933 q 386 892 349 892 q 451 913 424 892 q 478 976 478 933 l 589 976 q 540 854 589 908 q 386 800 490 800 z "},"ê":{"ha":711,"x_min":43,"x_max":669,"o":"m 411 -14 q 137 92 231 -14 q 43 346 43 199 q 131 592 43 489 q 376 694 218 694 q 586 619 503 694 q 669 407 669 544 q 668 375 669 392 q 664 340 667 358 l 171 340 q 257 148 185 199 q 426 97 329 97 q 525 107 474 97 q 622 138 576 117 l 639 39 q 542 3 600 21 q 411 -14 485 -14 m 182 426 l 540 426 q 499 541 540 499 q 374 583 458 583 q 245 542 290 583 q 182 426 200 500 m 210 783 l 210 868 l 386 1021 l 563 868 l 563 783 l 386 894 l 210 783 z "},"ế":{"ha":711,"x_min":43,"x_max":718,"o":"m 411 -14 q 137 92 231 -14 q 43 346 43 199 q 131 592 43 489 q 376 694 218 694 q 586 619 503 694 q 669 407 669 544 q 668 375 669 392 q 664 340 667 358 l 171 340 q 257 148 185 199 q 426 97 329 97 q 525 107 474 97 q 622 138 576 117 l 639 39 q 542 3 600 21 q 411 -14 485 -14 m 182 426 l 540 426 q 499 541 540 499 q 374 583 458 583 q 245 542 290 583 q 182 426 200 500 m 210 754 l 210 839 l 386 964 l 563 839 l 563 754 l 386 846 l 210 754 m 490 957 l 582 1119 l 718 1119 l 582 957 l 490 957 z "},"ệ":{"ha":711,"x_min":43,"x_max":669,"o":"m 411 -14 q 137 92 231 -14 q 43 346 43 199 q 131 592 43 489 q 376 694 218 694 q 586 619 503 694 q 669 407 669 544 q 668 375 669 392 q 664 340 667 358 l 171 340 q 257 148 185 199 q 426 97 329 97 q 525 107 474 97 q 622 138 576 117 l 639 39 q 542 3 600 21 q 411 -14 485 -14 m 182 426 l 540 426 q 499 541 540 499 q 374 583 458 583 q 245 542 290 583 q 182 426 200 500 m 210 783 l 210 868 l 386 1021 l 563 868 l 563 783 l 386 894 l 210 783 z "},"ề":{"ha":711,"x_min":43,"x_max":669,"o":"m 411 -14 q 137 92 231 -14 q 43 346 43 199 q 131 592 43 489 q 376 694 218 694 q 586 619 503 694 q 669 407 669 544 q 668 375 669 392 q 664 340 667 358 l 171 340 q 257 148 185 199 q 426 97 329 97 q 525 107 474 97 q 622 138 576 117 l 639 39 q 542 3 600 21 q 411 -14 485 -14 m 182 426 l 540 426 q 499 541 540 499 q 374 583 458 583 q 245 542 290 583 q 182 426 200 500 m 210 754 l 210 839 l 386 964 l 563 839 l 563 754 l 386 846 l 210 754 m 510 957 l 389 1119 l 521 1119 l 599 957 l 510 957 z "},"ể":{"ha":711,"x_min":43,"x_max":669,"o":"m 411 -14 q 137 92 231 -14 q 43 346 43 199 q 131 592 43 489 q 376 694 218 694 q 586 619 503 694 q 669 407 669 544 q 668 375 669 392 q 664 340 667 358 l 171 340 q 257 148 185 199 q 426 97 329 97 q 525 107 474 97 q 622 138 576 117 l 639 39 q 542 3 600 21 q 411 -14 485 -14 m 182 426 l 540 426 q 499 541 540 499 q 374 583 458 583 q 245 542 290 583 q 182 426 200 500 m 210 754 l 210 839 l 386 964 l 563 839 l 563 754 l 386 846 l 210 754 m 519 919 l 507 975 q 556 1029 556 992 q 499 1074 556 1074 q 411 1047 461 1074 l 388 1118 q 499 1144 436 1144 q 596 1117 556 1144 q 636 1038 636 1089 q 519 919 636 946 z "},"ễ":{"ha":711,"x_min":43,"x_max":669,"o":"m 411 -14 q 137 92 231 -14 q 43 346 43 199 q 131 592 43 489 q 376 694 218 694 q 586 619 503 694 q 669 407 669 544 q 668 375 669 392 q 664 340 667 358 l 171 340 q 257 148 185 199 q 426 97 329 97 q 525 107 474 97 q 622 138 576 117 l 639 39 q 542 3 600 21 q 411 -14 485 -14 m 182 426 l 540 426 q 499 541 540 499 q 374 583 458 583 q 245 542 290 583 q 182 426 200 500 m 210 754 l 210 839 l 386 964 l 563 839 l 563 754 l 386 846 l 210 754 m 501 1021 q 400 1049 453 1021 q 307 1078 347 1078 q 260 1028 260 1078 l 169 1028 q 271 1167 169 1167 q 372 1138 319 1167 q 465 1110 425 1110 q 513 1160 513 1110 l 603 1160 q 501 1021 603 1021 z "},"ȅ":{"ha":711,"x_min":43,"x_max":669,"o":"m 411 -14 q 137 92 231 -14 q 43 346 43 199 q 131 592 43 489 q 376 694 218 694 q 586 619 503 694 q 669 407 669 544 q 668 375 669 392 q 664 340 667 358 l 171 340 q 257 148 185 199 q 426 97 329 97 q 525 107 474 97 q 622 138 576 117 l 639 39 q 542 3 600 21 q 411 -14 485 -14 m 182 426 l 540 426 q 499 541 540 499 q 374 583 458 583 q 245 542 290 583 q 182 426 200 500 m 531 803 l 439 803 l 303 1035 l 439 1035 l 531 803 m 336 803 l 244 803 l 101 1035 l 238 1035 l 336 803 z "},"ë":{"ha":711,"x_min":43,"x_max":669,"o":"m 411 -14 q 137 92 231 -14 q 43 346 43 199 q 131 592 43 489 q 376 694 218 694 q 586 619 503 694 q 669 407 669 544 q 668 375 669 392 q 664 340 667 358 l 171 340 q 257 148 185 199 q 426 97 329 97 q 525 107 474 97 q 622 138 576 117 l 639 39 q 542 3 600 21 q 411 -14 485 -14 m 182 426 l 540 426 q 499 541 540 499 q 374 583 458 583 q 245 542 290 583 q 182 426 200 500 m 460 821 l 460 932 l 579 932 l 579 821 l 460 821 m 193 821 l 193 932 l 313 932 l 313 821 l 193 821 z "},"ė":{"ha":711,"x_min":43,"x_max":669,"o":"m 411 -14 q 137 92 231 -14 q 43 346 43 199 q 131 592 43 489 q 376 694 218 694 q 586 619 503 694 q 669 407 669 544 q 668 375 669 392 q 664 340 667 358 l 171 340 q 257 148 185 199 q 426 97 329 97 q 525 107 474 97 q 622 138 576 117 l 639 39 q 542 3 600 21 q 411 -14 485 -14 m 182 426 l 540 426 q 499 541 540 499 q 374 583 458 583 q 245 542 290 583 q 182 426 200 500 m 319 821 l 319 946 l 453 946 l 453 821 l 319 821 z "},"ẹ":{"ha":711,"x_min":43,"x_max":669,"o":"m 411 -14 q 137 92 231 -14 q 43 346 43 199 q 131 592 43 489 q 376 694 218 694 q 586 619 503 694 q 669 407 669 544 q 668 375 669 392 q 664 340 667 358 l 171 340 q 257 148 185 199 q 426 97 329 97 q 525 107 474 97 q 622 138 576 117 l 639 39 q 542 3 600 21 q 411 -14 485 -14 m 182 426 l 540 426 q 499 541 540 499 q 374 583 458 583 q 245 542 290 583 q 182 426 200 500 z "},"è":{"ha":711,"x_min":43,"x_max":669,"o":"m 411 -14 q 137 92 231 -14 q 43 346 43 199 q 131 592 43 489 q 376 694 218 694 q 586 619 503 694 q 669 407 669 544 q 668 375 669 392 q 664 340 667 358 l 171 340 q 257 148 185 199 q 426 97 329 97 q 525 107 474 97 q 622 138 576 117 l 639 39 q 542 3 600 21 q 411 -14 485 -14 m 182 426 l 540 426 q 499 541 540 499 q 374 583 458 583 q 245 542 290 583 q 182 426 200 500 m 515 800 l 256 901 l 256 1038 l 515 885 l 515 800 z "},"ẻ":{"ha":711,"x_min":43,"x_max":669,"o":"m 411 -14 q 137 92 231 -14 q 43 346 43 199 q 131 592 43 489 q 376 694 218 694 q 586 619 503 694 q 669 407 669 544 q 668 375 669 392 q 664 340 667 358 l 171 340 q 257 148 185 199 q 426 97 329 97 q 525 107 474 97 q 622 138 576 117 l 639 39 q 542 3 600 21 q 411 -14 485 -14 m 182 426 l 540 426 q 499 541 540 499 q 374 583 458 583 q 245 542 290 583 q 182 426 200 500 m 407 729 l 360 775 q 406 825 392 807 q 421 868 421 843 q 364 918 421 918 q 276 892 326 918 l 253 963 q 364 989 301 989 q 461 958 421 989 q 501 872 501 928 q 478 797 501 828 q 407 729 456 765 z "},"ȇ":{"ha":711,"x_min":43,"x_max":669,"o":"m 411 -14 q 137 92 231 -14 q 43 346 43 199 q 131 592 43 489 q 376 694 218 694 q 586 619 503 694 q 669 407 669 544 q 668 375 669 392 q 664 340 667 358 l 171 340 q 257 148 185 199 q 426 97 329 97 q 525 107 474 97 q 622 138 576 117 l 639 39 q 542 3 600 21 q 411 -14 485 -14 m 182 426 l 540 426 q 499 541 540 499 q 374 583 458 583 q 245 542 290 583 q 182 426 200 500 m 386 976 q 540 923 490 976 q 589 800 589 869 l 478 800 q 451 864 478 843 q 386 885 424 885 q 322 864 349 885 q 294 800 294 843 l 183 800 q 233 923 183 869 q 386 976 282 976 z "},"ē":{"ha":711,"x_min":43,"x_max":669,"o":"m 411 -14 q 137 92 231 -14 q 43 346 43 199 q 131 592 43 489 q 376 694 218 694 q 586 619 503 694 q 669 407 669 544 q 668 375 669 392 q 664 340 667 358 l 171 340 q 257 148 185 199 q 426 97 329 97 q 525 107 474 97 q 622 138 576 117 l 639 39 q 542 3 600 21 q 411 -14 485 -14 m 182 426 l 540 426 q 499 541 540 499 q 374 583 458 583 q 245 542 290 583 q 182 426 200 500 m 164 821 l 164 919 l 608 919 l 608 821 l 164 821 z "},"ḗ":{"ha":711,"x_min":43,"x_max":669,"o":"m 411 -14 q 137 92 231 -14 q 43 346 43 199 q 131 592 43 489 q 376 694 218 694 q 586 619 503 694 q 669 407 669 544 q 668 375 669 392 q 664 340 667 358 l 171 340 q 257 148 185 199 q 426 97 329 97 q 525 107 474 97 q 622 138 576 117 l 639 39 q 542 3 600 21 q 411 -14 485 -14 m 182 426 l 540 426 q 499 541 540 499 q 374 583 458 583 q 245 542 290 583 q 182 426 200 500 m 164 810 l 164 904 l 608 904 l 608 810 l 164 810 m 257 1008 l 257 1089 l 517 1221 l 517 1089 l 257 1008 z "},"ḕ":{"ha":711,"x_min":43,"x_max":669,"o":"m 411 -14 q 137 92 231 -14 q 43 346 43 199 q 131 592 43 489 q 376 694 218 694 q 586 619 503 694 q 669 407 669 544 q 668 375 669 392 q 664 340 667 358 l 171 340 q 257 148 185 199 q 426 97 329 97 q 525 107 474 97 q 622 138 576 117 l 639 39 q 542 3 600 21 q 411 -14 485 -14 m 182 426 l 540 426 q 499 541 540 499 q 374 583 458 583 q 245 542 290 583 q 182 426 200 500 m 164 810 l 164 904 l 608 904 l 608 810 l 164 810 m 515 1008 l 256 1089 l 256 1221 l 515 1089 l 515 1008 z "},"ę":{"ha":711,"x_min":43,"x_max":706,"o":"m 411 -14 q 137 92 231 -14 q 43 346 43 199 q 131 592 43 489 q 376 694 218 694 q 586 619 503 694 q 669 407 669 544 q 668 375 669 392 q 664 340 667 358 l 171 340 q 257 148 185 199 q 426 97 329 97 q 525 107 474 97 q 622 138 576 117 l 639 39 q 542 3 600 21 q 411 -14 485 -14 m 182 426 l 540 426 q 499 541 540 499 q 374 583 458 583 q 245 542 290 583 q 182 426 200 500 m 565 39 l 639 39 q 560 -34 590 1 q 531 -108 531 -69 q 597 -179 531 -179 q 685 -156 642 -179 l 706 -224 q 657 -242 686 -233 q 590 -250 628 -250 q 491 -219 532 -250 q 450 -131 450 -189 q 487 -30 450 -75 q 565 39 524 15 z "},"ẽ":{"ha":711,"x_min":43,"x_max":669,"o":"m 411 -14 q 137 92 231 -14 q 43 346 43 199 q 131 592 43 489 q 376 694 218 694 q 586 619 503 694 q 669 407 669 544 q 668 375 669 392 q 664 340 667 358 l 171 340 q 257 148 185 199 q 426 97 329 97 q 525 107 474 97 q 622 138 576 117 l 639 39 q 542 3 600 21 q 411 -14 485 -14 m 182 426 l 540 426 q 499 541 540 499 q 374 583 458 583 q 245 542 290 583 q 182 426 200 500 m 497 806 q 397 838 444 806 q 307 871 350 871 q 260 817 260 871 l 156 817 q 275 971 163 971 q 375 938 328 971 q 465 906 422 906 q 513 960 513 906 l 617 960 q 497 806 610 806 z "},"ə":{"ha":711,"x_min":42,"x_max":668,"o":"m 300 694 q 574 588 481 694 q 668 335 668 482 q 581 89 668 192 q 335 -14 493 -14 q 125 61 208 -14 q 42 274 42 136 q 43 306 42 289 q 47 340 44 322 l 540 340 q 454 533 526 482 q 285 583 382 583 q 186 574 238 583 q 89 543 135 564 l 72 642 q 169 677 111 660 q 300 694 226 694 m 529 254 l 171 254 q 212 140 171 182 q 338 97 253 97 q 466 139 421 97 q 529 254 511 181 z "},"f":{"ha":460,"x_min":14,"x_max":440,"o":"m 132 0 l 132 583 l 14 583 l 31 681 l 132 681 l 132 842 q 181 987 132 932 q 324 1042 229 1042 q 384 1037 358 1042 q 432 1024 410 1032 l 413 918 q 343 931 379 931 q 257 833 257 931 l 257 681 l 440 681 l 440 583 l 257 583 l 257 0 l 132 0 z "},"g":{"ha":692,"x_min":36,"x_max":696,"o":"m 360 -347 q 128 -296 219 -347 q 36 -144 36 -244 q 67 -49 36 -89 q 154 15 99 -10 q 88 101 88 49 q 168 200 88 168 q 50 429 50 274 q 124 617 50 540 q 331 694 199 694 q 497 642 422 694 q 571 672 528 660 q 667 683 614 683 q 672 683 669 683 q 678 683 675 683 l 663 600 q 647 600 654 600 q 631 600 639 600 q 599 598 624 600 q 553 590 574 596 q 613 429 613 519 q 538 235 613 313 q 331 157 463 157 q 239 169 281 157 q 207 133 207 158 q 283 89 207 100 l 465 60 q 635 -4 575 42 q 696 -136 696 -50 q 604 -294 696 -242 q 360 -347 513 -347 m 371 -236 q 518 -211 467 -236 q 569 -139 569 -186 q 538 -80 569 -101 q 444 -47 506 -58 l 250 -14 q 184 -60 213 -32 q 156 -125 156 -87 q 214 -210 156 -183 q 371 -236 272 -236 m 331 257 q 451 304 410 257 q 493 428 493 351 q 451 547 493 500 q 331 594 410 594 q 210 547 251 594 q 169 428 169 500 q 210 304 169 351 q 331 257 251 257 z "},"ğ":{"ha":692,"x_min":36,"x_max":696,"o":"m 360 -347 q 128 -296 219 -347 q 36 -144 36 -244 q 67 -49 36 -89 q 154 15 99 -10 q 88 101 88 49 q 168 200 88 168 q 50 429 50 274 q 124 617 50 540 q 331 694 199 694 q 497 642 422 694 q 571 672 528 660 q 667 683 614 683 q 672 683 669 683 q 678 683 675 683 l 663 600 q 647 600 654 600 q 631 600 639 600 q 599 598 624 600 q 553 590 574 596 q 613 429 613 519 q 538 235 613 313 q 331 157 463 157 q 239 169 281 157 q 207 133 207 158 q 283 89 207 100 l 465 60 q 635 -4 575 42 q 696 -136 696 -50 q 604 -294 696 -242 q 360 -347 513 -347 m 371 -236 q 518 -211 467 -236 q 569 -139 569 -186 q 538 -80 569 -101 q 444 -47 506 -58 l 250 -14 q 184 -60 213 -32 q 156 -125 156 -87 q 214 -210 156 -183 q 371 -236 272 -236 m 331 257 q 451 304 410 257 q 493 428 493 351 q 451 547 493 500 q 331 594 410 594 q 210 547 251 594 q 169 428 169 500 q 210 304 169 351 q 331 257 251 257 m 351 800 q 198 854 247 800 q 149 976 149 908 l 260 976 q 287 913 260 933 q 351 892 314 892 q 416 913 389 892 q 443 976 443 933 l 554 976 q 505 854 554 908 q 351 800 456 800 z "},"ǧ":{"ha":692,"x_min":36,"x_max":696,"o":"m 360 -347 q 128 -296 219 -347 q 36 -144 36 -244 q 67 -49 36 -89 q 154 15 99 -10 q 88 101 88 49 q 168 200 88 168 q 50 429 50 274 q 124 617 50 540 q 331 694 199 694 q 497 642 422 694 q 571 672 528 660 q 667 683 614 683 q 672 683 669 683 q 678 683 675 683 l 663 600 q 647 600 654 600 q 631 600 639 600 q 599 598 624 600 q 553 590 574 596 q 613 429 613 519 q 538 235 613 313 q 331 157 463 157 q 239 169 281 157 q 207 133 207 158 q 283 89 207 100 l 465 60 q 635 -4 575 42 q 696 -136 696 -50 q 604 -294 696 -242 q 360 -347 513 -347 m 371 -236 q 518 -211 467 -236 q 569 -139 569 -186 q 538 -80 569 -101 q 444 -47 506 -58 l 250 -14 q 184 -60 213 -32 q 156 -125 156 -87 q 214 -210 156 -183 q 371 -236 272 -236 m 331 257 q 451 304 410 257 q 493 428 493 351 q 451 547 493 500 q 331 594 410 594 q 210 547 251 594 q 169 428 169 500 q 210 304 169 351 q 331 257 251 257 m 351 775 l 175 928 l 175 1013 l 351 901 l 528 1013 l 528 928 l 351 775 z "},"ĝ":{"ha":692,"x_min":36,"x_max":696,"o":"m 360 -347 q 128 -296 219 -347 q 36 -144 36 -244 q 67 -49 36 -89 q 154 15 99 -10 q 88 101 88 49 q 168 200 88 168 q 50 429 50 274 q 124 617 50 540 q 331 694 199 694 q 497 642 422 694 q 571 672 528 660 q 667 683 614 683 q 672 683 669 683 q 678 683 675 683 l 663 600 q 647 600 654 600 q 631 600 639 600 q 599 598 624 600 q 553 590 574 596 q 613 429 613 519 q 538 235 613 313 q 331 157 463 157 q 239 169 281 157 q 207 133 207 158 q 283 89 207 100 l 465 60 q 635 -4 575 42 q 696 -136 696 -50 q 604 -294 696 -242 q 360 -347 513 -347 m 371 -236 q 518 -211 467 -236 q 569 -139 569 -186 q 538 -80 569 -101 q 444 -47 506 -58 l 250 -14 q 184 -60 213 -32 q 156 -125 156 -87 q 214 -210 156 -183 q 371 -236 272 -236 m 331 257 q 451 304 410 257 q 493 428 493 351 q 451 547 493 500 q 331 594 410 594 q 210 547 251 594 q 169 428 169 500 q 210 304 169 351 q 331 257 251 257 m 175 783 l 175 868 l 351 1021 l 528 868 l 528 783 l 351 894 l 175 783 z "},"ģ":{"ha":692,"x_min":36,"x_max":696,"o":"m 360 -347 q 128 -296 219 -347 q 36 -144 36 -244 q 67 -49 36 -89 q 154 15 99 -10 q 88 101 88 49 q 168 200 88 168 q 50 429 50 274 q 124 617 50 540 q 331 694 199 694 q 497 642 422 694 q 571 672 528 660 q 667 683 614 683 q 672 683 669 683 q 678 683 675 683 l 663 600 q 647 600 654 600 q 631 600 639 600 q 599 598 624 600 q 553 590 574 596 q 613 429 613 519 q 538 235 613 313 q 331 157 463 157 q 239 169 281 157 q 207 133 207 158 q 283 89 207 100 l 465 60 q 635 -4 575 42 q 696 -136 696 -50 q 604 -294 696 -242 q 360 -347 513 -347 m 371 -236 q 518 -211 467 -236 q 569 -139 569 -186 q 538 -80 569 -101 q 444 -47 506 -58 l 250 -14 q 184 -60 213 -32 q 156 -125 156 -87 q 214 -210 156 -183 q 371 -236 272 -236 m 331 257 q 451 304 410 257 q 493 428 493 351 q 451 547 493 500 q 331 594 410 594 q 210 547 251 594 q 169 428 169 500 q 210 304 169 351 q 331 257 251 257 z "},"ġ":{"ha":692,"x_min":36,"x_max":696,"o":"m 360 -347 q 128 -296 219 -347 q 36 -144 36 -244 q 67 -49 36 -89 q 154 15 99 -10 q 88 101 88 49 q 168 200 88 168 q 50 429 50 274 q 124 617 50 540 q 331 694 199 694 q 497 642 422 694 q 571 672 528 660 q 667 683 614 683 q 672 683 669 683 q 678 683 675 683 l 663 600 q 647 600 654 600 q 631 600 639 600 q 599 598 624 600 q 553 590 574 596 q 613 429 613 519 q 538 235 613 313 q 331 157 463 157 q 239 169 281 157 q 207 133 207 158 q 283 89 207 100 l 465 60 q 635 -4 575 42 q 696 -136 696 -50 q 604 -294 696 -242 q 360 -347 513 -347 m 371 -236 q 518 -211 467 -236 q 569 -139 569 -186 q 538 -80 569 -101 q 444 -47 506 -58 l 250 -14 q 184 -60 213 -32 q 156 -125 156 -87 q 214 -210 156 -183 q 371 -236 272 -236 m 331 257 q 451 304 410 257 q 493 428 493 351 q 451 547 493 500 q 331 594 410 594 q 210 547 251 594 q 169 428 169 500 q 210 304 169 351 q 331 257 251 257 m 285 821 l 285 946 l 418 946 l 418 821 l 285 821 z "},"ḡ":{"ha":692,"x_min":36,"x_max":696,"o":"m 360 -347 q 128 -296 219 -347 q 36 -144 36 -244 q 67 -49 36 -89 q 154 15 99 -10 q 88 101 88 49 q 168 200 88 168 q 50 429 50 274 q 124 617 50 540 q 331 694 199 694 q 497 642 422 694 q 571 672 528 660 q 667 683 614 683 q 672 683 669 683 q 678 683 675 683 l 663 600 q 647 600 654 600 q 631 600 639 600 q 599 598 624 600 q 553 590 574 596 q 613 429 613 519 q 538 235 613 313 q 331 157 463 157 q 239 169 281 157 q 207 133 207 158 q 283 89 207 100 l 465 60 q 635 -4 575 42 q 696 -136 696 -50 q 604 -294 696 -242 q 360 -347 513 -347 m 371 -236 q 518 -211 467 -236 q 569 -139 569 -186 q 538 -80 569 -101 q 444 -47 506 -58 l 250 -14 q 184 -60 213 -32 q 156 -125 156 -87 q 214 -210 156 -183 q 371 -236 272 -236 m 331 257 q 451 304 410 257 q 493 428 493 351 q 451 547 493 500 q 331 594 410 594 q 210 547 251 594 q 169 428 169 500 q 210 304 169 351 q 331 257 251 257 m 129 821 l 129 919 l 574 919 l 574 821 l 129 821 z "},"h":{"ha":753,"x_min":83,"x_max":675,"o":"m 83 0 l 83 1042 l 210 1042 l 210 563 l 165 565 q 269 660 214 625 q 410 694 324 694 q 608 608 542 694 q 675 379 675 521 l 675 0 l 550 0 l 550 364 q 382 583 550 583 q 267 549 317 583 q 189 456 218 514 l 210 532 l 210 0 l 83 0 z "},"ħ":{"ha":753,"x_min":-22,"x_max":675,"o":"m 83 0 l 83 1042 l 210 1042 l 210 574 l 186 574 q 281 665 225 636 q 419 694 338 694 q 617 603 558 694 q 675 364 675 511 l 675 0 l 550 0 l 550 364 q 514 534 550 485 q 388 583 478 583 q 267 553 314 583 q 189 456 219 522 l 210 547 l 210 0 l 83 0 m -22 815 l -22 913 l 418 913 l 418 815 l -22 815 z "},"ḫ":{"ha":753,"x_min":83,"x_max":675,"o":"m 83 0 l 83 1042 l 210 1042 l 210 563 l 165 565 q 269 660 214 625 q 410 694 324 694 q 608 608 542 694 q 675 379 675 521 l 675 0 l 550 0 l 550 364 q 382 583 550 583 q 267 549 317 583 q 189 456 218 514 l 210 532 l 210 0 l 83 0 z "},"ĥ":{"ha":753,"x_min":-29,"x_max":675,"o":"m 83 0 l 83 1042 l 210 1042 l 210 563 l 165 565 q 269 660 214 625 q 410 694 324 694 q 608 608 542 694 q 675 379 675 521 l 675 0 l 550 0 l 550 364 q 382 583 550 583 q 267 549 317 583 q 189 456 218 514 l 210 532 l 210 0 l 83 0 m -29 1088 l -29 1172 l 147 1297 l 324 1172 l 324 1088 l 147 1179 l -29 1088 z "},"ḥ":{"ha":753,"x_min":83,"x_max":675,"o":"m 83 0 l 83 1042 l 210 1042 l 210 563 l 165 565 q 269 660 214 625 q 410 694 324 694 q 608 608 542 694 q 675 379 675 521 l 675 0 l 550 0 l 550 364 q 382 583 550 583 q 267 549 317 583 q 189 456 218 514 l 210 532 l 210 0 l 83 0 z "},"i":{"ha":294,"x_min":85,"x_max":210,"o":"m 85 0 l 85 681 l 210 681 l 210 0 l 85 0 m 85 833 l 85 972 l 210 972 l 210 833 l 85 833 z "},"ı":{"ha":294,"x_min":85,"x_max":210,"o":"m 85 0 l 85 681 l 210 681 l 210 0 l 85 0 z "},"í":{"ha":294,"x_min":18,"x_max":278,"o":"m 85 0 l 85 681 l 210 681 l 210 0 l 85 0 m 18 800 l 18 885 l 278 1038 l 278 901 l 18 800 z "},"ĭ":{"ha":294,"x_min":-56,"x_max":350,"o":"m 85 0 l 85 681 l 210 681 l 210 0 l 85 0 m 147 800 q -6 854 43 800 q -56 976 -56 908 l 56 976 q 83 913 56 933 q 147 892 110 892 q 212 913 185 892 q 239 976 239 933 l 350 976 q 301 854 350 908 q 147 800 251 800 z "},"î":{"ha":294,"x_min":-29,"x_max":324,"o":"m 85 0 l 85 681 l 210 681 l 210 0 l 85 0 m -29 783 l -29 868 l 147 1021 l 324 868 l 324 783 l 147 894 l -29 783 z "},"ȉ":{"ha":294,"x_min":-137,"x_max":292,"o":"m 85 0 l 85 681 l 210 681 l 210 0 l 85 0 m 292 803 l 200 803 l 64 1035 l 200 1035 l 292 803 m 97 803 l 6 803 l -137 1035 l -1 1035 l 97 803 z "},"ï":{"ha":294,"x_min":-46,"x_max":340,"o":"m 85 0 l 85 681 l 210 681 l 210 0 l 85 0 m 221 821 l 221 932 l 340 932 l 340 821 l 221 821 m -46 821 l -46 932 l 74 932 l 74 821 l -46 821 z "},"ḯ":{"ha":294,"x_min":-46,"x_max":340,"o":"m 85 0 l 85 681 l 210 681 l 210 0 l 85 0 m -46 811 l -46 915 l 74 915 l 74 811 l -46 811 m 221 811 l 221 915 l 340 915 l 340 811 l 221 811 m 18 992 l 18 1072 l 278 1204 l 278 1072 l 18 992 z "},"ị":{"ha":294,"x_min":81,"x_max":214,"o":"m 85 0 l 85 681 l 210 681 l 210 0 l 85 0 m 85 833 l 85 972 l 210 972 l 210 833 l 85 833 z "},"ì":{"ha":294,"x_min":17,"x_max":276,"o":"m 85 0 l 85 681 l 210 681 l 210 0 l 85 0 m 276 800 l 17 901 l 17 1038 l 276 885 l 276 800 z "},"ỉ":{"ha":294,"x_min":14,"x_max":263,"o":"m 85 0 l 85 681 l 210 681 l 210 0 l 85 0 m 168 729 l 121 775 q 167 825 153 807 q 182 868 182 843 q 125 918 182 918 q 38 892 88 918 l 14 963 q 125 989 63 989 q 222 958 182 989 q 263 872 263 928 q 240 797 263 828 q 168 729 217 765 z "},"ȋ":{"ha":294,"x_min":-56,"x_max":350,"o":"m 85 0 l 85 681 l 210 681 l 210 0 l 85 0 m 147 976 q 301 923 251 976 q 350 800 350 869 l 239 800 q 212 864 239 843 q 147 885 185 885 q 83 864 110 885 q 56 800 56 843 l -56 800 q -6 923 -56 869 q 147 976 43 976 z "},"ĳ":{"ha":589,"x_min":85,"x_max":504,"o":"m 85 0 l 85 681 l 210 681 l 210 0 l 85 0 m 85 833 l 85 972 l 210 972 l 210 833 l 85 833 m 292 -336 l 278 -240 q 359 -208 339 -233 q 379 -101 379 -183 l 379 681 l 504 681 l 504 -149 q 445 -284 504 -247 q 333 -329 386 -321 l 292 -336 m 379 833 l 379 972 l 504 972 l 504 833 l 379 833 z "},"ī":{"ha":294,"x_min":-75,"x_max":369,"o":"m 85 0 l 85 681 l 210 681 l 210 0 l 85 0 m -75 821 l -75 919 l 369 919 l 369 821 l -75 821 z "},"į":{"ha":294,"x_min":21,"x_max":276,"o":"m 85 0 l 85 681 l 210 681 l 210 0 l 85 0 m 85 833 l 85 972 l 210 972 l 210 833 l 85 833 m 136 0 l 210 0 q 131 -73 161 -37 q 101 -147 101 -108 q 168 -218 101 -218 q 256 -194 213 -218 l 276 -262 q 228 -281 257 -272 q 161 -289 199 -289 q 62 -258 103 -289 q 21 -169 21 -228 q 58 -69 21 -114 q 136 0 94 -24 z "},"ĩ":{"ha":294,"x_min":-83,"x_max":378,"o":"m 85 0 l 85 681 l 210 681 l 210 0 l 85 0 m 258 806 q 158 838 206 806 q 68 871 111 871 q 21 817 21 871 l -83 817 q 36 971 -76 971 q 136 938 89 971 q 226 906 183 906 q 274 960 274 906 l 378 960 q 258 806 371 806 z "},"j":{"ha":294,"x_min":-17,"x_max":210,"o":"m -3 -336 l -17 -240 q 65 -208 44 -233 q 85 -101 85 -183 l 85 681 l 210 681 l 210 -149 q 151 -284 210 -247 q 39 -329 92 -321 l -3 -336 m 85 833 l 85 972 l 210 972 l 210 833 l 85 833 z "},"ȷ":{"ha":294,"x_min":-17,"x_max":210,"o":"m -3 -336 l -17 -240 q 65 -208 44 -233 q 85 -101 85 -183 l 85 681 l 210 681 l 210 -149 q 151 -284 210 -247 q 39 -329 92 -321 l -3 -336 z "},"ĵ":{"ha":294,"x_min":-29,"x_max":324,"o":"m -3 -336 l -17 -240 q 65 -208 44 -233 q 85 -101 85 -183 l 85 681 l 210 681 l 210 -149 q 151 -284 210 -247 q 39 -329 92 -321 l -3 -336 m -29 783 l -29 868 l 147 1021 l 324 868 l 324 783 l 147 894 l -29 783 z "},"k":{"ha":622,"x_min":83,"x_max":618,"o":"m 83 0 l 83 1042 l 208 1042 l 208 374 l 458 681 l 611 681 l 340 364 l 618 0 l 465 0 l 208 346 l 208 0 l 83 0 z "},"ķ":{"ha":622,"x_min":83,"x_max":618,"o":"m 83 0 l 83 1042 l 208 1042 l 208 374 l 458 681 l 611 681 l 340 364 l 618 0 l 465 0 l 208 346 l 208 0 l 83 0 m 342 -422 l 263 -422 l 313 -274 l 264 -274 l 264 -126 l 414 -126 l 414 -260 l 342 -422 z "},"ĸ":{"ha":697,"x_min":85,"x_max":689,"o":"m 85 0 l 85 681 l 210 681 l 210 364 l 529 681 l 682 681 l 332 353 l 689 0 l 536 0 l 210 336 l 210 0 l 85 0 z "},"l":{"ha":328,"x_min":83,"x_max":318,"o":"m 260 -14 q 122 38 161 -14 q 83 150 83 89 l 83 1042 l 208 1042 l 208 222 q 227 110 208 135 q 318 86 246 86 l 300 -14 l 260 -14 z "},"ĺ":{"ha":328,"x_min":17,"x_max":318,"o":"m 260 -14 q 122 38 161 -14 q 83 150 83 89 l 83 1042 l 208 1042 l 208 222 q 227 110 208 135 q 318 86 246 86 l 300 -14 l 260 -14 m 17 1131 l 17 1211 l 276 1343 l 276 1211 l 17 1131 z "},"ľ":{"ha":386,"x_min":83,"x_max":408,"o":"m 260 -14 q 122 38 161 -14 q 83 150 83 89 l 83 1042 l 208 1042 l 208 222 q 227 110 208 135 q 318 86 246 86 l 300 -14 l 260 -14 m 278 810 l 278 1042 l 408 1042 l 369 810 l 278 810 z "},"ļ":{"ha":328,"x_min":83,"x_max":318,"o":"m 260 -14 q 122 38 161 -14 q 83 150 83 89 l 83 1042 l 208 1042 l 208 222 q 227 110 208 135 q 318 86 246 86 l 300 -14 l 260 -14 m 213 -422 l 133 -422 l 183 -274 l 135 -274 l 135 -126 l 285 -126 l 285 -260 l 213 -422 z "},"ŀ":{"ha":390,"x_min":83,"x_max":404,"o":"m 260 -14 q 122 38 161 -14 q 83 150 83 89 l 83 1042 l 208 1042 l 208 222 q 227 110 208 135 q 318 86 246 86 l 300 -14 l 260 -14 m 279 514 l 279 639 l 404 639 l 404 514 l 279 514 z "},"ḷ":{"ha":328,"x_min":83,"x_max":318,"o":"m 260 -14 q 122 38 161 -14 q 83 150 83 89 l 83 1042 l 208 1042 l 208 222 q 227 110 208 135 q 318 86 246 86 l 300 -14 l 260 -14 z "},"ǉ":{"ha":622,"x_min":83,"x_max":538,"o":"m 260 -14 q 122 38 161 -14 q 83 150 83 89 l 83 1042 l 208 1042 l 208 222 q 227 110 208 135 q 318 86 246 86 l 300 -14 l 260 -14 m 325 -336 l 311 -240 q 392 -208 372 -233 q 413 -101 413 -183 l 413 681 l 538 681 l 538 -149 q 478 -284 538 -247 q 367 -329 419 -321 l 325 -336 m 413 833 l 413 972 l 538 972 l 538 833 l 413 833 z "},"ḻ":{"ha":328,"x_min":-14,"x_max":431,"o":"m 260 -14 q 122 38 161 -14 q 83 150 83 89 l 83 1042 l 208 1042 l 208 222 q 227 110 208 135 q 318 86 246 86 l 300 -14 l 260 -14 z "},"ł":{"ha":328,"x_min":-14,"x_max":319,"o":"m 260 -14 q 122 38 161 -14 q 83 150 83 89 l 83 1042 l 208 1042 l 208 222 q 227 110 208 135 q 318 86 246 86 l 300 -14 l 260 -14 m -14 550 l -14 644 l 319 733 l 319 639 l -14 550 z "},"m":{"ha":1218,"x_min":85,"x_max":1140,"o":"m 85 0 l 85 681 l 182 681 l 207 550 l 160 572 q 284 668 224 642 q 411 694 344 694 q 551 656 486 694 q 650 508 617 617 l 615 524 q 709 649 646 603 q 879 694 772 694 q 1074 623 1007 694 q 1140 401 1140 551 l 1140 0 l 1015 0 l 1015 400 q 978 540 1015 496 q 856 583 940 583 q 737 552 775 583 q 687 477 699 521 q 675 394 675 433 l 675 0 l 550 0 l 550 375 q 506 542 550 500 q 390 583 461 583 q 268 553 322 583 q 194 457 214 522 l 210 525 l 210 0 l 85 0 z "},"ṃ":{"ha":1218,"x_min":85,"x_max":1140,"o":"m 85 0 l 85 681 l 182 681 l 207 550 l 160 572 q 284 668 224 642 q 411 694 344 694 q 551 656 486 694 q 650 508 617 617 l 615 524 q 709 649 646 603 q 879 694 772 694 q 1074 623 1007 694 q 1140 401 1140 551 l 1140 0 l 1015 0 l 1015 400 q 978 540 1015 496 q 856 583 940 583 q 737 552 775 583 q 687 477 699 521 q 675 394 675 433 l 675 0 l 550 0 l 550 375 q 506 542 550 500 q 390 583 461 583 q 268 553 322 583 q 194 457 214 522 l 210 525 l 210 0 l 85 0 z "},"n":{"ha":776,"x_min":85,"x_max":699,"o":"m 85 0 l 85 681 l 182 681 l 207 550 l 158 571 q 293 671 228 647 q 421 694 358 694 q 634 608 569 694 q 699 375 699 522 l 699 0 l 574 0 l 574 375 q 533 533 574 483 q 396 583 493 583 q 270 553 328 583 q 194 457 213 522 l 210 533 l 210 0 l 85 0 z "},"ń":{"ha":776,"x_min":85,"x_max":699,"o":"m 85 0 l 85 681 l 182 681 l 207 550 l 158 571 q 293 671 228 647 q 421 694 358 694 q 634 608 569 694 q 699 375 699 522 l 699 0 l 574 0 l 574 375 q 533 533 574 483 q 396 583 493 583 q 270 553 328 583 q 194 457 213 522 l 210 533 l 210 0 l 85 0 m 279 800 l 279 885 l 539 1038 l 539 901 l 279 800 z "},"ŉ":{"ha":965,"x_min":75,"x_max":888,"o":"m 274 0 l 274 681 l 371 681 l 396 550 l 347 571 q 482 671 417 647 q 610 694 547 694 q 823 608 758 694 q 888 375 888 522 l 888 0 l 763 0 l 763 375 q 722 533 763 483 q 585 583 682 583 q 459 553 517 583 q 383 457 401 522 l 399 533 l 399 0 l 274 0 z "},"ň":{"ha":776,"x_min":85,"x_max":699,"o":"m 85 0 l 85 681 l 182 681 l 207 550 l 158 571 q 293 671 228 647 q 421 694 358 694 q 634 608 569 694 q 699 375 699 522 l 699 0 l 574 0 l 574 375 q 533 533 574 483 q 396 583 493 583 q 270 553 328 583 q 194 457 213 522 l 210 533 l 210 0 l 85 0 m 408 775 l 232 928 l 232 1013 l 408 901 l 585 1013 l 585 928 l 408 775 z "},"ņ":{"ha":776,"x_min":85,"x_max":699,"o":"m 85 0 l 85 681 l 182 681 l 207 550 l 158 571 q 293 671 228 647 q 421 694 358 694 q 634 608 569 694 q 699 375 699 522 l 699 0 l 574 0 l 574 375 q 533 533 574 483 q 396 583 493 583 q 270 553 328 583 q 194 457 213 522 l 210 533 l 210 0 l 85 0 m 396 -422 l 317 -422 l 367 -274 l 318 -274 l 318 -126 l 468 -126 l 468 -260 l 396 -422 z "},"ṅ":{"ha":776,"x_min":85,"x_max":699,"o":"m 85 0 l 85 681 l 182 681 l 207 550 l 158 571 q 293 671 228 647 q 421 694 358 694 q 634 608 569 694 q 699 375 699 522 l 699 0 l 574 0 l 574 375 q 533 533 574 483 q 396 583 493 583 q 270 553 328 583 q 194 457 213 522 l 210 533 l 210 0 l 85 0 m 342 821 l 342 946 l 475 946 l 475 821 l 342 821 z "},"ṇ":{"ha":776,"x_min":85,"x_max":699,"o":"m 85 0 l 85 681 l 182 681 l 207 550 l 158 571 q 293 671 228 647 q 421 694 358 694 q 634 608 569 694 q 699 375 699 522 l 699 0 l 574 0 l 574 375 q 533 533 574 483 q 396 583 493 583 q 270 553 328 583 q 194 457 213 522 l 210 533 l 210 0 l 85 0 z "},"ŋ":{"ha":776,"x_min":85,"x_max":699,"o":"m 699 33 q 619 -179 699 -110 q 417 -249 539 -249 q 359 -244 388 -249 q 304 -233 331 -240 l 322 -125 q 425 -137 372 -137 q 533 -99 492 -137 q 574 19 574 -60 l 574 375 q 533 533 574 483 q 396 583 493 583 q 287 562 338 583 q 210 494 236 540 l 210 0 l 85 0 l 85 681 l 182 681 l 196 608 q 310 678 254 661 q 421 694 367 694 q 634 608 569 694 q 699 375 699 522 l 699 33 z "},"ǌ":{"ha":1071,"x_min":85,"x_max":986,"o":"m 85 0 l 85 681 l 182 681 l 207 550 l 158 571 q 293 671 228 647 q 421 694 358 694 q 634 608 569 694 q 699 375 699 522 l 699 0 l 574 0 l 574 375 q 533 533 574 483 q 396 583 493 583 q 270 553 328 583 q 194 457 213 522 l 210 533 l 210 0 l 85 0 m 774 -336 l 760 -240 q 841 -208 821 -233 q 861 -101 861 -183 l 861 681 l 986 681 l 986 -149 q 927 -284 986 -247 q 815 -329 868 -321 l 774 -336 m 861 833 l 861 972 l 986 972 l 986 833 l 861 833 z "},"ṉ":{"ha":776,"x_min":85,"x_max":699,"o":"m 85 0 l 85 681 l 182 681 l 207 550 l 158 571 q 293 671 228 647 q 421 694 358 694 q 634 608 569 694 q 699 375 699 522 l 699 0 l 574 0 l 574 375 q 533 533 574 483 q 396 583 493 583 q 270 553 328 583 q 194 457 213 522 l 210 533 l 210 0 l 85 0 z "},"ñ":{"ha":776,"x_min":85,"x_max":699,"o":"m 85 0 l 85 681 l 182 681 l 207 550 l 158 571 q 293 671 228 647 q 421 694 358 694 q 634 608 569 694 q 699 375 699 522 l 699 0 l 574 0 l 574 375 q 533 533 574 483 q 396 583 493 583 q 270 553 328 583 q 194 457 213 522 l 210 533 l 210 0 l 85 0 m 519 806 q 419 838 467 806 q 329 871 372 871 q 282 817 282 871 l 178 817 q 297 971 185 971 q 397 938 350 971 q 488 906 444 906 q 535 960 535 906 l 639 960 q 519 806 632 806 z "},"o":{"ha":764,"x_min":44,"x_max":719,"o":"m 382 -14 q 133 89 222 -14 q 44 340 44 192 q 133 592 44 489 q 382 694 222 694 q 631 592 542 694 q 719 340 719 489 q 631 89 719 192 q 382 -14 542 -14 m 382 97 q 538 161 483 97 q 592 340 592 225 q 538 519 592 456 q 382 583 483 583 q 226 519 281 583 q 172 340 172 456 q 226 161 172 225 q 382 97 281 97 z "},"ó":{"ha":764,"x_min":44,"x_max":719,"o":"m 382 -14 q 133 89 222 -14 q 44 340 44 192 q 133 592 44 489 q 382 694 222 694 q 631 592 542 694 q 719 340 719 489 q 631 89 719 192 q 382 -14 542 -14 m 382 97 q 538 161 483 97 q 592 340 592 225 q 538 519 592 456 q 382 583 483 583 q 226 519 281 583 q 172 340 172 456 q 226 161 172 225 q 382 97 281 97 m 253 800 l 253 885 l 513 1038 l 513 901 l 253 800 z "},"ŏ":{"ha":764,"x_min":44,"x_max":719,"o":"m 382 -14 q 133 89 222 -14 q 44 340 44 192 q 133 592 44 489 q 382 694 222 694 q 631 592 542 694 q 719 340 719 489 q 631 89 719 192 q 382 -14 542 -14 m 382 97 q 538 161 483 97 q 592 340 592 225 q 538 519 592 456 q 382 583 483 583 q 226 519 281 583 q 172 340 172 456 q 226 161 172 225 q 382 97 281 97 m 382 800 q 228 854 278 800 q 179 976 179 908 l 290 976 q 317 913 290 933 q 382 892 344 892 q 447 913 419 892 q 474 976 474 933 l 585 976 q 535 854 585 908 q 382 800 486 800 z "},"ô":{"ha":764,"x_min":44,"x_max":719,"o":"m 382 -14 q 133 89 222 -14 q 44 340 44 192 q 133 592 44 489 q 382 694 222 694 q 631 592 542 694 q 719 340 719 489 q 631 89 719 192 q 382 -14 542 -14 m 382 97 q 538 161 483 97 q 592 340 592 225 q 538 519 592 456 q 382 583 483 583 q 226 519 281 583 q 172 340 172 456 q 226 161 172 225 q 382 97 281 97 m 206 783 l 206 868 l 382 1021 l 558 868 l 558 783 l 382 894 l 206 783 z "},"ố":{"ha":764,"x_min":44,"x_max":719,"o":"m 382 -14 q 133 89 222 -14 q 44 340 44 192 q 133 592 44 489 q 382 694 222 694 q 631 592 542 694 q 719 340 719 489 q 631 89 719 192 q 382 -14 542 -14 m 382 97 q 538 161 483 97 q 592 340 592 225 q 538 519 592 456 q 382 583 483 583 q 226 519 281 583 q 172 340 172 456 q 226 161 172 225 q 382 97 281 97 m 206 754 l 206 839 l 382 964 l 558 839 l 558 754 l 382 846 l 206 754 m 486 957 l 578 1119 l 714 1119 l 578 957 l 486 957 z "},"ộ":{"ha":764,"x_min":44,"x_max":719,"o":"m 382 -14 q 133 89 222 -14 q 44 340 44 192 q 133 592 44 489 q 382 694 222 694 q 631 592 542 694 q 719 340 719 489 q 631 89 719 192 q 382 -14 542 -14 m 382 97 q 538 161 483 97 q 592 340 592 225 q 538 519 592 456 q 382 583 483 583 q 226 519 281 583 q 172 340 172 456 q 226 161 172 225 q 382 97 281 97 m 206 783 l 206 868 l 382 1021 l 558 868 l 558 783 l 382 894 l 206 783 z "},"ồ":{"ha":764,"x_min":44,"x_max":719,"o":"m 382 -14 q 133 89 222 -14 q 44 340 44 192 q 133 592 44 489 q 382 694 222 694 q 631 592 542 694 q 719 340 719 489 q 631 89 719 192 q 382 -14 542 -14 m 382 97 q 538 161 483 97 q 592 340 592 225 q 538 519 592 456 q 382 583 483 583 q 226 519 281 583 q 172 340 172 456 q 226 161 172 225 q 382 97 281 97 m 206 754 l 206 839 l 382 964 l 558 839 l 558 754 l 382 846 l 206 754 m 506 957 l 385 1119 l 517 1119 l 594 957 l 506 957 z "},"ổ":{"ha":764,"x_min":44,"x_max":719,"o":"m 382 -14 q 133 89 222 -14 q 44 340 44 192 q 133 592 44 489 q 382 694 222 694 q 631 592 542 694 q 719 340 719 489 q 631 89 719 192 q 382 -14 542 -14 m 382 97 q 538 161 483 97 q 592 340 592 225 q 538 519 592 456 q 382 583 483 583 q 226 519 281 583 q 172 340 172 456 q 226 161 172 225 q 382 97 281 97 m 206 754 l 206 839 l 382 964 l 558 839 l 558 754 l 382 846 l 206 754 m 515 919 l 503 975 q 551 1029 551 992 q 494 1074 551 1074 q 407 1047 457 1074 l 383 1118 q 494 1144 432 1144 q 592 1117 551 1144 q 632 1038 632 1089 q 515 919 632 946 z "},"ỗ":{"ha":764,"x_min":44,"x_max":719,"o":"m 382 -14 q 133 89 222 -14 q 44 340 44 192 q 133 592 44 489 q 382 694 222 694 q 631 592 542 694 q 719 340 719 489 q 631 89 719 192 q 382 -14 542 -14 m 382 97 q 538 161 483 97 q 592 340 592 225 q 538 519 592 456 q 382 583 483 583 q 226 519 281 583 q 172 340 172 456 q 226 161 172 225 q 382 97 281 97 m 206 754 l 206 839 l 382 964 l 558 839 l 558 754 l 382 846 l 206 754 m 497 1021 q 396 1049 449 1021 q 303 1078 343 1078 q 256 1028 256 1078 l 165 1028 q 267 1167 165 1167 q 368 1138 315 1167 q 461 1110 421 1110 q 508 1160 508 1110 l 599 1160 q 497 1021 599 1021 z "},"ȍ":{"ha":764,"x_min":44,"x_max":719,"o":"m 382 -14 q 133 89 222 -14 q 44 340 44 192 q 133 592 44 489 q 382 694 222 694 q 631 592 542 694 q 719 340 719 489 q 631 89 719 192 q 382 -14 542 -14 m 382 97 q 538 161 483 97 q 592 340 592 225 q 538 519 592 456 q 382 583 483 583 q 226 519 281 583 q 172 340 172 456 q 226 161 172 225 q 382 97 281 97 m 526 803 l 435 803 l 299 1035 l 435 1035 l 526 803 m 332 803 l 240 803 l 97 1035 l 233 1035 l 332 803 z "},"ö":{"ha":764,"x_min":44,"x_max":719,"o":"m 382 -14 q 133 89 222 -14 q 44 340 44 192 q 133 592 44 489 q 382 694 222 694 q 631 592 542 694 q 719 340 719 489 q 631 89 719 192 q 382 -14 542 -14 m 382 97 q 538 161 483 97 q 592 340 592 225 q 538 519 592 456 q 382 583 483 583 q 226 519 281 583 q 172 340 172 456 q 226 161 172 225 q 382 97 281 97 m 456 821 l 456 932 l 575 932 l 575 821 l 456 821 m 189 821 l 189 932 l 308 932 l 308 821 l 189 821 z "},"ȫ":{"ha":764,"x_min":44,"x_max":719,"o":"m 382 -14 q 133 89 222 -14 q 44 340 44 192 q 133 592 44 489 q 382 694 222 694 q 631 592 542 694 q 719 340 719 489 q 631 89 719 192 q 382 -14 542 -14 m 382 97 q 538 161 483 97 q 592 340 592 225 q 538 519 592 456 q 382 583 483 583 q 226 519 281 583 q 172 340 172 456 q 226 161 172 225 q 382 97 281 97 m 189 811 l 189 915 l 308 915 l 308 811 l 189 811 m 456 811 l 456 915 l 575 915 l 575 811 l 456 811 m 160 1032 l 160 1126 l 604 1126 l 604 1032 l 160 1032 z "},"ȱ":{"ha":764,"x_min":44,"x_max":719,"o":"m 382 -14 q 133 89 222 -14 q 44 340 44 192 q 133 592 44 489 q 382 694 222 694 q 631 592 542 694 q 719 340 719 489 q 631 89 719 192 q 382 -14 542 -14 m 382 97 q 538 161 483 97 q 592 340 592 225 q 538 519 592 456 q 382 583 483 583 q 226 519 281 583 q 172 340 172 456 q 226 161 172 225 q 382 97 281 97 m 315 807 l 315 932 l 449 932 l 449 807 l 315 807 m 160 1040 l 160 1135 l 604 1135 l 604 1040 l 160 1040 z "},"ọ":{"ha":764,"x_min":44,"x_max":719,"o":"m 382 -14 q 133 89 222 -14 q 44 340 44 192 q 133 592 44 489 q 382 694 222 694 q 631 592 542 694 q 719 340 719 489 q 631 89 719 192 q 382 -14 542 -14 m 382 97 q 538 161 483 97 q 592 340 592 225 q 538 519 592 456 q 382 583 483 583 q 226 519 281 583 q 172 340 172 456 q 226 161 172 225 q 382 97 281 97 z "},"ò":{"ha":764,"x_min":44,"x_max":719,"o":"m 382 -14 q 133 89 222 -14 q 44 340 44 192 q 133 592 44 489 q 382 694 222 694 q 631 592 542 694 q 719 340 719 489 q 631 89 719 192 q 382 -14 542 -14 m 382 97 q 538 161 483 97 q 592 340 592 225 q 538 519 592 456 q 382 583 483 583 q 226 519 281 583 q 172 340 172 456 q 226 161 172 225 q 382 97 281 97 m 511 800 l 251 901 l 251 1038 l 511 885 l 511 800 z "},"ỏ":{"ha":764,"x_min":44,"x_max":719,"o":"m 382 -14 q 133 89 222 -14 q 44 340 44 192 q 133 592 44 489 q 382 694 222 694 q 631 592 542 694 q 719 340 719 489 q 631 89 719 192 q 382 -14 542 -14 m 382 97 q 538 161 483 97 q 592 340 592 225 q 538 519 592 456 q 382 583 483 583 q 226 519 281 583 q 172 340 172 456 q 226 161 172 225 q 382 97 281 97 m 403 729 l 356 775 q 402 825 388 807 q 417 868 417 843 q 360 918 417 918 q 272 892 322 918 l 249 963 q 360 989 297 989 q 457 958 417 989 q 497 872 497 928 q 474 797 497 828 q 403 729 451 765 z "},"ơ":{"ha":764,"x_min":44,"x_max":719,"o":"m 382 -14 q 133 89 222 -14 q 44 340 44 192 q 133 592 44 489 q 382 694 222 694 q 631 592 542 694 q 719 340 719 489 q 631 89 719 192 q 382 -14 542 -14 m 382 97 q 538 161 483 97 q 592 340 592 225 q 538 519 592 456 q 382 583 483 583 q 226 519 281 583 q 172 340 172 456 q 226 161 172 225 q 382 97 281 97 m 471 585 l 471 681 q 582 783 582 681 l 701 783 q 635 644 701 704 q 471 585 568 585 z "},"ớ":{"ha":764,"x_min":44,"x_max":719,"o":"m 382 -14 q 133 89 222 -14 q 44 340 44 192 q 133 592 44 489 q 382 694 222 694 q 631 592 542 694 q 719 340 719 489 q 631 89 719 192 q 382 -14 542 -14 m 382 97 q 538 161 483 97 q 592 340 592 225 q 538 519 592 456 q 382 583 483 583 q 226 519 281 583 q 172 340 172 456 q 226 161 172 225 q 382 97 281 97 m 471 585 l 471 681 q 582 783 582 681 l 701 783 q 635 644 701 704 q 471 585 568 585 m 253 800 l 253 885 l 513 1038 l 513 901 l 253 800 z "},"ợ":{"ha":764,"x_min":44,"x_max":719,"o":"m 382 -14 q 133 89 222 -14 q 44 340 44 192 q 133 592 44 489 q 382 694 222 694 q 631 592 542 694 q 719 340 719 489 q 631 89 719 192 q 382 -14 542 -14 m 382 97 q 538 161 483 97 q 592 340 592 225 q 538 519 592 456 q 382 583 483 583 q 226 519 281 583 q 172 340 172 456 q 226 161 172 225 q 382 97 281 97 m 471 585 l 471 681 q 582 783 582 681 l 701 783 q 635 644 701 704 q 471 585 568 585 z "},"ờ":{"ha":764,"x_min":44,"x_max":719,"o":"m 382 -14 q 133 89 222 -14 q 44 340 44 192 q 133 592 44 489 q 382 694 222 694 q 631 592 542 694 q 719 340 719 489 q 631 89 719 192 q 382 -14 542 -14 m 382 97 q 538 161 483 97 q 592 340 592 225 q 538 519 592 456 q 382 583 483 583 q 226 519 281 583 q 172 340 172 456 q 226 161 172 225 q 382 97 281 97 m 471 585 l 471 681 q 582 783 582 681 l 701 783 q 635 644 701 704 q 471 585 568 585 m 511 800 l 251 901 l 251 1038 l 511 885 l 511 800 z "},"ở":{"ha":764,"x_min":44,"x_max":719,"o":"m 382 -14 q 133 89 222 -14 q 44 340 44 192 q 133 592 44 489 q 382 694 222 694 q 631 592 542 694 q 719 340 719 489 q 631 89 719 192 q 382 -14 542 -14 m 382 97 q 538 161 483 97 q 592 340 592 225 q 538 519 592 456 q 382 583 483 583 q 226 519 281 583 q 172 340 172 456 q 226 161 172 225 q 382 97 281 97 m 471 585 l 471 681 q 582 783 582 681 l 701 783 q 635 644 701 704 q 471 585 568 585 m 403 729 l 356 775 q 402 825 388 807 q 417 868 417 843 q 360 918 417 918 q 272 892 322 918 l 249 963 q 360 989 297 989 q 457 958 417 989 q 497 872 497 928 q 474 797 497 828 q 403 729 451 765 z "},"ỡ":{"ha":764,"x_min":44,"x_max":719,"o":"m 382 -14 q 133 89 222 -14 q 44 340 44 192 q 133 592 44 489 q 382 694 222 694 q 631 592 542 694 q 719 340 719 489 q 631 89 719 192 q 382 -14 542 -14 m 382 97 q 538 161 483 97 q 592 340 592 225 q 538 519 592 456 q 382 583 483 583 q 226 519 281 583 q 172 340 172 456 q 226 161 172 225 q 382 97 281 97 m 471 585 l 471 681 q 582 783 582 681 l 701 783 q 635 644 701 704 q 471 585 568 585 m 493 806 q 393 838 440 806 q 303 871 346 871 q 256 817 256 871 l 151 817 q 271 971 158 971 q 371 938 324 971 q 461 906 418 906 q 508 960 508 906 l 613 960 q 493 806 606 806 z "},"ő":{"ha":764,"x_min":44,"x_max":719,"o":"m 382 -14 q 133 89 222 -14 q 44 340 44 192 q 133 592 44 489 q 382 694 222 694 q 631 592 542 694 q 719 340 719 489 q 631 89 719 192 q 382 -14 542 -14 m 382 97 q 538 161 483 97 q 592 340 592 225 q 538 519 592 456 q 382 583 483 583 q 226 519 281 583 q 172 340 172 456 q 226 161 172 225 q 382 97 281 97 m 432 803 l 547 1035 l 683 1035 l 524 803 l 432 803 m 238 803 l 346 1035 l 482 1035 l 329 803 l 238 803 z "},"ȏ":{"ha":764,"x_min":44,"x_max":719,"o":"m 382 -14 q 133 89 222 -14 q 44 340 44 192 q 133 592 44 489 q 382 694 222 694 q 631 592 542 694 q 719 340 719 489 q 631 89 719 192 q 382 -14 542 -14 m 382 97 q 538 161 483 97 q 592 340 592 225 q 538 519 592 456 q 382 583 483 583 q 226 519 281 583 q 172 340 172 456 q 226 161 172 225 q 382 97 281 97 m 382 976 q 535 923 486 976 q 585 800 585 869 l 474 800 q 447 864 474 843 q 382 885 419 885 q 317 864 344 885 q 290 800 290 843 l 179 800 q 228 923 179 869 q 382 976 278 976 z "},"ō":{"ha":764,"x_min":44,"x_max":719,"o":"m 382 -14 q 133 89 222 -14 q 44 340 44 192 q 133 592 44 489 q 382 694 222 694 q 631 592 542 694 q 719 340 719 489 q 631 89 719 192 q 382 -14 542 -14 m 382 97 q 538 161 483 97 q 592 340 592 225 q 538 519 592 456 q 382 583 483 583 q 226 519 281 583 q 172 340 172 456 q 226 161 172 225 q 382 97 281 97 m 160 821 l 160 919 l 604 919 l 604 821 l 160 821 z "},"ṓ":{"ha":764,"x_min":44,"x_max":719,"o":"m 382 -14 q 133 89 222 -14 q 44 340 44 192 q 133 592 44 489 q 382 694 222 694 q 631 592 542 694 q 719 340 719 489 q 631 89 719 192 q 382 -14 542 -14 m 382 97 q 538 161 483 97 q 592 340 592 225 q 538 519 592 456 q 382 583 483 583 q 226 519 281 583 q 172 340 172 456 q 226 161 172 225 q 382 97 281 97 m 160 810 l 160 904 l 604 904 l 604 810 l 160 810 m 253 1008 l 253 1089 l 513 1221 l 513 1089 l 253 1008 z "},"ṑ":{"ha":764,"x_min":44,"x_max":719,"o":"m 382 -14 q 133 89 222 -14 q 44 340 44 192 q 133 592 44 489 q 382 694 222 694 q 631 592 542 694 q 719 340 719 489 q 631 89 719 192 q 382 -14 542 -14 m 382 97 q 538 161 483 97 q 592 340 592 225 q 538 519 592 456 q 382 583 483 583 q 226 519 281 583 q 172 340 172 456 q 226 161 172 225 q 382 97 281 97 m 160 810 l 160 904 l 604 904 l 604 810 l 160 810 m 511 1008 l 251 1089 l 251 1221 l 511 1089 l 511 1008 z "},"ǫ":{"ha":764,"x_min":44,"x_max":719,"o":"m 382 -14 q 133 89 222 -14 q 44 340 44 192 q 133 592 44 489 q 382 694 222 694 q 631 592 542 694 q 719 340 719 489 q 631 89 719 192 q 382 -14 542 -14 m 382 97 q 538 161 483 97 q 592 340 592 225 q 538 519 592 456 q 382 583 483 583 q 226 519 281 583 q 172 340 172 456 q 226 161 172 225 q 382 97 281 97 m 410 0 l 483 0 q 405 -73 435 -37 q 375 -147 375 -108 q 442 -218 375 -218 q 529 -194 486 -218 l 550 -262 q 501 -281 531 -272 q 435 -289 472 -289 q 335 -258 376 -289 q 294 -169 294 -228 q 331 -69 294 -114 q 410 0 368 -24 z "},"ø":{"ha":764,"x_min":44,"x_max":719,"o":"m 571 736 l 683 736 l 193 -56 l 81 -56 l 571 736 m 382 -14 q 133 89 222 -14 q 44 340 44 192 q 133 592 44 489 q 382 694 222 694 q 631 592 542 694 q 719 340 719 489 q 631 89 719 192 q 382 -14 542 -14 m 382 97 q 538 161 483 97 q 592 340 592 225 q 538 519 592 456 q 382 583 483 583 q 226 519 281 583 q 172 340 172 456 q 226 161 172 225 q 382 97 281 97 z "},"ǿ":{"ha":764,"x_min":44,"x_max":719,"o":"m 571 736 l 683 736 l 193 -56 l 81 -56 l 571 736 m 382 -14 q 133 89 222 -14 q 44 340 44 192 q 133 592 44 489 q 382 694 222 694 q 631 592 542 694 q 719 340 719 489 q 631 89 719 192 q 382 -14 542 -14 m 382 97 q 538 161 483 97 q 592 340 592 225 q 538 519 592 456 q 382 583 483 583 q 226 519 281 583 q 172 340 172 456 q 226 161 172 225 q 382 97 281 97 m 253 800 l 253 885 l 513 1038 l 513 901 l 253 800 z "},"õ":{"ha":764,"x_min":44,"x_max":719,"o":"m 382 -14 q 133 89 222 -14 q 44 340 44 192 q 133 592 44 489 q 382 694 222 694 q 631 592 542 694 q 719 340 719 489 q 631 89 719 192 q 382 -14 542 -14 m 382 97 q 538 161 483 97 q 592 340 592 225 q 538 519 592 456 q 382 583 483 583 q 226 519 281 583 q 172 340 172 456 q 226 161 172 225 q 382 97 281 97 m 493 806 q 393 838 440 806 q 303 871 346 871 q 256 817 256 871 l 151 817 q 271 971 158 971 q 371 938 324 971 q 461 906 418 906 q 508 960 508 906 l 613 960 q 493 806 606 806 z "},"ṍ":{"ha":764,"x_min":44,"x_max":719,"o":"m 382 -14 q 133 89 222 -14 q 44 340 44 192 q 133 592 44 489 q 382 694 222 694 q 631 592 542 694 q 719 340 719 489 q 631 89 719 192 q 382 -14 542 -14 m 382 97 q 538 161 483 97 q 592 340 592 225 q 538 519 592 456 q 382 583 483 583 q 226 519 281 583 q 172 340 172 456 q 226 161 172 225 q 382 97 281 97 m 497 803 q 396 831 449 803 q 303 860 343 860 q 256 810 256 860 l 165 810 q 267 949 165 949 q 368 920 315 949 q 461 892 421 892 q 508 942 508 892 l 599 942 q 497 803 599 803 m 253 1014 l 253 1094 l 513 1226 l 513 1094 l 253 1014 z "},"ṏ":{"ha":764,"x_min":44,"x_max":719,"o":"m 382 -14 q 133 89 222 -14 q 44 340 44 192 q 133 592 44 489 q 382 694 222 694 q 631 592 542 694 q 719 340 719 489 q 631 89 719 192 q 382 -14 542 -14 m 382 97 q 538 161 483 97 q 592 340 592 225 q 538 519 592 456 q 382 583 483 583 q 226 519 281 583 q 172 340 172 456 q 226 161 172 225 q 382 97 281 97 m 497 803 q 396 831 449 803 q 303 860 343 860 q 256 810 256 860 l 165 810 q 267 949 165 949 q 368 920 315 949 q 461 892 421 892 q 508 942 508 892 l 599 942 q 497 803 599 803 m 189 1056 l 189 1160 l 308 1160 l 308 1056 l 189 1056 m 456 1056 l 456 1160 l 575 1160 l 575 1056 l 456 1056 z "},"ȭ":{"ha":764,"x_min":44,"x_max":719,"o":"m 382 -14 q 133 89 222 -14 q 44 340 44 192 q 133 592 44 489 q 382 694 222 694 q 631 592 542 694 q 719 340 719 489 q 631 89 719 192 q 382 -14 542 -14 m 382 97 q 538 161 483 97 q 592 340 592 225 q 538 519 592 456 q 382 583 483 583 q 226 519 281 583 q 172 340 172 456 q 226 161 172 225 q 382 97 281 97 m 497 803 q 396 831 449 803 q 303 860 343 860 q 256 810 256 860 l 165 810 q 267 949 165 949 q 368 920 315 949 q 461 892 421 892 q 508 942 508 892 l 599 942 q 497 803 599 803 m 160 1054 l 160 1149 l 604 1149 l 604 1054 l 160 1054 z "},"œ":{"ha":1253,"x_min":44,"x_max":1211,"o":"m 382 -14 q 133 89 222 -14 q 44 340 44 192 q 133 592 44 489 q 382 694 222 694 q 556 646 483 694 q 668 517 629 597 l 632 513 q 742 644 669 594 q 918 694 815 694 q 1128 619 1044 694 q 1211 407 1211 544 q 1210 375 1211 392 q 1206 340 1208 358 l 713 340 q 799 148 726 199 q 968 97 871 97 q 1067 107 1015 97 q 1164 138 1118 117 l 1181 39 q 1084 3 1142 21 q 953 -14 1026 -14 q 749 41 831 -14 q 629 185 668 96 l 678 183 q 566 40 642 94 q 382 -14 490 -14 m 382 97 q 538 161 483 97 q 592 340 592 225 q 538 519 592 456 q 382 583 483 583 q 226 519 281 583 q 172 340 172 456 q 226 161 172 225 q 382 97 281 97 m 724 426 l 1082 426 q 1041 541 1082 499 q 915 583 1000 583 q 787 542 832 583 q 724 426 742 500 z "},"p":{"ha":774,"x_min":85,"x_max":728,"o":"m 85 -336 l 85 681 l 182 681 l 204 525 l 169 550 q 276 656 213 617 q 431 694 339 694 q 649 592 569 694 q 728 340 728 489 q 653 89 728 192 q 431 -14 578 -14 q 284 19 350 -14 q 189 121 218 53 l 210 146 l 210 -336 l 85 -336 m 407 97 q 549 161 497 97 q 600 340 600 225 q 549 519 600 456 q 407 583 497 583 q 263 524 322 583 q 203 340 203 464 q 263 155 203 213 q 407 97 322 97 z "},"þ":{"ha":807,"x_min":83,"x_max":761,"o":"m 83 -335 l 83 1042 l 208 1042 l 208 549 l 181 563 q 297 663 232 631 q 442 694 363 694 q 677 589 593 694 q 761 340 761 483 q 679 92 761 197 q 442 -14 597 -14 q 288 19 353 -14 q 188 118 222 53 l 208 138 l 208 -335 l 83 -335 m 421 86 q 581 158 526 86 q 635 340 635 231 q 581 516 635 449 q 421 583 526 583 q 258 519 318 583 q 199 340 199 454 q 258 156 199 225 q 421 86 318 86 z "},"q":{"ha":774,"x_min":46,"x_max":689,"o":"m 564 -336 l 564 146 l 585 121 q 494 19 557 53 q 350 -14 431 -14 q 122 89 199 -14 q 46 340 46 192 q 126 588 46 481 q 349 694 206 694 q 503 657 444 694 q 604 550 561 619 l 569 525 l 592 681 l 689 681 l 689 -336 l 564 -336 m 367 97 q 511 155 451 97 q 571 340 571 213 q 511 524 571 464 q 367 583 451 583 q 225 519 276 583 q 174 340 174 456 q 225 161 174 225 q 367 97 276 97 z "},"r":{"ha":439,"x_min":85,"x_max":436,"o":"m 85 0 l 85 681 l 188 681 l 203 568 q 303 664 256 633 q 404 694 350 694 q 436 690 422 694 l 424 553 q 382 557 406 557 q 282 533 328 557 q 218 481 236 508 l 218 0 l 85 0 z "},"ŕ":{"ha":439,"x_min":85,"x_max":436,"o":"m 85 0 l 85 681 l 188 681 l 203 568 q 303 664 256 633 q 404 694 350 694 q 436 690 422 694 l 424 553 q 382 557 406 557 q 282 533 328 557 q 218 481 236 508 l 218 0 l 85 0 m 164 800 l 164 885 l 424 1038 l 424 901 l 164 800 z "},"ř":{"ha":439,"x_min":85,"x_max":469,"o":"m 85 0 l 85 681 l 188 681 l 203 568 q 303 664 256 633 q 404 694 350 694 q 436 690 422 694 l 424 553 q 382 557 406 557 q 282 533 328 557 q 218 481 236 508 l 218 0 l 85 0 m 293 775 l 117 928 l 117 1013 l 293 901 l 469 1013 l 469 928 l 293 775 z "},"ŗ":{"ha":439,"x_min":76,"x_max":436,"o":"m 85 0 l 85 681 l 188 681 l 203 568 q 303 664 256 633 q 404 694 350 694 q 436 690 422 694 l 424 553 q 382 557 406 557 q 282 533 328 557 q 218 481 236 508 l 218 0 l 85 0 m 156 -422 l 76 -422 l 126 -274 l 78 -274 l 78 -126 l 228 -126 l 228 -260 l 156 -422 z "},"ȑ":{"ha":439,"x_min":8,"x_max":438,"o":"m 85 0 l 85 681 l 188 681 l 203 568 q 303 664 256 633 q 404 694 350 694 q 436 690 422 694 l 424 553 q 382 557 406 557 q 282 533 328 557 q 218 481 236 508 l 218 0 l 85 0 m 438 803 l 346 803 l 210 1035 l 346 1035 l 438 803 m 243 803 l 151 803 l 8 1035 l 144 1035 l 243 803 z "},"ṛ":{"ha":439,"x_min":85,"x_max":436,"o":"m 85 0 l 85 681 l 188 681 l 203 568 q 303 664 256 633 q 404 694 350 694 q 436 690 422 694 l 424 553 q 382 557 406 557 q 282 533 328 557 q 218 481 236 508 l 218 0 l 85 0 z "},"ȓ":{"ha":439,"x_min":85,"x_max":496,"o":"m 85 0 l 85 681 l 188 681 l 203 568 q 303 664 256 633 q 404 694 350 694 q 436 690 422 694 l 424 553 q 382 557 406 557 q 282 533 328 557 q 218 481 236 508 l 218 0 l 85 0 m 293 976 q 447 923 397 976 q 496 800 496 869 l 385 800 q 358 864 385 843 q 293 885 331 885 q 228 864 256 885 q 201 800 201 843 l 90 800 q 140 923 90 869 q 293 976 189 976 z "},"ṟ":{"ha":439,"x_min":-71,"x_max":436,"o":"m 85 0 l 85 681 l 188 681 l 203 568 q 303 664 256 633 q 404 694 350 694 q 436 690 422 694 l 424 553 q 382 557 406 557 q 282 533 328 557 q 218 481 236 508 l 218 0 l 85 0 z "},"s":{"ha":575,"x_min":44,"x_max":538,"o":"m 278 -14 q 128 8 188 -14 q 44 46 68 29 l 60 167 q 138 122 82 147 q 272 97 194 97 q 408 182 408 97 q 361 259 408 235 q 272 294 314 283 q 131 351 203 314 q 58 490 58 388 q 117 631 58 568 q 314 694 175 694 q 424 680 382 694 q 499 650 467 665 l 483 536 q 413 578 453 561 q 317 596 374 596 q 222 574 258 596 q 185 504 185 553 q 224 435 185 456 q 343 392 263 415 q 422 362 376 382 q 503 301 468 342 q 538 189 538 260 q 485 53 538 121 q 278 -14 433 -14 z "},"ś":{"ha":575,"x_min":44,"x_max":538,"o":"m 278 -14 q 128 8 188 -14 q 44 46 68 29 l 60 167 q 138 122 82 147 q 272 97 194 97 q 408 182 408 97 q 361 259 408 235 q 272 294 314 283 q 131 351 203 314 q 58 490 58 388 q 117 631 58 568 q 314 694 175 694 q 424 680 382 694 q 499 650 467 665 l 483 536 q 413 578 453 561 q 317 596 374 596 q 222 574 258 596 q 185 504 185 553 q 224 435 185 456 q 343 392 263 415 q 422 362 376 382 q 503 301 468 342 q 538 189 538 260 q 485 53 538 121 q 278 -14 433 -14 m 179 800 l 179 885 l 439 1038 l 439 901 l 179 800 z "},"ṥ":{"ha":575,"x_min":44,"x_max":538,"o":"m 278 -14 q 128 8 188 -14 q 44 46 68 29 l 60 167 q 138 122 82 147 q 272 97 194 97 q 408 182 408 97 q 361 259 408 235 q 272 294 314 283 q 131 351 203 314 q 58 490 58 388 q 117 631 58 568 q 314 694 175 694 q 424 680 382 694 q 499 650 467 665 l 483 536 q 413 578 453 561 q 317 596 374 596 q 222 574 258 596 q 185 504 185 553 q 224 435 185 456 q 343 392 263 415 q 422 362 376 382 q 503 301 468 342 q 538 189 538 260 q 485 53 538 121 q 278 -14 433 -14 m 179 769 l 179 850 l 439 982 l 439 850 l 179 769 m 242 1046 l 242 1171 l 375 1171 l 375 1046 l 242 1046 z "},"š":{"ha":575,"x_min":44,"x_max":538,"o":"m 278 -14 q 128 8 188 -14 q 44 46 68 29 l 60 167 q 138 122 82 147 q 272 97 194 97 q 408 182 408 97 q 361 259 408 235 q 272 294 314 283 q 131 351 203 314 q 58 490 58 388 q 117 631 58 568 q 314 694 175 694 q 424 680 382 694 q 499 650 467 665 l 483 536 q 413 578 453 561 q 317 596 374 596 q 222 574 258 596 q 185 504 185 553 q 224 435 185 456 q 343 392 263 415 q 422 362 376 382 q 503 301 468 342 q 538 189 538 260 q 485 53 538 121 q 278 -14 433 -14 m 308 775 l 132 928 l 132 1013 l 308 901 l 485 1013 l 485 928 l 308 775 z "},"ṧ":{"ha":575,"x_min":44,"x_max":538,"o":"m 278 -14 q 128 8 188 -14 q 44 46 68 29 l 60 167 q 138 122 82 147 q 272 97 194 97 q 408 182 408 97 q 361 259 408 235 q 272 294 314 283 q 131 351 203 314 q 58 490 58 388 q 117 631 58 568 q 314 694 175 694 q 424 680 382 694 q 499 650 467 665 l 483 536 q 413 578 453 561 q 317 596 374 596 q 222 574 258 596 q 185 504 185 553 q 224 435 185 456 q 343 392 263 415 q 422 362 376 382 q 503 301 468 342 q 538 189 538 260 q 485 53 538 121 q 278 -14 433 -14 m 242 1064 l 242 1189 l 375 1189 l 375 1064 l 242 1064 z "},"ş":{"ha":575,"x_min":44,"x_max":538,"o":"m 278 -14 q 128 8 188 -14 q 44 46 68 29 l 60 167 q 138 122 82 147 q 272 97 194 97 q 408 182 408 97 q 361 259 408 235 q 272 294 314 283 q 131 351 203 314 q 58 490 58 388 q 117 631 58 568 q 314 694 175 694 q 424 680 382 694 q 499 650 467 665 l 483 536 q 413 578 453 561 q 317 596 374 596 q 222 574 258 596 q 185 504 185 553 q 224 435 185 456 q 343 392 263 415 q 422 362 376 382 q 503 301 468 342 q 538 189 538 260 q 485 53 538 121 q 278 -14 433 -14 m 293 -110 l 247 -89 q 315 -75 285 -75 q 436 -187 436 -75 q 393 -281 436 -249 q 289 -314 350 -314 q 226 -306 253 -314 q 181 -287 200 -297 l 201 -219 q 244 -237 222 -231 q 289 -243 265 -243 q 356 -190 356 -243 q 286 -135 356 -135 q 222 -146 254 -135 l 258 0 l 328 0 l 293 -110 z "},"ŝ":{"ha":575,"x_min":44,"x_max":538,"o":"m 278 -14 q 128 8 188 -14 q 44 46 68 29 l 60 167 q 138 122 82 147 q 272 97 194 97 q 408 182 408 97 q 361 259 408 235 q 272 294 314 283 q 131 351 203 314 q 58 490 58 388 q 117 631 58 568 q 314 694 175 694 q 424 680 382 694 q 499 650 467 665 l 483 536 q 413 578 453 561 q 317 596 374 596 q 222 574 258 596 q 185 504 185 553 q 224 435 185 456 q 343 392 263 415 q 422 362 376 382 q 503 301 468 342 q 538 189 538 260 q 485 53 538 121 q 278 -14 433 -14 m 132 783 l 132 868 l 308 1021 l 485 868 l 485 783 l 308 894 l 132 783 z "},"ș":{"ha":575,"x_min":44,"x_max":538,"o":"m 278 -14 q 128 8 188 -14 q 44 46 68 29 l 60 167 q 138 122 82 147 q 272 97 194 97 q 408 182 408 97 q 361 259 408 235 q 272 294 314 283 q 131 351 203 314 q 58 490 58 388 q 117 631 58 568 q 314 694 175 694 q 424 680 382 694 q 499 650 467 665 l 483 536 q 413 578 453 561 q 317 596 374 596 q 222 574 258 596 q 185 504 185 553 q 224 435 185 456 q 343 392 263 415 q 422 362 376 382 q 503 301 468 342 q 538 189 538 260 q 485 53 538 121 q 278 -14 433 -14 m 293 -422 l 214 -422 l 264 -274 l 215 -274 l 215 -126 l 365 -126 l 365 -260 l 293 -422 z "},"ṡ":{"ha":575,"x_min":44,"x_max":538,"o":"m 278 -14 q 128 8 188 -14 q 44 46 68 29 l 60 167 q 138 122 82 147 q 272 97 194 97 q 408 182 408 97 q 361 259 408 235 q 272 294 314 283 q 131 351 203 314 q 58 490 58 388 q 117 631 58 568 q 314 694 175 694 q 424 680 382 694 q 499 650 467 665 l 483 536 q 413 578 453 561 q 317 596 374 596 q 222 574 258 596 q 185 504 185 553 q 224 435 185 456 q 343 392 263 415 q 422 362 376 382 q 503 301 468 342 q 538 189 538 260 q 485 53 538 121 q 278 -14 433 -14 m 242 821 l 242 946 l 375 946 l 375 821 l 242 821 z "},"ṣ":{"ha":575,"x_min":44,"x_max":538,"o":"m 278 -14 q 128 8 188 -14 q 44 46 68 29 l 60 167 q 138 122 82 147 q 272 97 194 97 q 408 182 408 97 q 361 259 408 235 q 272 294 314 283 q 131 351 203 314 q 58 490 58 388 q 117 631 58 568 q 314 694 175 694 q 424 680 382 694 q 499 650 467 665 l 483 536 q 413 578 453 561 q 317 596 374 596 q 222 574 258 596 q 185 504 185 553 q 224 435 185 456 q 343 392 263 415 q 422 362 376 382 q 503 301 468 342 q 538 189 538 260 q 485 53 538 121 q 278 -14 433 -14 z "},"ṩ":{"ha":575,"x_min":44,"x_max":538,"o":"m 278 -14 q 128 8 188 -14 q 44 46 68 29 l 60 167 q 138 122 82 147 q 272 97 194 97 q 408 182 408 97 q 361 259 408 235 q 272 294 314 283 q 131 351 203 314 q 58 490 58 388 q 117 631 58 568 q 314 694 175 694 q 424 680 382 694 q 499 650 467 665 l 483 536 q 413 578 453 561 q 317 596 374 596 q 222 574 258 596 q 185 504 185 553 q 224 435 185 456 q 343 392 263 415 q 422 362 376 382 q 503 301 468 342 q 538 189 538 260 q 485 53 538 121 q 278 -14 433 -14 m 242 821 l 242 946 l 375 946 l 375 821 l 242 821 z "},"ß":{"ha":801,"x_min":25,"x_max":765,"o":"m 481 -19 q 336 0 404 -19 l 336 97 q 482 78 410 78 q 598 110 556 78 q 640 200 640 143 q 602 298 640 263 q 515 361 564 333 q 427 424 465 389 q 389 521 389 460 q 414 609 389 571 q 493 703 439 647 q 544 763 526 738 q 561 829 561 789 q 525 917 561 883 q 419 950 489 950 q 291 901 333 950 q 249 767 249 853 l 249 0 l 129 0 l 129 583 l 25 583 l 36 681 l 129 681 l 129 764 q 210 988 129 914 q 422 1061 292 1061 q 611 1005 540 1061 q 682 851 682 949 q 659 747 682 786 q 606 674 636 707 q 538 597 563 625 q 514 536 514 568 q 552 466 514 494 q 640 408 590 438 q 727 331 689 378 q 765 207 765 285 q 678 36 765 92 q 481 -19 592 -19 z "},"t":{"ha":468,"x_min":25,"x_max":446,"o":"m 319 -14 q 182 37 222 -14 q 142 149 142 88 l 142 583 l 25 583 l 36 681 l 142 681 l 142 849 l 267 861 l 267 681 l 446 681 l 446 583 l 267 583 l 267 225 q 288 107 267 128 q 410 86 308 86 l 442 86 l 432 -14 l 319 -14 z "},"ŧ":{"ha":468,"x_min":25,"x_max":446,"o":"m 319 -14 q 182 37 222 -14 q 142 149 142 88 l 142 583 l 25 583 l 36 681 l 142 681 l 142 849 l 267 861 l 267 681 l 446 681 l 446 583 l 267 583 l 267 225 q 288 107 267 128 q 410 86 308 86 l 442 86 l 432 -14 l 319 -14 m 25 336 l 25 424 l 439 424 l 439 336 l 25 336 z "},"ť":{"ha":468,"x_min":25,"x_max":467,"o":"m 319 -14 q 182 37 222 -14 q 142 149 142 88 l 142 583 l 25 583 l 36 681 l 142 681 l 142 849 l 267 861 l 267 681 l 446 681 l 446 583 l 267 583 l 267 225 q 288 107 267 128 q 410 86 308 86 l 442 86 l 432 -14 l 319 -14 m 336 751 l 336 983 l 467 983 l 428 751 l 336 751 z "},"ţ":{"ha":468,"x_min":25,"x_max":464,"o":"m 319 -14 q 182 37 222 -14 q 142 149 142 88 l 142 583 l 25 583 l 36 681 l 142 681 l 142 849 l 267 861 l 267 681 l 446 681 l 446 583 l 267 583 l 267 225 q 288 107 267 128 q 410 86 308 86 l 442 86 l 432 -14 l 319 -14 z "},"ț":{"ha":468,"x_min":25,"x_max":446,"o":"m 319 -14 q 182 37 222 -14 q 142 149 142 88 l 142 583 l 25 583 l 36 681 l 142 681 l 142 849 l 267 861 l 267 681 l 446 681 l 446 583 l 267 583 l 267 225 q 288 107 267 128 q 410 86 308 86 l 442 86 l 432 -14 l 319 -14 m 321 -422 l 242 -422 l 292 -274 l 243 -274 l 243 -126 l 393 -126 l 393 -260 l 321 -422 z "},"ẗ":{"ha":468,"x_min":11,"x_max":446,"o":"m 319 -14 q 182 37 222 -14 q 142 149 142 88 l 142 583 l 25 583 l 36 681 l 142 681 l 142 849 l 267 861 l 267 681 l 446 681 l 446 583 l 267 583 l 267 225 q 288 107 267 128 q 410 86 308 86 l 442 86 l 432 -14 l 319 -14 m 278 990 l 278 1101 l 397 1101 l 397 990 l 278 990 m 11 990 l 11 1101 l 131 1101 l 131 990 l 11 990 z "},"ṭ":{"ha":468,"x_min":25,"x_max":446,"o":"m 319 -14 q 182 37 222 -14 q 142 149 142 88 l 142 583 l 25 583 l 36 681 l 142 681 l 142 849 l 267 861 l 267 681 l 446 681 l 446 583 l 267 583 l 267 225 q 288 107 267 128 q 410 86 308 86 l 442 86 l 432 -14 l 319 -14 z "},"ṯ":{"ha":468,"x_min":25,"x_max":539,"o":"m 319 -14 q 182 37 222 -14 q 142 149 142 88 l 142 583 l 25 583 l 36 681 l 142 681 l 142 849 l 267 861 l 267 681 l 446 681 l 446 583 l 267 583 l 267 225 q 288 107 267 128 q 410 86 308 86 l 442 86 l 432 -14 l 319 -14 z "},"u":{"ha":728,"x_min":78,"x_max":643,"o":"m 329 -14 q 144 59 210 -14 q 78 285 78 132 l 78 681 l 203 681 l 203 319 q 240 154 203 211 q 361 97 276 97 q 467 125 418 97 q 536 214 517 153 l 518 146 l 518 681 l 643 681 l 643 0 l 532 0 l 507 133 l 540 111 q 457 17 506 47 q 329 -14 408 -14 z "},"ú":{"ha":728,"x_min":78,"x_max":643,"o":"m 329 -14 q 144 59 210 -14 q 78 285 78 132 l 78 681 l 203 681 l 203 319 q 240 154 203 211 q 361 97 276 97 q 467 125 418 97 q 536 214 517 153 l 518 146 l 518 681 l 643 681 l 643 0 l 532 0 l 507 133 l 540 111 q 457 17 506 47 q 329 -14 408 -14 m 235 800 l 235 885 l 494 1038 l 494 901 l 235 800 z "},"ŭ":{"ha":728,"x_min":78,"x_max":643,"o":"m 329 -14 q 144 59 210 -14 q 78 285 78 132 l 78 681 l 203 681 l 203 319 q 240 154 203 211 q 361 97 276 97 q 467 125 418 97 q 536 214 517 153 l 518 146 l 518 681 l 643 681 l 643 0 l 532 0 l 507 133 l 540 111 q 457 17 506 47 q 329 -14 408 -14 m 364 800 q 210 854 260 800 q 161 976 161 908 l 272 976 q 299 913 272 933 q 364 892 326 892 q 428 913 401 892 q 456 976 456 933 l 567 976 q 517 854 567 908 q 364 800 468 800 z "},"û":{"ha":728,"x_min":78,"x_max":643,"o":"m 329 -14 q 144 59 210 -14 q 78 285 78 132 l 78 681 l 203 681 l 203 319 q 240 154 203 211 q 361 97 276 97 q 467 125 418 97 q 536 214 517 153 l 518 146 l 518 681 l 643 681 l 643 0 l 532 0 l 507 133 l 540 111 q 457 17 506 47 q 329 -14 408 -14 m 188 783 l 188 868 l 364 1021 l 540 868 l 540 783 l 364 894 l 188 783 z "},"ȕ":{"ha":728,"x_min":78,"x_max":643,"o":"m 329 -14 q 144 59 210 -14 q 78 285 78 132 l 78 681 l 203 681 l 203 319 q 240 154 203 211 q 361 97 276 97 q 467 125 418 97 q 536 214 517 153 l 518 146 l 518 681 l 643 681 l 643 0 l 532 0 l 507 133 l 540 111 q 457 17 506 47 q 329 -14 408 -14 m 508 803 l 417 803 l 281 1035 l 417 1035 l 508 803 m 314 803 l 222 803 l 79 1035 l 215 1035 l 314 803 z "},"ü":{"ha":728,"x_min":78,"x_max":643,"o":"m 329 -14 q 144 59 210 -14 q 78 285 78 132 l 78 681 l 203 681 l 203 319 q 240 154 203 211 q 361 97 276 97 q 467 125 418 97 q 536 214 517 153 l 518 146 l 518 681 l 643 681 l 643 0 l 532 0 l 507 133 l 540 111 q 457 17 506 47 q 329 -14 408 -14 m 438 821 l 438 932 l 557 932 l 557 821 l 438 821 m 171 821 l 171 932 l 290 932 l 290 821 l 171 821 z "},"ụ":{"ha":728,"x_min":78,"x_max":643,"o":"m 329 -14 q 144 59 210 -14 q 78 285 78 132 l 78 681 l 203 681 l 203 319 q 240 154 203 211 q 361 97 276 97 q 467 125 418 97 q 536 214 517 153 l 518 146 l 518 681 l 643 681 l 643 0 l 532 0 l 507 133 l 540 111 q 457 17 506 47 q 329 -14 408 -14 z "},"ù":{"ha":728,"x_min":78,"x_max":643,"o":"m 329 -14 q 144 59 210 -14 q 78 285 78 132 l 78 681 l 203 681 l 203 319 q 240 154 203 211 q 361 97 276 97 q 467 125 418 97 q 536 214 517 153 l 518 146 l 518 681 l 643 681 l 643 0 l 532 0 l 507 133 l 540 111 q 457 17 506 47 q 329 -14 408 -14 m 493 800 l 233 901 l 233 1038 l 493 885 l 493 800 z "},"ủ":{"ha":728,"x_min":78,"x_max":643,"o":"m 329 -14 q 144 59 210 -14 q 78 285 78 132 l 78 681 l 203 681 l 203 319 q 240 154 203 211 q 361 97 276 97 q 467 125 418 97 q 536 214 517 153 l 518 146 l 518 681 l 643 681 l 643 0 l 532 0 l 507 133 l 540 111 q 457 17 506 47 q 329 -14 408 -14 m 385 729 l 338 775 q 384 825 369 807 q 399 868 399 843 q 342 918 399 918 q 254 892 304 918 l 231 963 q 342 989 279 989 q 439 958 399 989 q 479 872 479 928 q 456 797 479 828 q 385 729 433 765 z "},"ư":{"ha":728,"x_min":78,"x_max":806,"o":"m 329 -14 q 144 59 210 -14 q 78 285 78 132 l 78 681 l 203 681 l 203 319 q 240 154 203 211 q 361 97 276 97 q 467 125 418 97 q 536 214 517 153 l 518 146 l 518 681 l 643 681 l 643 0 l 532 0 l 507 133 l 540 111 q 457 17 506 47 q 329 -14 408 -14 m 575 585 l 575 681 q 686 783 686 681 l 806 783 q 739 644 806 704 q 575 585 672 585 z "},"ứ":{"ha":728,"x_min":78,"x_max":806,"o":"m 329 -14 q 144 59 210 -14 q 78 285 78 132 l 78 681 l 203 681 l 203 319 q 240 154 203 211 q 361 97 276 97 q 467 125 418 97 q 536 214 517 153 l 518 146 l 518 681 l 643 681 l 643 0 l 532 0 l 507 133 l 540 111 q 457 17 506 47 q 329 -14 408 -14 m 575 585 l 575 681 q 686 783 686 681 l 806 783 q 739 644 806 704 q 575 585 672 585 m 235 800 l 235 885 l 494 1038 l 494 901 l 235 800 z "},"ự":{"ha":728,"x_min":78,"x_max":806,"o":"m 329 -14 q 144 59 210 -14 q 78 285 78 132 l 78 681 l 203 681 l 203 319 q 240 154 203 211 q 361 97 276 97 q 467 125 418 97 q 536 214 517 153 l 518 146 l 518 681 l 643 681 l 643 0 l 532 0 l 507 133 l 540 111 q 457 17 506 47 q 329 -14 408 -14 m 575 585 l 575 681 q 686 783 686 681 l 806 783 q 739 644 806 704 q 575 585 672 585 z "},"ừ":{"ha":728,"x_min":78,"x_max":806,"o":"m 329 -14 q 144 59 210 -14 q 78 285 78 132 l 78 681 l 203 681 l 203 319 q 240 154 203 211 q 361 97 276 97 q 467 125 418 97 q 536 214 517 153 l 518 146 l 518 681 l 643 681 l 643 0 l 532 0 l 507 133 l 540 111 q 457 17 506 47 q 329 -14 408 -14 m 575 585 l 575 681 q 686 783 686 681 l 806 783 q 739 644 806 704 q 575 585 672 585 m 493 800 l 233 901 l 233 1038 l 493 885 l 493 800 z "},"ử":{"ha":728,"x_min":78,"x_max":806,"o":"m 329 -14 q 144 59 210 -14 q 78 285 78 132 l 78 681 l 203 681 l 203 319 q 240 154 203 211 q 361 97 276 97 q 467 125 418 97 q 536 214 517 153 l 518 146 l 518 681 l 643 681 l 643 0 l 532 0 l 507 133 l 540 111 q 457 17 506 47 q 329 -14 408 -14 m 575 585 l 575 681 q 686 783 686 681 l 806 783 q 739 644 806 704 q 575 585 672 585 m 385 729 l 338 775 q 384 825 369 807 q 399 868 399 843 q 342 918 399 918 q 254 892 304 918 l 231 963 q 342 989 279 989 q 439 958 399 989 q 479 872 479 928 q 456 797 479 828 q 385 729 433 765 z "},"ữ":{"ha":728,"x_min":78,"x_max":806,"o":"m 329 -14 q 144 59 210 -14 q 78 285 78 132 l 78 681 l 203 681 l 203 319 q 240 154 203 211 q 361 97 276 97 q 467 125 418 97 q 536 214 517 153 l 518 146 l 518 681 l 643 681 l 643 0 l 532 0 l 507 133 l 540 111 q 457 17 506 47 q 329 -14 408 -14 m 575 585 l 575 681 q 686 783 686 681 l 806 783 q 739 644 806 704 q 575 585 672 585 m 475 806 q 375 838 422 806 q 285 871 328 871 q 238 817 238 871 l 133 817 q 253 971 140 971 q 353 938 306 971 q 443 906 400 906 q 490 960 490 906 l 594 960 q 475 806 588 806 z "},"ű":{"ha":728,"x_min":78,"x_max":665,"o":"m 329 -14 q 144 59 210 -14 q 78 285 78 132 l 78 681 l 203 681 l 203 319 q 240 154 203 211 q 361 97 276 97 q 467 125 418 97 q 536 214 517 153 l 518 146 l 518 681 l 643 681 l 643 0 l 532 0 l 507 133 l 540 111 q 457 17 506 47 q 329 -14 408 -14 m 414 803 l 529 1035 l 665 1035 l 506 803 l 414 803 m 219 803 l 328 1035 l 464 1035 l 311 803 l 219 803 z "},"ȗ":{"ha":728,"x_min":78,"x_max":643,"o":"m 329 -14 q 144 59 210 -14 q 78 285 78 132 l 78 681 l 203 681 l 203 319 q 240 154 203 211 q 361 97 276 97 q 467 125 418 97 q 536 214 517 153 l 518 146 l 518 681 l 643 681 l 643 0 l 532 0 l 507 133 l 540 111 q 457 17 506 47 q 329 -14 408 -14 m 364 976 q 517 923 468 976 q 567 800 567 869 l 456 800 q 428 864 456 843 q 364 885 401 885 q 299 864 326 885 q 272 800 272 843 l 161 800 q 210 923 161 869 q 364 976 260 976 z "},"ū":{"ha":728,"x_min":78,"x_max":643,"o":"m 329 -14 q 144 59 210 -14 q 78 285 78 132 l 78 681 l 203 681 l 203 319 q 240 154 203 211 q 361 97 276 97 q 467 125 418 97 q 536 214 517 153 l 518 146 l 518 681 l 643 681 l 643 0 l 532 0 l 507 133 l 540 111 q 457 17 506 47 q 329 -14 408 -14 m 142 821 l 142 919 l 586 919 l 586 821 l 142 821 z "},"ṻ":{"ha":728,"x_min":78,"x_max":643,"o":"m 329 -14 q 144 59 210 -14 q 78 285 78 132 l 78 681 l 203 681 l 203 319 q 240 154 203 211 q 361 97 276 97 q 467 125 418 97 q 536 214 517 153 l 518 146 l 518 681 l 643 681 l 643 0 l 532 0 l 507 133 l 540 111 q 457 17 506 47 q 329 -14 408 -14 m 142 810 l 142 904 l 586 904 l 586 810 l 142 810 m 171 1050 l 171 1154 l 290 1154 l 290 1050 l 171 1050 m 438 1050 l 438 1154 l 557 1154 l 557 1050 l 438 1050 z "},"ų":{"ha":728,"x_min":78,"x_max":710,"o":"m 329 -14 q 144 59 210 -14 q 78 285 78 132 l 78 681 l 203 681 l 203 319 q 240 154 203 211 q 361 97 276 97 q 467 125 418 97 q 536 214 517 153 l 518 146 l 518 681 l 643 681 l 643 0 l 532 0 l 507 133 l 540 111 q 457 17 506 47 q 329 -14 408 -14 m 569 0 l 643 0 q 565 -73 594 -37 q 535 -147 535 -108 q 601 -218 535 -218 q 689 -194 646 -218 l 710 -262 q 661 -281 690 -272 q 594 -289 632 -289 q 495 -258 536 -289 q 454 -169 454 -228 q 491 -69 454 -114 q 569 0 528 -24 z "},"ů":{"ha":728,"x_min":78,"x_max":643,"o":"m 329 -14 q 144 59 210 -14 q 78 285 78 132 l 78 681 l 203 681 l 203 319 q 240 154 203 211 q 361 97 276 97 q 467 125 418 97 q 536 214 517 153 l 518 146 l 518 681 l 643 681 l 643 0 l 532 0 l 507 133 l 540 111 q 457 17 506 47 q 329 -14 408 -14 m 364 789 q 256 831 292 789 q 219 928 219 874 q 256 1024 219 981 q 364 1067 293 1067 q 472 1024 436 1067 q 508 928 508 981 q 472 831 508 874 q 364 789 436 789 m 364 850 q 418 871 394 850 q 442 928 442 892 q 418 984 442 963 q 364 1006 394 1006 q 310 984 333 1006 q 286 928 286 963 q 310 871 286 892 q 364 850 333 850 z "},"ũ":{"ha":728,"x_min":78,"x_max":643,"o":"m 329 -14 q 144 59 210 -14 q 78 285 78 132 l 78 681 l 203 681 l 203 319 q 240 154 203 211 q 361 97 276 97 q 467 125 418 97 q 536 214 517 153 l 518 146 l 518 681 l 643 681 l 643 0 l 532 0 l 507 133 l 540 111 q 457 17 506 47 q 329 -14 408 -14 m 475 806 q 375 838 422 806 q 285 871 328 871 q 238 817 238 871 l 133 817 q 253 971 140 971 q 353 938 306 971 q 443 906 400 906 q 490 960 490 906 l 594 960 q 475 806 588 806 z "},"ṹ":{"ha":728,"x_min":78,"x_max":643,"o":"m 329 -14 q 144 59 210 -14 q 78 285 78 132 l 78 681 l 203 681 l 203 319 q 240 154 203 211 q 361 97 276 97 q 467 125 418 97 q 536 214 517 153 l 518 146 l 518 681 l 643 681 l 643 0 l 532 0 l 507 133 l 540 111 q 457 17 506 47 q 329 -14 408 -14 m 479 803 q 378 831 431 803 q 285 860 325 860 q 238 810 238 860 l 147 810 q 249 949 147 949 q 350 920 297 949 q 443 892 403 892 q 490 942 490 892 l 581 942 q 479 803 581 803 m 235 1014 l 235 1094 l 494 1226 l 494 1094 l 235 1014 z "},"v":{"ha":683,"x_min":13,"x_max":671,"o":"m 272 0 l 13 681 l 151 681 l 342 138 l 531 681 l 671 681 l 413 0 l 272 0 z "},"w":{"ha":1007,"x_min":17,"x_max":992,"o":"m 221 0 l 17 681 l 164 681 l 294 138 l 439 660 l 568 660 l 714 138 l 844 681 l 992 681 l 786 0 l 646 0 l 504 503 l 361 0 l 221 0 z "},"ẃ":{"ha":1007,"x_min":17,"x_max":992,"o":"m 221 0 l 17 681 l 164 681 l 294 138 l 439 660 l 568 660 l 714 138 l 844 681 l 992 681 l 786 0 l 646 0 l 504 503 l 361 0 l 221 0 m 375 800 l 375 885 l 635 1038 l 635 901 l 375 800 z "},"ŵ":{"ha":1007,"x_min":17,"x_max":992,"o":"m 221 0 l 17 681 l 164 681 l 294 138 l 439 660 l 568 660 l 714 138 l 844 681 l 992 681 l 786 0 l 646 0 l 504 503 l 361 0 l 221 0 m 328 783 l 328 868 l 504 1021 l 681 868 l 681 783 l 504 894 l 328 783 z "},"ẅ":{"ha":1007,"x_min":17,"x_max":992,"o":"m 221 0 l 17 681 l 164 681 l 294 138 l 439 660 l 568 660 l 714 138 l 844 681 l 992 681 l 786 0 l 646 0 l 504 503 l 361 0 l 221 0 m 578 821 l 578 932 l 697 932 l 697 821 l 578 821 m 311 821 l 311 932 l 431 932 l 431 821 l 311 821 z "},"ẁ":{"ha":1007,"x_min":17,"x_max":992,"o":"m 221 0 l 17 681 l 164 681 l 294 138 l 439 660 l 568 660 l 714 138 l 844 681 l 992 681 l 786 0 l 646 0 l 504 503 l 361 0 l 221 0 m 633 800 l 374 901 l 374 1038 l 633 885 l 633 800 z "},"x":{"ha":658,"x_min":15,"x_max":643,"o":"m 15 0 l 253 339 l 21 681 l 161 681 l 332 411 l 489 681 l 635 681 l 411 350 l 643 0 l 503 0 l 331 268 l 156 0 l 15 0 z "},"y":{"ha":701,"x_min":10,"x_max":692,"o":"m 136 -336 l 293 31 l 10 681 l 149 681 l 361 175 l 553 681 l 692 681 l 275 -336 l 136 -336 z "},"ý":{"ha":701,"x_min":10,"x_max":692,"o":"m 136 -336 l 293 31 l 10 681 l 149 681 l 361 175 l 553 681 l 692 681 l 275 -336 l 136 -336 m 222 800 l 222 885 l 482 1038 l 482 901 l 222 800 z "},"ŷ":{"ha":701,"x_min":10,"x_max":692,"o":"m 136 -336 l 293 31 l 10 681 l 149 681 l 361 175 l 553 681 l 692 681 l 275 -336 l 136 -336 m 175 783 l 175 868 l 351 1021 l 528 868 l 528 783 l 351 894 l 175 783 z "},"ÿ":{"ha":701,"x_min":10,"x_max":692,"o":"m 136 -336 l 293 31 l 10 681 l 149 681 l 361 175 l 553 681 l 692 681 l 275 -336 l 136 -336 m 425 821 l 425 932 l 544 932 l 544 821 l 425 821 m 158 821 l 158 932 l 278 932 l 278 821 l 158 821 z "},"ẏ":{"ha":701,"x_min":10,"x_max":692,"o":"m 136 -336 l 293 31 l 10 681 l 149 681 l 361 175 l 553 681 l 692 681 l 275 -336 l 136 -336 m 285 821 l 285 946 l 418 946 l 418 821 l 285 821 z "},"ỵ":{"ha":701,"x_min":10,"x_max":692,"o":"m 136 -336 l 293 31 l 10 681 l 149 681 l 361 175 l 553 681 l 692 681 l 275 -336 l 136 -336 z "},"ỳ":{"ha":701,"x_min":10,"x_max":692,"o":"m 136 -336 l 293 31 l 10 681 l 149 681 l 361 175 l 553 681 l 692 681 l 275 -336 l 136 -336 m 481 800 l 221 901 l 221 1038 l 481 885 l 481 800 z "},"ỷ":{"ha":701,"x_min":10,"x_max":692,"o":"m 136 -336 l 293 31 l 10 681 l 149 681 l 361 175 l 553 681 l 692 681 l 275 -336 l 136 -336 m 372 729 l 325 775 q 372 825 357 807 q 386 868 386 843 q 329 918 386 918 q 242 892 292 918 l 218 963 q 329 989 267 989 q 426 958 386 989 q 467 872 467 928 q 444 797 467 828 q 372 729 421 765 z "},"ȳ":{"ha":701,"x_min":10,"x_max":692,"o":"m 136 -336 l 293 31 l 10 681 l 149 681 l 361 175 l 553 681 l 692 681 l 275 -336 l 136 -336 m 129 821 l 129 919 l 574 919 l 574 821 l 129 821 z "},"ỹ":{"ha":701,"x_min":10,"x_max":692,"o":"m 136 -336 l 293 31 l 10 681 l 149 681 l 361 175 l 553 681 l 692 681 l 275 -336 l 136 -336 m 463 806 q 363 838 410 806 q 272 871 315 871 q 225 817 225 871 l 121 817 q 240 971 128 971 q 340 938 293 971 q 431 906 388 906 q 478 960 478 906 l 582 960 q 463 806 575 806 z "},"z":{"ha":654,"x_min":31,"x_max":619,"o":"m 31 0 l 451 633 l 467 571 l 53 571 l 53 681 l 619 681 l 199 47 l 183 110 l 613 110 l 613 0 l 31 0 z "},"ź":{"ha":654,"x_min":31,"x_max":619,"o":"m 31 0 l 451 633 l 467 571 l 53 571 l 53 681 l 619 681 l 199 47 l 183 110 l 613 110 l 613 0 l 31 0 m 206 814 l 206 899 l 465 1051 l 465 915 l 206 814 z "},"ž":{"ha":654,"x_min":31,"x_max":619,"o":"m 31 0 l 451 633 l 467 571 l 53 571 l 53 681 l 619 681 l 199 47 l 183 110 l 613 110 l 613 0 l 31 0 m 335 789 l 158 942 l 158 1026 l 335 915 l 511 1026 l 511 942 l 335 789 z "},"ż":{"ha":654,"x_min":31,"x_max":619,"o":"m 31 0 l 451 633 l 467 571 l 53 571 l 53 681 l 619 681 l 199 47 l 183 110 l 613 110 l 613 0 l 31 0 m 268 835 l 268 960 l 401 960 l 401 835 l 268 835 z "},"ẓ":{"ha":654,"x_min":31,"x_max":619,"o":"m 31 0 l 451 633 l 467 571 l 53 571 l 53 681 l 619 681 l 199 47 l 183 110 l 613 110 l 613 0 l 31 0 z "},"ª":{"ha":485,"x_min":46,"x_max":435,"o":"m 167 603 q 81 633 117 603 q 46 721 46 664 q 88 806 46 776 q 186 848 131 836 q 279 861 242 860 q 261 905 278 890 q 206 919 244 919 q 90 892 158 919 l 82 975 q 233 1007 154 1007 q 344 972 303 1007 q 385 857 385 938 l 385 746 q 392 695 385 703 q 421 688 399 688 l 435 688 l 425 603 l 388 603 q 329 615 353 603 q 294 646 306 628 q 239 614 274 625 q 167 603 204 603 m 206 681 q 281 704 247 681 l 281 792 q 193 773 231 788 q 156 724 156 758 q 206 681 156 681 z "},"º":{"ha":514,"x_min":46,"x_max":468,"o":"m 257 603 q 101 664 157 603 q 46 806 46 725 q 101 947 46 886 q 257 1007 157 1007 q 413 947 357 1007 q 468 806 468 886 q 413 664 468 725 q 257 603 357 603 m 257 686 q 334 719 307 686 q 361 806 361 753 q 334 892 361 858 q 257 925 307 925 q 180 892 207 925 q 153 806 153 858 q 180 719 153 753 q 257 686 207 686 z "},"π":{"ha":906,"x_min":28,"x_max":872,"o":"m 790 94 q 867 110 831 94 l 867 13 q 815 -6 847 3 q 744 -14 782 -14 q 588 175 588 -14 l 588 583 l 317 583 l 317 0 l 192 0 l 192 583 l 28 583 l 28 681 l 872 681 l 872 583 l 711 583 l 711 194 q 790 94 711 94 z "},"₀":{"ha":544,"x_min":42,"x_max":503,"o":"m 272 -100 q 103 -21 164 -100 q 42 182 42 58 q 106 381 42 306 q 272 456 169 456 q 440 381 376 456 q 503 182 503 306 q 442 -21 503 58 q 272 -100 382 -100 m 272 0 q 389 182 389 0 q 272 356 389 356 q 189 313 222 356 q 156 182 156 269 q 272 0 156 0 z "},"₁":{"ha":329,"x_min":44,"x_max":240,"o":"m 136 -81 l 136 307 q 54 261 99 272 l 44 353 q 164 436 121 379 l 240 436 l 240 -81 l 136 -81 z "},"₂":{"ha":461,"x_min":50,"x_max":408,"o":"m 51 -81 l 206 139 q 256 222 243 193 q 268 281 268 250 q 249 333 268 311 q 193 356 229 356 q 119 338 153 356 q 60 296 86 319 l 50 403 q 120 439 78 422 q 210 456 163 456 q 334 410 286 456 q 382 294 382 364 q 367 209 382 249 q 300 96 351 169 l 188 -65 l 175 14 l 408 14 l 408 -81 l 51 -81 z "},"₃":{"ha":496,"x_min":56,"x_max":419,"o":"m 229 -100 q 135 -89 179 -100 q 56 -60 92 -78 l 82 35 q 146 3 114 15 q 217 -10 178 -10 q 306 63 306 -10 q 213 140 306 140 l 174 140 l 174 231 l 214 231 q 296 300 296 231 q 214 365 296 365 q 151 355 181 365 q 96 326 122 344 l 86 422 q 236 456 153 456 q 358 417 314 456 q 403 318 403 379 q 374 228 403 261 q 304 181 346 196 l 304 197 q 388 149 357 185 q 419 58 419 114 q 365 -58 419 -15 q 229 -100 311 -100 z "},"₄":{"ha":517,"x_min":25,"x_max":461,"o":"m 301 -81 l 301 29 l 25 29 l 315 436 l 393 436 l 393 111 l 461 111 l 461 29 l 393 29 l 393 -81 l 301 -81 m 165 85 l 131 111 l 301 111 l 301 207 l 301 358 l 335 329 l 263 224 l 165 85 z "},"₅":{"ha":461,"x_min":63,"x_max":410,"o":"m 211 -100 q 63 -64 132 -100 l 89 31 q 147 1 118 11 q 211 -10 176 -10 q 303 72 303 -10 q 200 158 303 158 q 143 154 171 158 q 92 143 115 150 l 124 436 l 392 436 l 386 346 l 171 346 l 210 404 l 186 210 l 151 238 q 229 249 189 249 q 364 202 318 249 q 410 79 410 156 q 353 -53 410 -7 q 211 -100 297 -100 z "},"₆":{"ha":482,"x_min":58,"x_max":439,"o":"m 254 -100 q 107 -46 156 -100 q 58 99 58 8 q 138 313 58 222 q 322 456 217 404 l 385 389 q 224 278 297 351 q 150 111 150 206 l 126 156 q 267 238 164 238 q 391 190 343 238 q 439 69 439 142 q 388 -52 439 -4 q 254 -100 336 -100 m 251 -10 q 310 13 288 -10 q 332 69 332 36 q 310 125 332 103 q 251 147 288 147 q 192 125 215 147 q 169 69 169 103 q 192 13 169 35 q 251 -10 215 -10 z "},"₇":{"ha":461,"x_min":58,"x_max":429,"o":"m 93 -81 l 310 408 l 339 354 l 58 354 l 58 444 l 429 444 l 193 -81 l 93 -81 z "},"₈":{"ha":436,"x_min":28,"x_max":408,"o":"m 218 -100 q 78 -55 129 -100 q 28 61 28 -10 q 81 182 28 136 q 218 228 133 228 q 356 182 303 228 q 408 61 408 136 q 357 -55 408 -10 q 218 -100 306 -100 m 218 -12 q 304 72 304 -12 q 218 156 304 156 q 132 72 132 156 q 218 -12 132 -12 m 218 246 q 281 307 281 246 q 218 368 281 368 q 156 307 156 368 q 218 246 156 246 m 218 172 q 101 211 144 172 q 58 313 58 250 q 99 412 58 368 q 221 456 139 456 q 340 412 301 456 q 378 313 378 368 q 335 211 378 250 q 218 172 292 172 z "},"₉":{"ha":482,"x_min":43,"x_max":424,"o":"m 228 456 q 375 401 326 456 q 424 257 424 347 q 345 42 424 133 q 160 -100 267 -49 l 97 -33 q 258 77 185 4 q 332 244 332 150 l 356 200 q 215 118 318 118 q 91 166 139 118 q 43 286 43 214 q 94 408 43 360 q 228 456 146 456 m 231 365 q 172 342 194 365 q 150 286 150 319 q 172 231 150 253 q 231 208 194 208 q 290 231 267 208 q 313 286 313 253 q 290 343 313 321 q 231 365 267 365 z "},"⁰":{"ha":544,"x_min":42,"x_max":503,"o":"m 272 517 q 103 596 164 517 q 42 799 42 675 q 106 997 42 922 q 272 1072 169 1072 q 440 997 376 1072 q 503 799 503 922 q 442 596 503 675 q 272 517 382 517 m 272 617 q 389 799 389 617 q 272 972 389 972 q 189 929 222 972 q 156 799 156 886 q 272 617 156 617 z "},"¹":{"ha":329,"x_min":44,"x_max":240,"o":"m 136 536 l 136 924 q 54 878 99 889 l 44 969 q 164 1053 121 996 l 240 1053 l 240 536 l 136 536 z "},"²":{"ha":461,"x_min":50,"x_max":408,"o":"m 51 536 l 206 756 q 256 838 243 810 q 268 897 268 867 q 249 950 268 928 q 193 972 229 972 q 119 954 153 972 q 60 913 86 936 l 50 1019 q 120 1056 78 1039 q 210 1072 163 1072 q 334 1026 286 1072 q 382 911 382 981 q 367 826 382 865 q 300 713 351 786 l 188 551 l 175 631 l 408 631 l 408 536 l 51 536 z "},"³":{"ha":496,"x_min":56,"x_max":419,"o":"m 229 517 q 135 528 179 517 q 56 557 92 539 l 82 651 q 146 619 114 632 q 217 607 178 607 q 306 679 306 607 q 213 757 306 757 l 174 757 l 174 847 l 214 847 q 296 917 296 847 q 214 982 296 982 q 151 972 181 982 q 96 943 122 961 l 86 1039 q 236 1072 153 1072 q 358 1034 314 1072 q 403 935 403 996 q 374 845 403 878 q 304 797 346 813 l 304 814 q 388 766 357 801 q 419 675 419 731 q 365 559 419 601 q 229 517 311 517 z "},"⁴":{"ha":517,"x_min":25,"x_max":461,"o":"m 301 536 l 301 646 l 25 646 l 315 1053 l 393 1053 l 393 728 l 461 728 l 461 646 l 393 646 l 393 536 l 301 536 m 165 701 l 131 728 l 301 728 l 301 824 l 301 975 l 335 946 l 263 840 l 165 701 z "},"⁵":{"ha":461,"x_min":63,"x_max":410,"o":"m 211 517 q 63 553 132 517 l 89 647 q 147 617 118 628 q 211 607 176 607 q 303 689 303 607 q 200 775 303 775 q 143 771 171 775 q 92 760 115 767 l 124 1053 l 392 1053 l 386 963 l 171 963 l 210 1021 l 186 826 l 151 854 q 229 865 189 865 q 364 819 318 865 q 410 696 410 772 q 353 563 410 610 q 211 517 297 517 z "},"⁶":{"ha":482,"x_min":58,"x_max":439,"o":"m 254 517 q 107 571 156 517 q 58 715 58 625 q 138 930 58 839 q 322 1072 217 1021 l 385 1006 q 224 895 297 968 q 150 728 150 822 l 126 772 q 267 854 164 854 q 391 806 343 854 q 439 686 439 758 q 388 565 439 613 q 254 517 336 517 m 251 607 q 310 630 288 607 q 332 686 332 653 q 310 742 332 719 q 251 764 288 764 q 192 742 215 764 q 169 686 169 719 q 192 629 169 651 q 251 607 215 607 z "},"⁷":{"ha":461,"x_min":58,"x_max":429,"o":"m 93 536 l 310 1025 l 339 971 l 58 971 l 58 1061 l 429 1061 l 193 536 l 93 536 z "},"⁸":{"ha":436,"x_min":28,"x_max":408,"o":"m 218 517 q 78 562 129 517 q 28 678 28 607 q 81 799 28 753 q 218 844 133 844 q 356 799 303 844 q 408 678 408 753 q 357 562 408 607 q 218 517 306 517 m 218 604 q 304 689 304 604 q 218 772 304 772 q 132 689 132 772 q 218 604 132 604 m 218 863 q 281 924 281 863 q 218 985 281 985 q 156 924 156 985 q 218 863 156 863 m 218 789 q 101 828 144 789 q 58 929 58 867 q 99 1028 58 985 q 221 1072 139 1072 q 340 1028 301 1072 q 378 929 378 985 q 335 828 378 867 q 218 789 292 789 z "},"⁹":{"ha":482,"x_min":43,"x_max":424,"o":"m 228 1072 q 375 1018 326 1072 q 424 874 424 964 q 345 659 424 750 q 160 517 267 568 l 97 583 q 258 694 185 621 q 332 861 332 767 l 356 817 q 215 735 318 735 q 91 783 139 735 q 43 903 43 831 q 94 1024 43 976 q 228 1072 146 1072 m 231 982 q 172 959 194 982 q 150 903 150 936 q 172 847 150 869 q 231 825 194 825 q 290 847 267 825 q 313 903 313 869 q 290 960 313 938 q 231 982 267 982 z "},"⁄":{"ha":121,"x_min":-299,"x_max":378,"o":"m -299 0 l 261 972 l 378 972 l -181 0 l -299 0 z "},"½":{"ha":943,"x_min":42,"x_max":901,"o":"m 133 456 l 133 843 q 51 797 96 808 l 42 889 q 161 972 118 915 l 238 972 l 238 456 l 133 456 m 69 0 l 629 972 l 746 972 l 188 0 l 69 0 m 544 0 l 699 219 q 749 302 736 274 q 761 361 761 331 q 742 414 761 392 q 686 436 722 436 q 613 418 646 436 q 553 376 579 400 l 543 483 q 613 519 571 503 q 703 536 656 536 q 827 490 779 536 q 875 375 875 444 q 860 290 875 329 q 793 176 844 250 l 681 15 l 668 94 l 901 94 l 901 0 l 544 0 z "},"¼":{"ha":878,"x_min":42,"x_max":825,"o":"m 133 456 l 133 843 q 51 797 96 808 l 42 889 q 161 972 118 915 l 238 972 l 238 456 l 133 456 m 83 0 l 643 972 l 760 972 l 201 0 l 83 0 m 665 0 l 665 110 l 389 110 l 679 517 l 757 517 l 757 192 l 825 192 l 825 110 l 757 110 l 757 0 l 665 0 m 529 165 l 494 192 l 665 192 l 665 288 l 665 439 l 699 410 l 626 304 l 529 165 z "},"¾":{"ha":978,"x_min":56,"x_max":925,"o":"m 229 436 q 135 447 179 436 q 56 476 92 458 l 82 571 q 146 539 114 551 q 217 526 178 526 q 306 599 306 526 q 213 676 306 676 l 174 676 l 174 767 l 214 767 q 296 836 296 767 q 214 901 296 901 q 151 891 181 901 q 96 863 122 881 l 86 958 q 236 992 153 992 q 358 953 314 992 q 403 854 403 915 q 374 765 403 797 q 304 717 346 732 l 304 733 q 388 685 357 721 q 419 594 419 650 q 365 478 419 521 q 229 436 311 436 m 183 0 l 743 972 l 860 972 l 301 0 l 183 0 m 765 0 l 765 110 l 489 110 l 779 517 l 857 517 l 857 192 l 925 192 l 925 110 l 857 110 l 857 0 l 765 0 m 629 165 l 594 192 l 765 192 l 765 288 l 765 439 l 799 410 l 726 304 l 629 165 z "},"*":{"ha":593,"x_min":47,"x_max":546,"o":"m 47 663 l 239 776 l 47 889 l 85 956 l 265 832 l 258 1042 l 335 1042 l 328 832 l 508 956 l 546 889 l 354 776 l 546 663 l 508 596 l 328 719 l 335 510 l 258 510 l 265 719 l 85 596 l 47 663 z "},"\\":{"ha":421,"x_min":-14,"x_max":463,"o":"m 331 -118 l -14 972 l 118 972 l 463 -118 l 331 -118 z "},"·":{"ha":331,"x_min":79,"x_max":251,"o":"m 79 296 l 79 476 l 251 476 l 251 296 l 79 296 z "},"•":{"ha":425,"x_min":61,"x_max":364,"o":"m 213 235 q 106 279 150 235 q 61 386 61 324 q 106 493 61 449 q 213 538 150 538 q 319 493 275 538 q 364 386 364 449 q 319 279 364 324 q 213 235 275 235 z "},":":{"ha":289,"x_min":69,"x_max":219,"o":"m 69 533 l 69 681 l 219 681 l 219 533 l 69 533 m 69 0 l 69 147 l 219 147 l 219 0 l 69 0 z "},",":{"ha":300,"x_min":79,"x_max":231,"o":"m 158 -149 l 79 -149 l 129 0 l 81 0 l 81 147 l 231 147 l 231 14 l 158 -149 z "},"…":{"ha":839,"x_min":69,"x_max":769,"o":"m 69 0 l 69 147 l 219 147 l 219 0 l 69 0 m 344 0 l 344 147 l 494 147 l 494 0 l 344 0 m 619 0 l 619 147 l 769 147 l 769 0 l 619 0 z "},"!":{"ha":336,"x_min":82,"x_max":254,"o":"m 110 239 l 110 275 l 82 972 l 254 972 l 226 275 l 226 239 l 110 239 m 93 0 l 93 147 l 243 147 l 243 0 l 93 0 z "},"¡":{"ha":336,"x_min":82,"x_max":254,"o":"m 110 456 l 110 419 l 82 -278 l 254 -278 l 226 419 l 226 456 l 110 456 m 93 694 l 93 547 l 243 547 l 243 694 l 93 694 z "},"#":{"ha":978,"x_min":46,"x_max":933,"o":"m 93 -15 l 213 300 l 46 300 l 101 426 l 261 426 l 324 586 l 149 586 l 189 704 l 368 704 l 471 972 l 583 972 l 479 704 l 664 704 l 768 972 l 879 972 l 776 704 l 933 704 l 893 586 l 732 586 l 669 426 l 847 426 l 790 300 l 621 300 l 501 -15 l 389 -15 l 510 300 l 325 300 l 204 -15 l 93 -15 m 374 426 l 557 426 l 619 586 l 436 586 l 374 426 z "},".":{"ha":289,"x_min":69,"x_max":219,"o":"m 69 0 l 69 147 l 219 147 l 219 0 l 69 0 z "},"?":{"ha":642,"x_min":83,"x_max":572,"o":"m 215 239 l 215 274 q 251 422 215 364 q 329 532 286 481 q 401 630 375 589 q 428 729 428 671 q 379 838 428 803 q 275 872 331 872 q 178 857 222 872 q 96 819 135 842 l 83 932 q 179 975 125 958 q 307 992 233 992 q 505 918 438 992 q 572 746 572 844 q 535 610 572 664 q 454 501 497 556 q 379 400 413 450 q 346 282 346 350 l 346 239 l 215 239 m 206 0 l 206 147 l 356 147 l 356 0 l 206 0 z "},"¿":{"ha":544,"x_min":49,"x_max":538,"o":"m 406 456 l 406 421 q 370 272 406 331 q 292 163 335 214 q 219 65 246 106 q 193 -35 193 24 q 242 -143 193 -108 q 346 -178 290 -178 q 442 -162 399 -178 q 525 -125 486 -147 l 538 -237 q 442 -281 496 -264 q 314 -297 388 -297 q 116 -224 183 -297 q 49 -51 49 -150 q 86 85 49 31 q 167 193 124 139 q 242 294 208 244 q 275 413 275 344 l 275 456 l 406 456 m 415 694 l 415 547 l 265 547 l 265 694 l 415 694 z "},"\"":{"ha":447,"x_min":50,"x_max":397,"o":"m 75 681 l 50 972 l 189 972 l 164 681 l 75 681 m 283 681 l 258 972 l 397 972 l 372 681 l 283 681 z "}}}
